{
.appVersion = "1230";
DisplayStrings = (
BR,
"",
"OOOO\012HHHH\012OO/T.alt1 OO\012HHHH\012HA HAB\012DYNA/T.alt1 Y\012HO\012",
O,
METSS,
"",
W,
OOSOO,
S,
P,
F,
F,
M,
"",
"0",
"1",
"1"
);
customParameters = (
{
name = Axes;
value = (
{
Name = Weight;
Tag = wght;
},
{
Name = Width;
Tag = wdth;
},
{
Name = Waist;
Tag = slnt;
}
);
}
);
date = "2018-06-13 01:37:59 +0000";
familyName = KRS.PY;
fontMaster = (
{
ascender = 750;
capHeight = 750;
custom = "Black Wide Mid";
customParameters = (
{
name = "Master Icon Glyph Name";
value = A;
}
);
descender = -250;
id = "41E2CF60-9A62-485C-A680-66BBCCBE3685";
weightValue = 1000;
widthValue = 1000;
xHeight = 500;
},
{
ascender = 750;
capHeight = 750;
custom = "Wide Mid";
customParameters = (
{
name = "Master Icon Glyph Name";
value = A;
}
);
descender = -250;
id = "C9BA7AB2-4C39-4898-B0E1-23BE521DA8C1";
weight = Light;
weightValue = 0;
widthValue = 1000;
xHeight = 500;
},
{
ascender = 750;
capHeight = 750;
custom = "Narrow Mid";
customParameters = (
{
name = "Master Icon Glyph Name";
value = A;
}
);
descender = -250;
id = "1577B97C-DCC5-4AA4-842F-E9BB22E99E3C";
userData = {
GSCornerRadius = 15;
};
weight = Light;
weightValue = 0;
widthValue = 0;
xHeight = 500;
},
{
ascender = 750;
capHeight = 750;
custom = "Black Narrow Mid";
customParameters = (
{
name = "Master Icon Glyph Name";
value = A;
}
);
descender = -250;
guideLines = (
{
position = "{277, 386}";
},
{
name = "topserif-narrow";
position = "{185, 557}";
},
{
name = numberstopserif;
position = "{73, 539}";
}
);
id = "628C7BDB-7DBE-4EE3-879C-693AF95326D4";
weightValue = 1000;
widthValue = 0;
xHeight = 500;
},
{
ascender = 750;
capHeight = 750;
custom = "Black Wide Tall";
customValue = -100;
customParameters = (
{
name = "Master Icon Glyph Name";
value = A;
}
);
descender = -250;
id = "401C54E9-F42A-49C7-842E-99B3D4FBDAC0";
weightValue = 1000;
widthValue = 1000;
xHeight = 500;
},
{
ascender = 750;
capHeight = 750;
custom = "Wide Tall";
customValue = -100;

glyphs = (
{
glyphname = A;
lastChange = "2019-09-10 12:18:56 +0000";
layers = (
{
layerId = "41E2CF60-9A62-485C-A680-66BBCCBE3685";
paths = (
{
closed = 1;
nodes = (
"499 0 LINE",
"499 236 LINE",
"1387 236 LINE",
"1387 0 LINE",
"1827 0 LINE",
"1827 750 LINE",
"249 750 LINE",
"59 477 LINE",
"59 0 LINE"
);
},
{
closed = 1;
nodes = (
"499 471 LINE",
"584 601 LINE",
"1387 601 LINE",
"1387 397 LINE",
"499 397 LINE"
);
}
);
width = 1891;
},
{
layerId = "C9BA7AB2-4C39-4898-B0E1-23BE521DA8C1";
paths = (
{
closed = 1;
nodes = (
"96 0 LINE",
"96 355 LINE",
"1152 355 LINE",
"1152 0 LINE",
"1193 0 LINE",
"1193 750 LINE",
"168 750 LINE",
"55 478 LINE",
"55 0 LINE"
);
},
{
closed = 1;
nodes = (
"96 475 LINE",
"197 719 LINE",
"1152 719 LINE",
"1152 386 LINE",
"96 386 LINE"
);
}
);
width = 1249;
},
{
layerId = "1577B97C-DCC5-4AA4-842F-E9BB22E99E3C";
paths = (
{
closed = 1;
nodes = (
"59 0 LINE",
"59 364 LINE",
"116 364 LINE",
"116 0 LINE",
"147 0 LINE",
"147 750 LINE",
"69 750 LINE",
"28 467 LINE",
"28 0 LINE"
);
},
{
closed = 1;
nodes = (
"59 463 LINE",
"97 728 LINE",
"116 728 LINE",
"116 386 LINE",
"59 386 LINE"
);
}
);
userData = {
com.schriftgestaltung.Glyphs.lastChange = "2019-04-28 05:35:59 +0000";
com.typemytype.robofont.pointLabels = {
FsYtJ2vFnp = (
crossbar,
shiftstem,
crossbar,
shiftdown,
crossbar,
crossbar,
shiftdown,
crossbar
);
IIRC9Wy7kQ = (
crossbar
);
OBZ5Ayed7M = (
crossbar,
shiftstem,
crossbar,
shiftdown,
crossbar,
crossbar,
shiftdown,
crossbar
);
QVexAlbAcl = (
crossbar,
shiftstem,
crossbar,
shiftdown,
crossbar,
crossbar,
shiftdown,
crossbar
);
VufvPdJ075 = (
crossbar,
shiftstem,
crossbar,
shiftdown,
crossbar,
crossbar,
shiftdown,
crossbar
);
ZgsCdxNJRW = (
crossbar,
shiftstem,
crossbar,
shiftdown,
crossbar,
crossbar,
shiftdown,
crossbar
);
iDT0uyhKrn = (
crossbar,
crossbar,
shiftdown
);
kpn4Kw9J0C = (
crossbar,
shiftstem,
crossbar,
shiftdown,
crossbar,
crossbar,
shiftdown,
crossbar
);
tUsW8L7b0y = (
crossbar,
crossbar,
shiftdown
);
};
};
width = 182;
},
{
layerId = "628C7BDB-7DBE-4EE3-879C-693AF95326D4";
paths = (
{
closed = 1;
nodes = (
"375 0 LINE",
"375 269 LINE",
"564 269 LINE",
"564 0 LINE",
"903 0 LINE",
"903 750 LINE",
"121 750 LINE",
"36 470 LINE",
"36 0 LINE"
);
},
{
closed = 1;
nodes = (
"375 463 LINE",
"421 658 LINE",
"564 658 LINE",
"564 405 LINE",
"375 405 LINE"
);
}
);
width = 944;
},
{
layerId = "7F3C6EE5-2603-4259-9F13-C30BB9E194E1";
paths = (
{
closed = 1;
nodes = (
"59 0 LINE",
"59 469 LINE",
"116 469 LINE",
"116 0 LINE",
"147 0 LINE",
"147 750 LINE",
"69 750 LINE",
"28 572 LINE",
"28 0 LINE"
);
},
{
closed = 1;
nodes = (
"59 568 LINE",
"97 728 LINE",
"116 728 LINE",
"116 491 LINE",
"59 491 LINE"
);
}
);
userData = {
com.schriftgestaltung.Glyphs.lastChange = "2019-04-28 05:35:59 +0000";
com.typemytype.robofont.pointLabels = {
FsYtJ2vFnp = (
crossbar,
shiftstem,
crossbar,
shiftdown,
crossbar,
crossbar,
shiftdown,
crossbar
);
IIRC9Wy7kQ = (
crossbar
);
OBZ5Ayed7M = (
crossbar,
shiftstem,
crossbar,
shiftdown,
crossbar,
crossbar,
shiftdown,
crossbar
);
QVexAlbAcl = (
crossbar,
shiftstem,
crossbar,
shiftdown,
crossbar,
crossbar,
shiftdown,
crossbar
);
VufvPdJ075 = (
crossbar,
shiftstem,
crossbar,
shiftdown,
crossbar,
crossbar,
shiftdown,
crossbar
);
ZgsCdxNJRW = (
crossbar,
shiftstem,
crossbar,
shiftdown,
crossbar,
crossbar,
shiftdown,
crossbar
);
iDT0uyhKrn = (
crossbar,
crossbar,
shiftdown
);
kpn4Kw9J0C = (
crossbar,
shiftstem,
crossbar,
shiftdown,
crossbar,
crossbar,
shiftdown,
crossbar
);
tUsW8L7b0y = (
crossbar,
crossbar,
shiftdown
);
};
};
width = 182;
},
{
layerId = "7A9BD435-3083-4FB3-9FE1-50106B21C13B";
paths = (
{
closed = 1;
nodes = (
"96 0 LINE",
"96 455 LINE",
"1152 455 LINE",
"1152 0 LINE",
"1193 0 LINE",
"1193 750 LINE",
"168 750 LINE",
"55 578 LINE",
"55 0 LINE"
);
},
{
closed = 1;
nodes = (
"96 575 LINE",
"197 719 LINE",
"1152 719 LINE",
"1152 486 LINE",
"96 486 LINE"
);
}
);
width = 1249;
},
{
layerId = "401C54E9-F42A-49C7-842E-99B3D4FBDAC0";
paths = (
{
closed = 1;
nodes = (
"499 0 LINE",
"499 321 LINE",
"1387 321 LINE",
"1387 0 LINE",
"1827 0 LINE",
"1827 750 LINE",
"249 750 LINE",
"59 503 LINE",
"59 0 LINE"
);
},
{
closed = 1;
nodes = (
"499 506 LINE",
"564 601 LINE",
"1387 601 LINE",
"1387 482 LINE",
"499 482 LINE"
);
}
);
width = 1891;
},
{
layerId = "6A003782-5630-46D5-9AEF-173A49B0B076";
paths = (
{
closed = 1;
nodes = (
"59 0 LINE",
"59 240 LINE",
"116 240 LINE",
"116 0 LINE",
"147 0 LINE",
"147 750 LINE",
"69 750 LINE",
"28 347 LINE",
"28 0 LINE"
);
},
{
closed = 1;
nodes = (
"59 343 LINE",
"97 728 LINE",
"116 728 LINE",
"116 262 LINE",
"59 262 LINE"
);
}
);
userData = {
com.schriftgestaltung.Glyphs.lastChange = "2019-04-28 05:35:59 +0000";
com.typemytype.robofont.pointLabels = {
FsYtJ2vFnp = (
crossbar,
shiftstem,
crossbar,
shiftdown,
crossbar,
crossbar,
shiftdown,
crossbar
);
IIRC9Wy7kQ = (
crossbar
);
OBZ5Ayed7M = (
crossbar,
shiftstem,
crossbar,
shiftdown,
crossbar,
crossbar,
shiftdown,
crossbar
);
QVexAlbAcl = (
crossbar,
shiftstem,
crossbar,
shiftdown,
crossbar,
crossbar,
shiftdown,
crossbar
);
VufvPdJ075 = (
crossbar,
shiftstem,
crossbar,
shiftdown,
crossbar,
crossbar,
shiftdown,
crossbar
);
ZgsCdxNJRW = (
crossbar,
shiftstem,
crossbar,
shiftdown,
crossbar,
crossbar,
shiftdown,
crossbar
);
iDT0uyhKrn = (
crossbar,
crossbar,
shiftdown
);
kpn4Kw9J0C = (
crossbar,
shiftstem,
crossbar,
shiftdown,
crossbar,
crossbar,
shiftdown,
crossbar
);
tUsW8L7b0y = (
crossbar,
crossbar,
shiftdown
);
};
};
width = 182;
},
{
layerId = "9EF6E879-D021-4626-8F52-6D74284C4DC7";
paths = (
{
closed = 1;
nodes = (
"96 0 LINE",
"96 185 LINE",
"1152 185 LINE",
"1152 0 LINE",
"1193 0 LINE",
"1193 750 LINE",
"168 750 LINE",
"55 358 LINE",
"55 0 LINE"
);
},
{
closed = 1;
nodes = (
"96 362 LINE",
"197 719 LINE",
"1152 719 LINE",
"1152 216 LINE",
"96 216 LINE"
);
}
);
width = 1249;
},
{
layerId = "FEE31BD6-05B9-4F93-BD72-F1214701600E";
paths = (
{
closed = 1;
nodes = (
"499 0 LINE",
"499 134 LINE",
"1387 134 LINE",
"1387 0 LINE",
"1827 0 LINE",
"1827 750 LINE",
"247 750 LINE",
"59 403 LINE",
"59 0 LINE"
);
},
{
closed = 1;
nodes = (
"499 382 LINE",
"612 601 LINE",
"1387 601 LINE",
"1387 295 LINE",
"499 295 LINE"
);
}
);
width = 1891;
},
{
layerId = "A421AE7B-D57F-4979-B16B-A2461F92FFEC";
paths = (
{
closed = 1;
nodes = (
"375 0 LINE",
"375 269 LINE",
"564 269 LINE",
"564 0 LINE",
"903 0 LINE",
"903 750 LINE",
"121 750 LINE",
"36 470 LINE",
"36 0 LINE"
);
},
{
closed = 1;
nodes = (
"375 463 LINE",
"421 658 LINE",
"564 658 LINE",
"564 405 LINE",
"375 405 LINE"
);
}
);
width = 944;
},
{
layerId = "1DE04BF9-788D-44CB-BAD3-AEB0D6A323B9";
paths = (
{
closed = 1;
nodes = (
"375 0 LINE",
"375 269 LINE",
"564 269 LINE",
"564 0 LINE",
"903 0 LINE",
"903 750 LINE",
"121 750 LINE",
"36 470 LINE",
"36 0 LINE"
);
},
{
closed = 1;
nodes = (
"375 463 LINE",
"421 658 LINE",
"564 658 LINE",
"564 405 LINE",
"375 405 LINE"
);
}
);
width = 944;
}
);
unicode = 0041;
},
{
glyphname = B;
lastChange = "2019-09-10 12:18:56 +0000";
layers = (
{
layerId = "41E2CF60-9A62-485C-A680-66BBCCBE3685";
paths = (
{
closed = 1;
nodes = (
"1831 0 LINE",
"1831 271 LINE",
"1575 358 LINE",
"1575 387 LINE",
"1805 468 LINE",
"1805 750 LINE",
"64 750 LINE",
"64 0 LINE"
);
},
{
closed = 1;
nodes = (
"504 313 LINE",
"1273 313 LINE",
"1392 281 LINE",
"1392 156 LINE",
"504 156 LINE"
);
},
{
closed = 1;
nodes = (
"504 594 LINE",
"1365 594 LINE",
"1365 456 LINE",
"1275 432 LINE",
"504 432 LINE"
);
}
);
width = 1862;
},
{
layerId = "C9BA7AB2-4C39-4898-B0E1-23BE521DA8C1";
paths = (
{
closed = 1;
nodes = (
"1194 0 LINE",
"1194 305 LINE",
"992 371 LINE",
"992 373 LINE",
"1158 440 LINE",
"1158 750 LINE",
"56 750 LINE",
"56 0 LINE"
);
},
{
closed = 1;
nodes = (
"97 356 LINE",
"953 356 LINE",
"1153 287 LINE",
"1153 32 LINE",
"97 32 LINE"
);
},
{
closed = 1;
nodes = (
"97 718 LINE",
"1117 718 LINE",
"1117 455 LINE",
"955 387 LINE",
"97 387 LINE"
);
}
);
width = 1230;
},
{
layerId = "1577B97C-DCC5-4AA4-842F-E9BB22E99E3C";
paths = (
{
closed = 1;
nodes = (
"154 0 LINE",
"154 325 LINE",
"94 388 LINE",
"94 360 LINE",
"151 427 LINE",
"151 750 LINE",
"35 750 LINE",
"35 0 LINE"
);
},
{
closed = 1;
nodes = (
"66 361 LINE",
"82 361 LINE",
"123 317 LINE",
"123 22 LINE",
"66 22 LINE"
);
},
{
closed = 1;
nodes = (
"66 728 LINE",
"120 728 LINE",
"120 432 LINE",
"82 386 LINE",
"66 386 LINE"
);
}
);
userData = {
com.schriftgestaltung.Glyphs.lastChange = "2019-04-28 05:35:59 +0000";
com.typemytype.robofont.pointLabels = {
1p5hKrurVy = (
leftside,
shiftstem,
leftside,
crossbar,
crossbar,
crossbar,
shiftdown,
crossbar,
crossbar,
crossbar,
shiftdown,
crossbar,
crossbar,
crossbar,
crossbar,
shiftdown
);
543PerILpr = (
crossbar,
rightside,
crossbar,
crossbar,
crossbar
);
9QFpw7nfq7 = (
crossbar,
rightside,
crossbar,
crossbar,
crossbar
);
9lW01gQyU2 = (
crossbar
);
By7dfMihfe = (
leftside,
shiftstem,
leftside,
crossbar,
crossbar,
crossbar,
shiftdown,
crossbar,
crossbar,
crossbar,
shiftdown,
crossbar,
crossbar,
crossbar,
crossbar,
shiftdown
);
CFLmER0nAJ = (
crossbar,
rightside,
crossbar,
crossbar,
crossbar
);
FaP204GrdB = (
crossbar,
rightside,
crossbar,
crossbar,
crossbar
);
JEev70GAj6 = (
leftside,
shiftstem,
leftside,
crossbar,
crossbar,
crossbar,
shiftdown,
crossbar,
crossbar,
crossbar,
shiftdown,
crossbar,
crossbar,
crossbar,
crossbar,
shiftdown
);
Qby8aMtF2X = (
crossbar,
crossbar,
crossbar,
shiftdown
);
VyYlzRh5nq = (
crossbar,
crossbar,
crossbar,
shiftdown
);
XSrxNd2axx = (
leftside,
shiftstem,
leftside,
crossbar,
crossbar,
crossbar,
shiftdown,
crossbar,
crossbar,
crossbar,
shiftdown,
crossbar,
crossbar,
crossbar,
crossbar,
shiftdown
);
eGKH52Jgnk = (
crossbar,
rightside,
crossbar,
crossbar,
crossbar
);
hvY9r8RmLr = (
leftside,
shiftstem,
leftside,
crossbar,
crossbar,
crossbar,
shiftdown,
crossbar,
crossbar,
crossbar,
shiftdown,
crossbar,
crossbar,
crossbar,
crossbar,
shiftdown
);
jaMSiLrCua = (
leftside,
shiftstem,
leftside,
crossbar,
crossbar,
crossbar,
shiftdown,
crossbar,
crossbar,
crossbar,
shiftdown,
crossbar,
crossbar,
crossbar,
crossbar,
shiftdown
);
lsRGatjQja = (
crossbar,
crossbar,
crossbar,
shiftdown
);
tTFhqGqWV0 = (
crossbar,
rightside,
crossbar,
crossbar,
crossbar
);
xhlDJ3CjD5 = (
crossbar,
crossbar,
crossbar,
shiftdown
);
xpxyvIzPoc = (
crossbar
);
};
};
width = 184;
},
{
layerId = "628C7BDB-7DBE-4EE3-879C-693AF95326D4";
paths = (
{
closed = 1;
nodes = (
"910 0 LINE",
"910 310 LINE",
"780 367 LINE",
"780 380 LINE",
"899 432 LINE",
"899 750 LINE",
"41 750 LINE",
"41 0 LINE"
);
},
{
closed = 1;
nodes = (
"380 342 LINE",
"517 342 LINE",
"571 319 LINE",
"571 117 LINE",
"380 117 LINE"
);
},
{
closed = 1;
nodes = (
"380 633 LINE",
"560 633 LINE",
"560 432 LINE",
"517 408 LINE",
"380 408 LINE"
);
}
);
width = 931;
},
{
layerId = "7F3C6EE5-2603-4259-9F13-C30BB9E194E1";
paths = (
{
closed = 1;
nodes = (
"154 0 LINE",
"154 429 LINE",
"94 492 LINE",
"94 464 LINE",
"151 531 LINE",
"151 750 LINE",
"35 750 LINE",
"35 0 LINE"
);
},
{
closed = 1;
nodes = (
"66 465 LINE",
"82 465 LINE",
"123 421 LINE",
"123 22 LINE",
"66 22 LINE"
);
},
{
closed = 1;
nodes = (
"66 728 LINE",
"120 728 LINE",
"120 536 LINE",
"82 490 LINE",
"66 490 LINE"
);
}
);
userData = {
com.schriftgestaltung.Glyphs.lastChange = "2019-04-28 05:35:59 +0000";
com.typemytype.robofont.pointLabels = {
1p5hKrurVy = (
leftside,
shiftstem,
leftside,
crossbar,
crossbar,
crossbar,
shiftdown,
crossbar,
crossbar,
crossbar,
shiftdown,
crossbar,
crossbar,
crossbar,
crossbar,
shiftdown
);
543PerILpr = (
crossbar,
rightside,
crossbar,
crossbar,
crossbar
);
9QFpw7nfq7 = (
crossbar,
rightside,
crossbar,
crossbar,
crossbar
);
9lW01gQyU2 = (
crossbar
);
By7dfMihfe = (
leftside,
shiftstem,
leftside,
crossbar,
crossbar,
crossbar,
shiftdown,
crossbar,
crossbar,
crossbar,
shiftdown,
crossbar,
crossbar,
crossbar,
crossbar,
shiftdown
);
CFLmER0nAJ = (
crossbar,
rightside,
crossbar,
crossbar,
crossbar
);
FaP204GrdB = (
crossbar,
rightside,
crossbar,
crossbar,
crossbar
);
JEev70GAj6 = (
leftside,
shiftstem,
leftside,
crossbar,
crossbar,
crossbar,
shiftdown,
crossbar,
crossbar,
crossbar,
shiftdown,
crossbar,
crossbar,
crossbar,
crossbar,
shiftdown
);
Qby8aMtF2X = (
crossbar,
crossbar,
crossbar,
shiftdown
);
VyYlzRh5nq = (
crossbar,
crossbar,
crossbar,
shiftdown
);
XSrxNd2axx = (
leftside,
shiftstem,
leftside,
crossbar,
crossbar,
crossbar,
shiftdown,
crossbar,
crossbar,
crossbar,
shiftdown,
crossbar,
crossbar,
crossbar,
crossbar,
shiftdown
);
eGKH52Jgnk = (
crossbar,
rightside,
crossbar,
crossbar,
crossbar
);
hvY9r8RmLr = (
leftside,
shiftstem,
leftside,
crossbar,
crossbar,
crossbar,
shiftdown,
crossbar,
crossbar,
crossbar,
shiftdown,
crossbar,
crossbar,
crossbar,
crossbar,
shiftdown
);
jaMSiLrCua = (
leftside,
shiftstem,
leftside,
crossbar,
crossbar,
crossbar,
shiftdown,
crossbar,
crossbar,
crossbar,
shiftdown,
crossbar,
crossbar,
crossbar,
crossbar,
shiftdown
);
lsRGatjQja = (
crossbar,
crossbar,
crossbar,
shiftdown
);
tTFhqGqWV0 = (
crossbar,
rightside,
crossbar,
crossbar,
crossbar
);
xhlDJ3CjD5 = (
crossbar,
crossbar,
crossbar,
shiftdown
);
xpxyvIzPoc = (
crossbar
);
};
};
width = 184;
},
{
layerId = "7A9BD435-3083-4FB3-9FE1-50106B21C13B";
paths = (
{
closed = 1;
nodes = (
"1194 0 LINE",
"1194 405 LINE",
"992 471 LINE",
"992 473 LINE",
"1158 540 LINE",
"1158 750 LINE",
"56 750 LINE",
"56 0 LINE"
);
},
{
closed = 1;
nodes = (
"97 456 LINE",
"953 456 LINE",
"1153 387 LINE",
"1153 32 LINE",
"97 32 LINE"
);
},
{
closed = 1;
nodes = (
"97 718 LINE",
"1117 718 LINE",
"1117 555 LINE",
"955 487 LINE",
"97 487 LINE"
);
}
);
width = 1230;
},
{
layerId = "401C54E9-F42A-49C7-842E-99B3D4FBDAC0";
paths = (
{
closed = 1;
nodes = (
"1831 0 LINE",
"1831 321 LINE",
"1575 408 LINE",
"1575 431 LINE",
"1795 512 LINE",
"1795 750 LINE",
"64 750 LINE",
"64 0 LINE"
);
},
{
closed = 1;
nodes = (
"504 349 LINE",
"1273 349 LINE",
"1392 297 LINE",
"1392 156 LINE",
"504 156 LINE"
);
},
{
closed = 1;
nodes = (
"504 594 LINE",
"1365 594 LINE",
"1365 536 LINE",
"1275 482 LINE",
"504 482 LINE"
);
}
);
width = 1862;
},
{
layerId = "6A003782-5630-46D5-9AEF-173A49B0B076";
paths = (
{
closed = 1;
nodes = (
"154 0 LINE",
"154 215 LINE",
"94 278 LINE",
"94 250 LINE",
"151 317 LINE",
"151 750 LINE",
"35 750 LINE",
"35 0 LINE"
);
},
{
closed = 1;
nodes = (
"66 251 LINE",
"82 251 LINE",
"123 207 LINE",
"123 22 LINE",
"66 22 LINE"
);
},
{
closed = 1;
nodes = (
"66 728 LINE",
"120 728 LINE",
"120 322 LINE",
"82 276 LINE",
"66 276 LINE"
);
}
);
userData = {
com.schriftgestaltung.Glyphs.lastChange = "2019-04-28 05:35:59 +0000";
com.typemytype.robofont.pointLabels = {
1p5hKrurVy = (
leftside,
shiftstem,
leftside,
crossbar,
crossbar,
crossbar,
shiftdown,
crossbar,
crossbar,
crossbar,
shiftdown,
crossbar,
crossbar,
crossbar,
crossbar,
shiftdown
);
543PerILpr = (
crossbar,
rightside,
crossbar,
crossbar,
crossbar
);
9QFpw7nfq7 = (
crossbar,
rightside,
crossbar,
crossbar,
crossbar
);
9lW01gQyU2 = (
crossbar
);
By7dfMihfe = (
leftside,
shiftstem,
leftside,
crossbar,
crossbar,
crossbar,
shiftdown,
crossbar,
crossbar,
crossbar,
shiftdown,
crossbar,
crossbar,
crossbar,
crossbar,
shiftdown
);
CFLmER0nAJ = (
crossbar,
rightside,
crossbar,
crossbar,
crossbar
);
FaP204GrdB = (
crossbar,
rightside,
crossbar,
crossbar,
crossbar
);
JEev70GAj6 = (
leftside,
shiftstem,
leftside,
crossbar,
crossbar,
crossbar,
shiftdown,
crossbar,
crossbar,
crossbar,
shiftdown,
crossbar,
crossbar,
crossbar,
crossbar,
shiftdown
);
Qby8aMtF2X = (
crossbar,
crossbar,
crossbar,
shiftdown
);
VyYlzRh5nq = (
crossbar,
crossbar,
crossbar,
shiftdown
);
XSrxNd2axx = (
leftside,
shiftstem,
leftside,
crossbar,
crossbar,
crossbar,
shiftdown,
crossbar,
crossbar,
crossbar,
shiftdown,
crossbar,
crossbar,
crossbar,
crossbar,
shiftdown
);
eGKH52Jgnk = (
crossbar,
rightside,
crossbar,
crossbar,
crossbar
);
hvY9r8RmLr = (
leftside,
shiftstem,
leftside,
crossbar,
crossbar,
crossbar,
shiftdown,
crossbar,
crossbar,
crossbar,
shiftdown,
crossbar,
crossbar,
crossbar,
crossbar,
shiftdown
);
jaMSiLrCua = (
leftside,
shiftstem,
leftside,
crossbar,
crossbar,
crossbar,
shiftdown,
crossbar,
crossbar,
crossbar,
shiftdown,
crossbar,
crossbar,
crossbar,
crossbar,
shiftdown
);
lsRGatjQja = (
crossbar,
crossbar,
crossbar,
shiftdown
);
tTFhqGqWV0 = (
crossbar,
rightside,
crossbar,
crossbar,
crossbar
);
xhlDJ3CjD5 = (
crossbar,
crossbar,
crossbar,
shiftdown
);
xpxyvIzPoc = (
crossbar
);
};
};
width = 184;
},
{
layerId = "9EF6E879-D021-4626-8F52-6D74284C4DC7";
paths = (
{
closed = 1;
nodes = (
"1194 0 LINE",
"1194 157 LINE",
"992 223 LINE",
"992 225 LINE",
"1158 292 LINE",
"1158 750 LINE",
"56 750 LINE",
"56 0 LINE"
);
},
{
closed = 1;
nodes = (
"97 208 LINE",
"953 208 LINE",
"1153 139 LINE",
"1153 32 LINE",
"97 32 LINE"
);
},
{
closed = 1;
nodes = (
"97 718 LINE",
"1117 718 LINE",
"1117 307 LINE",
"955 239 LINE",
"97 239 LINE"
);
}
);
width = 1230;
},
{
layerId = "FEE31BD6-05B9-4F93-BD72-F1214701600E";
paths = (
{
closed = 1;
nodes = (
"1831 0 LINE",
"1831 205 LINE",
"1575 292 LINE",
"1575 302 LINE",
"1805 383 LINE",
"1805 750 LINE",
"64 750 LINE",
"64 0 LINE"
);
},
{
closed = 1;
nodes = (
"504 248 LINE",
"1283 248 LINE",
"1392 216 LINE",
"1392 156 LINE",
"504 156 LINE"
);
},
{
closed = 1;
nodes = (
"504 594 LINE",
"1365 594 LINE",
"1365 391 LINE",
"1285 367 LINE",
"504 367 LINE"
);
}
);
width = 1862;
},
{
layerId = "A421AE7B-D57F-4979-B16B-A2461F92FFEC";
paths = (
{
closed = 1;
nodes = (
"910 0 LINE",
"910 310 LINE",
"780 367 LINE",
"780 380 LINE",
"899 432 LINE",
"899 750 LINE",
"41 750 LINE",
"41 0 LINE"
);
},
{
closed = 1;
nodes = (
"380 342 LINE",
"517 342 LINE",
"571 319 LINE",
"571 117 LINE",
"380 117 LINE"
);
},
{
closed = 1;
nodes = (
"380 633 LINE",
"560 633 LINE",
"560 432 LINE",
"517 408 LINE",
"380 408 LINE"
);
}
);
width = 931;
},
{
layerId = "1DE04BF9-788D-44CB-BAD3-AEB0D6A323B9";
paths = (
{
closed = 1;
nodes = (
"910 0 LINE",
"910 310 LINE",
"780 367 LINE",
"780 380 LINE",
"899 432 LINE",
"899 750 LINE",
"41 750 LINE",
"41 0 LINE"
);
},
{
closed = 1;
nodes = (
"380 342 LINE",
"517 342 LINE",
"571 319 LINE",
"571 117 LINE",
"380 117 LINE"
);
},
{
closed = 1;
nodes = (
"380 633 LINE",
"560 633 LINE",
"560 432 LINE",
"517 408 LINE",
"380 408 LINE"
);
}
);
width = 931;
}
);
unicode = 0042;
},
{
glyphname = C;
lastChange = "2019-09-10 12:18:56 +0000";
layers = (
{
layerId = "41E2CF60-9A62-485C-A680-66BBCCBE3685";
paths = (
{
closed = 1;
nodes = (
"1817 0 LINE",
"1817 293 LINE",
"1377 293 LINE",
"1377 139 LINE",
"499 139 LINE",
"499 368 LINE",
"673 612 LINE",
"1376 612 LINE",
"1376 431 LINE",
"1816 431 LINE",
"1816 751 LINE",
"318 751 LINE",
"59 393 LINE",
"59 0 LINE"
);
}
);
width = 1885;
},
{
layerId = "C9BA7AB2-4C39-4898-B0E1-23BE521DA8C1";
paths = (
{
closed = 1;
nodes = (
"1194 0 LINE",
"1194 167 LINE",
"1153 167 LINE",
"1153 29 LINE",
"97 29 LINE",
"97 498 LINE",
"270 721 LINE",
"1152 721 LINE",
"1152 488 LINE",
"1193 488 LINE",
"1193 751 LINE",
"247 751 LINE",
"56 503 LINE",
"56 0 LINE"
);
}
);
width = 1241;
},
{
layerId = "1577B97C-DCC5-4AA4-842F-E9BB22E99E3C";
paths = (
{
closed = 1;
nodes = (
"148 0 LINE",
"148 160 LINE",
"117 160 LINE",
"117 22 LINE",
"60 22 LINE",
"60 650 LINE",
"96 729 LINE",
"116 729 LINE",
"116 492 LINE",
"147 492 LINE",
"147 751 LINE",
"76 751 LINE",
"29 651 LINE",
"29 0 LINE"
);
}
);
userData = {
com.schriftgestaltung.Glyphs.lastChange = "2019-04-28 11:49:41 +0000";
com.typemytype.robofont.pointLabels = {
5BjRbcud80 = (
rightside,
shiftstem,
rightside,
shiftdown,
shiftdown,
rightside,
rightside
);
7lPhzTnk2Z = (
leftside
);
9eJelv8BOw = (
rightside,
shiftstem,
rightside,
shiftdown,
shiftdown,
rightside,
rightside
);
L2LsGnXiZ2 = (
shiftdown
);
QX1V08aTu0 = (
rightside,
shiftstem,
rightside,
shiftdown,
shiftdown,
rightside,
rightside
);
QjTd5GXXER = (
rightside
);
V1EWIdPahq = (
leftside
);
Y750RHTvDj = (
rightside,
shiftstem,
rightside,
shiftdown,
shiftdown,
rightside,
rightside
);
dbOUe6OhxL = (
shiftdown
);
fNVDqwQo2o = (
rightside,
shiftstem,
rightside,
shiftdown,
shiftdown,
rightside,
rightside
);
lfZev3ICaC = (
leftside
);
nDnDHzAMXL = (
rightside,
shiftstem,
rightside,
shiftdown,
shiftdown,
rightside,
rightside
);
o9Cec4GtsE = (
rightside
);
qJVLZGnkwh = (
rightside,
shiftstem,
rightside,
shiftdown,
shiftdown,
rightside,
rightside
);
sUWsr03vF4 = (
shiftdown
);
wLqQQx7QVN = (
rightside,
shiftstem,
rightside,
shiftdown,
shiftdown,
rightside,
rightside
);
};
};
width = 174;
},
{
layerId = "628C7BDB-7DBE-4EE3-879C-693AF95326D4";
paths = (
{
closed = 1;
nodes = (
"853 0 LINE",
"853 265 LINE",
"514 265 LINE",
"514 96 LINE",
"375 96 LINE",
"375 570 LINE",
"408 654 LINE",
"513 654 LINE",
"513 447 LINE",
"852 447 LINE",
"852 751 LINE",
"103 751 LINE",
"36 567 LINE",
"36 0 LINE"
);
}
);
width = 875;
},
{
layerId = "7F3C6EE5-2603-4259-9F13-C30BB9E194E1";
paths = (
{
closed = 1;
nodes = (
"148 0 LINE",
"148 160 LINE",
"117 160 LINE",
"117 22 LINE",
"60 22 LINE",
"60 650 LINE",
"96 729 LINE",
"116 729 LINE",
"116 492 LINE",
"147 492 LINE",
"147 751 LINE",
"76 751 LINE",
"29 651 LINE",
"29 0 LINE"
);
}
);
userData = {
com.schriftgestaltung.Glyphs.lastChange = "2019-04-28 11:49:41 +0000";
com.typemytype.robofont.pointLabels = {
5BjRbcud80 = (
rightside,
shiftstem,
rightside,
shiftdown,
shiftdown,
rightside,
rightside
);
7lPhzTnk2Z = (
leftside
);
9eJelv8BOw = (
rightside,
shiftstem,
rightside,
shiftdown,
shiftdown,
rightside,
rightside
);
L2LsGnXiZ2 = (
shiftdown
);
QX1V08aTu0 = (
rightside,
shiftstem,
rightside,
shiftdown,
shiftdown,
rightside,
rightside
);
QjTd5GXXER = (
rightside
);
V1EWIdPahq = (
leftside
);
Y750RHTvDj = (
rightside,
shiftstem,
rightside,
shiftdown,
shiftdown,
rightside,
rightside
);
dbOUe6OhxL = (
shiftdown
);
fNVDqwQo2o = (
rightside,
shiftstem,
rightside,
shiftdown,
shiftdown,
rightside,
rightside
);
lfZev3ICaC = (
leftside
);
nDnDHzAMXL = (
rightside,
shiftstem,
rightside,
shiftdown,
shiftdown,
rightside,
rightside
);
o9Cec4GtsE = (
rightside
);
qJVLZGnkwh = (
rightside,
shiftstem,
rightside,
shiftdown,
shiftdown,
rightside,
rightside
);
sUWsr03vF4 = (
shiftdown
);
wLqQQx7QVN = (
rightside,
shiftstem,
rightside,
shiftdown,
shiftdown,
rightside,
rightside
);
};
};
width = 174;
},
{
layerId = "7A9BD435-3083-4FB3-9FE1-50106B21C13B";
paths = (
{
closed = 1;
nodes = (
"1194 0 LINE",
"1194 167 LINE",
"1153 167 LINE",
"1153 29 LINE",
"97 29 LINE",
"97 498 LINE",
"270 721 LINE",
"1152 721 LINE",
"1152 488 LINE",
"1193 488 LINE",
"1193 751 LINE",
"247 751 LINE",
"56 503 LINE",
"56 0 LINE"
);
}
);
width = 1241;
},
{
layerId = "401C54E9-F42A-49C7-842E-99B3D4FBDAC0";
paths = (
{
closed = 1;
nodes = (
"1817 0 LINE",
"1817 293 LINE",
"1377 293 LINE",
"1377 139 LINE",
"499 139 LINE",
"499 368 LINE",
"678 612 LINE",
"1376 612 LINE",
"1376 431 LINE",
"1816 431 LINE",
"1816 751 LINE",
"318 751 LINE",
"59 393 LINE",
"59 0 LINE"
);
}
);
width = 1885;
},
{
layerId = "6A003782-5630-46D5-9AEF-173A49B0B076";
paths = (
{
closed = 1;
nodes = (
"148 0 LINE",
"148 160 LINE",
"117 160 LINE",
"117 22 LINE",
"60 22 LINE",
"60 650 LINE",
"96 729 LINE",
"116 729 LINE",
"116 492 LINE",
"147 492 LINE",
"147 751 LINE",
"76 751 LINE",
"29 651 LINE",
"29 0 LINE"
);
}
);
userData = {
com.schriftgestaltung.Glyphs.lastChange = "2019-04-28 11:49:41 +0000";
com.typemytype.robofont.pointLabels = {
5BjRbcud80 = (
rightside,
shiftstem,
rightside,
shiftdown,
shiftdown,
rightside,
rightside
);
7lPhzTnk2Z = (
leftside
);
9eJelv8BOw = (
rightside,
shiftstem,
rightside,
shiftdown,
shiftdown,
rightside,
rightside
);
L2LsGnXiZ2 = (
shiftdown
);
QX1V08aTu0 = (
rightside,
shiftstem,
rightside,
shiftdown,
shiftdown,
rightside,
rightside
);
QjTd5GXXER = (
rightside
);
V1EWIdPahq = (
leftside
);
Y750RHTvDj = (
rightside,
shiftstem,
rightside,
shiftdown,
shiftdown,
rightside,
rightside
);
dbOUe6OhxL = (
shiftdown
);
fNVDqwQo2o = (
rightside,
shiftstem,
rightside,
shiftdown,
shiftdown,
rightside,
rightside
);
lfZev3ICaC = (
leftside
);
nDnDHzAMXL = (
rightside,
shiftstem,
rightside,
shiftdown,
shiftdown,
rightside,
rightside
);
o9Cec4GtsE = (
rightside
);
qJVLZGnkwh = (
rightside,
shiftstem,
rightside,
shiftdown,
shiftdown,
rightside,
rightside
);
sUWsr03vF4 = (
shiftdown
);
wLqQQx7QVN = (
rightside,
shiftstem,
rightside,
shiftdown,
shiftdown,
rightside,
rightside
);
};
};
width = 174;
},
{
layerId = "9EF6E879-D021-4626-8F52-6D74284C4DC7";
paths = (
{
closed = 1;
nodes = (
"1194 0 LINE",
"1194 167 LINE",
"1153 167 LINE",
"1153 29 LINE",
"97 29 LINE",
"97 498 LINE",
"270 721 LINE",
"1152 721 LINE",
"1152 488 LINE",
"1193 488 LINE",
"1193 751 LINE",
"247 751 LINE",
"56 503 LINE",
"56 0 LINE"
);
}
);
width = 1241;
},
{
layerId = "FEE31BD6-05B9-4F93-BD72-F1214701600E";
paths = (
{
closed = 1;
nodes = (
"1813 0 LINE",
"1813 293 LINE",
"1373 293 LINE",
"1373 139 LINE",
"499 139 LINE",
"499 368 LINE",
"673 612 LINE",
"1372 612 LINE",
"1372 431 LINE",
"1812 431 LINE",
"1812 751 LINE",
"318 751 LINE",
"59 393 LINE",
"59 0 LINE"
);
}
);
width = 1885;
},
{
layerId = "A421AE7B-D57F-4979-B16B-A2461F92FFEC";
paths = (
{
closed = 1;
nodes = (
"853 0 LINE",
"853 265 LINE",
"514 265 LINE",
"514 96 LINE",
"375 96 LINE",
"375 570 LINE",
"408 654 LINE",
"513 654 LINE",
"513 447 LINE",
"852 447 LINE",
"852 751 LINE",
"103 751 LINE",
"36 567 LINE",
"36 0 LINE"
);
}
);
width = 875;
},
{
layerId = "1DE04BF9-788D-44CB-BAD3-AEB0D6A323B9";
paths = (
{
closed = 1;
nodes = (
"853 0 LINE",
"853 265 LINE",
"514 265 LINE",
"514 96 LINE",
"375 96 LINE",
"375 570 LINE",
"408 654 LINE",
"513 654 LINE",
"513 447 LINE",
"852 447 LINE",
"852 751 LINE",
"103 751 LINE",
"36 567 LINE",
"36 0 LINE"
);
}
);
width = 875;
}
);
unicode = 0043;
},
{
glyphname = D;
lastChange = "2019-09-10 12:18:56 +0000";
layers = (
{
layerId = "41E2CF60-9A62-485C-A680-66BBCCBE3685";
paths = (
{
closed = 1;
nodes = (
"1832 0 LINE",
"1832 425 LINE",
"1453 750 LINE",
"64 750 LINE",
"64 0 LINE"
);
},
{
closed = 1;
nodes = (
"504 594 LINE",
"1111 594 LINE",
"1392 368 LINE",
"1392 156 LINE",
"504 156 LINE"
);
}
);
width = 1891;
},
{
layerId = "C9BA7AB2-4C39-4898-B0E1-23BE521DA8C1";
paths = (
{
closed = 1;
nodes = (
"1181 0 LINE",
"1181 570 LINE",
"1028 750 LINE",
"56 750 LINE",
"56 0 LINE"
);
},
{
closed = 1;
nodes = (
"97 718 LINE",
"1004 718 LINE",
"1140 558 LINE",
"1140 31 LINE",
"97 32 LINE"
);
}
);
width = 1230;
},
{
layerId = "1577B97C-DCC5-4AA4-842F-E9BB22E99E3C";
paths = (
{
closed = 1;
nodes = (
"155 0 LINE",
"155 664 LINE",
"111 750 LINE",
"35 750 LINE",
"35 0 LINE"
);
},
{
closed = 1;
nodes = (
"66 728 LINE",
"89 728 LINE",
"124 658 LINE",
"124 22 LINE",
"66 22 LINE"
);
}
);
userData = {
com.schriftgestaltung.Glyphs.lastChange = "2019-04-28 05:35:59 +0000";
com.typemytype.robofont.pointLabels = {
4w8cXO1HlF = (
leftside,
shiftstem,
leftside,
shiftstem,
shiftdown
);
5OFemp6E2Y = (
leftside,
shiftstem,
leftside,
shiftstem,
shiftdown
);
DhFNkdKcfj = (
leftside
);
DiLdvAK6bW = (
leftside,
shiftstem,
leftside,
shiftstem,
shiftdown
);
IF8msvcgce = (
rightside
);
OGdfzPVlic = (
leftside,
shiftstem,
leftside,
shiftstem,
shiftdown
);
YShvMHvurg = (
leftside,
shiftstem,
leftside,
shiftstem,
shiftdown
);
gh4oopoKIn = (
leftside,
shiftstem
);
hTYdJwlqIh = (
leftside,
shiftstem
);
ydeACnPZN4 = (
rightside
);
yunTqSzRcA = (
rightside
);
};
};
width = 187;
},
{
layerId = "628C7BDB-7DBE-4EE3-879C-693AF95326D4";
paths = (
{
closed = 1;
nodes = (
"909 0 LINE",
"909 557 LINE",
"803 750 LINE",
"41 750 LINE",
"41 0 LINE"
);
},
{
closed = 1;
nodes = (
"380 623 LINE",
"522 623 LINE",
"570 513 LINE",
"570 127 LINE",
"380 127 LINE"
);
}
);
width = 945;
},
{
layerId = "7F3C6EE5-2603-4259-9F13-C30BB9E194E1";
paths = (
{
closed = 1;
nodes = (
"155 0 LINE",
"155 664 LINE",
"111 750 LINE",
"35 750 LINE",
"35 0 LINE"
);
},
{
closed = 1;
nodes = (
"66 728 LINE",
"89 728 LINE",
"124 658 LINE",
"124 22 LINE",
"66 22 LINE"
);
}
);
userData = {
com.schriftgestaltung.Glyphs.lastChange = "2019-04-28 05:35:59 +0000";
com.typemytype.robofont.pointLabels = {
4w8cXO1HlF = (
leftside,
shiftstem,
leftside,
shiftstem,
shiftdown
);
5OFemp6E2Y = (
leftside,
shiftstem,
leftside,
shiftstem,
shiftdown
);
DhFNkdKcfj = (
leftside
);
DiLdvAK6bW = (
leftside,
shiftstem,
leftside,
shiftstem,
shiftdown
);
IF8msvcgce = (
rightside
);
OGdfzPVlic = (
leftside,
shiftstem,
leftside,
shiftstem,
shiftdown
);
YShvMHvurg = (
leftside,
shiftstem,
leftside,
shiftstem,
shiftdown
);
gh4oopoKIn = (
leftside,
shiftstem
);
hTYdJwlqIh = (
leftside,
shiftstem
);
ydeACnPZN4 = (
rightside
);
yunTqSzRcA = (
rightside
);
};
};
width = 187;
},
{
layerId = "7A9BD435-3083-4FB3-9FE1-50106B21C13B";
paths = (
{
closed = 1;
nodes = (
"1181 0 LINE",
"1181 570 LINE",
"1028 750 LINE",
"56 750 LINE",
"56 0 LINE"
);
},
{
closed = 1;
nodes = (
"97 718 LINE",
"1004 718 LINE",
"1140 558 LINE",
"1140 31 LINE",
"97 32 LINE"
);
}
);
width = 1230;
},
{
layerId = "401C54E9-F42A-49C7-842E-99B3D4FBDAC0";
paths = (
{
closed = 1;
nodes = (
"1832 0 LINE",
"1832 425 LINE",
"1453 750 LINE",
"64 750 LINE",
"64 0 LINE"
);
},
{
closed = 1;
nodes = (
"504 594 LINE",
"1111 594 LINE",
"1392 368 LINE",
"1392 156 LINE",
"504 156 LINE"
);
}
);
width = 1891;
},
{
layerId = "6A003782-5630-46D5-9AEF-173A49B0B076";
paths = (
{
closed = 1;
nodes = (
"155 0 LINE",
"155 664 LINE",
"111 750 LINE",
"35 750 LINE",
"35 0 LINE"
);
},
{
closed = 1;
nodes = (
"66 728 LINE",
"89 728 LINE",
"124 658 LINE",
"124 22 LINE",
"66 22 LINE"
);
}
);
userData = {
com.schriftgestaltung.Glyphs.lastChange = "2019-04-28 05:35:59 +0000";
com.typemytype.robofont.pointLabels = {
4w8cXO1HlF = (
leftside,
shiftstem,
leftside,
shiftstem,
shiftdown
);
5OFemp6E2Y = (
leftside,
shiftstem,
leftside,
shiftstem,
shiftdown
);
DhFNkdKcfj = (
leftside
);
DiLdvAK6bW = (
leftside,
shiftstem,
leftside,
shiftstem,
shiftdown
);
IF8msvcgce = (
rightside
);
OGdfzPVlic = (
leftside,
shiftstem,
leftside,
shiftstem,
shiftdown
);
YShvMHvurg = (
leftside,
shiftstem,
leftside,
shiftstem,
shiftdown
);
gh4oopoKIn = (
leftside,
shiftstem
);
hTYdJwlqIh = (
leftside,
shiftstem
);
ydeACnPZN4 = (
rightside
);
yunTqSzRcA = (
rightside
);
};
};
width = 187;
},
{
layerId = "9EF6E879-D021-4626-8F52-6D74284C4DC7";
paths = (
{
closed = 1;
nodes = (
"1181 0 LINE",
"1181 570 LINE",
"1028 750 LINE",
"56 750 LINE",
"56 0 LINE"
);
},
{
closed = 1;
nodes = (
"97 718 LINE",
"1004 718 LINE",
"1140 558 LINE",
"1140 31 LINE",
"97 32 LINE"
);
}
);
width = 1230;
},
{
layerId = "FEE31BD6-05B9-4F93-BD72-F1214701600E";
paths = (
{
closed = 1;
nodes = (
"1832 0 LINE",
"1832 425 LINE",
"1453 750 LINE",
"64 750 LINE",
"64 0 LINE"
);
},
{
closed = 1;
nodes = (
"504 594 LINE",
"1111 594 LINE",
"1392 368 LINE",
"1392 156 LINE",
"504 156 LINE"
);
}
);
width = 1891;
},
{
layerId = "A421AE7B-D57F-4979-B16B-A2461F92FFEC";
paths = (
{
closed = 1;
nodes = (
"909 0 LINE",
"909 557 LINE",
"803 750 LINE",
"41 750 LINE",
"41 0 LINE"
);
},
{
closed = 1;
nodes = (
"380 623 LINE",
"522 623 LINE",
"570 513 LINE",
"570 127 LINE",
"380 127 LINE"
);
}
);
width = 945;
},
{
layerId = "1DE04BF9-788D-44CB-BAD3-AEB0D6A323B9";
paths = (
{
closed = 1;
nodes = (
"909 0 LINE",
"909 557 LINE",
"803 750 LINE",
"41 750 LINE",
"41 0 LINE"
);
},
{
closed = 1;
nodes = (
"380 623 LINE",
"522 623 LINE",
"570 513 LINE",
"570 127 LINE",
"380 127 LINE"
);
}
);
width = 945;
}
);
unicode = 0044;
},
{
glyphname = E;
lastChange = "2019-09-10 13:23:01 +0000";
layers = (
{
layerId = "41E2CF60-9A62-485C-A680-66BBCCBE3685";
paths = (
{
closed = 1;
nodes = (
"1426 0 LINE",
"1426 172 LINE",
"504 172 LINE",
"504 296 LINE",
"1249 296 LINE",
"1249 448 LINE",
"504 448 LINE",
"504 574 LINE",
"1425 574 LINE",
"1425 750 LINE",
"64 750 LINE",
"64 0 LINE"
);
}
);
width = 1460;
},
{
layerId = "C9BA7AB2-4C39-4898-B0E1-23BE521DA8C1";
paths = (
{
closed = 1;
nodes = (
"1047 0 LINE",
"1047 32 LINE",
"97 32 LINE",
"97 364 LINE",
"915 364 LINE",
"915 395 LINE",
"97 395 LINE",
"97 718 LINE",
"1046 718 LINE",
"1046 750 LINE",
"56 750 LINE",
"56 0 LINE"
);
}
);
width = 1091;
},
{
layerId = "1577B97C-DCC5-4AA4-842F-E9BB22E99E3C";
paths = (
{
closed = 1;
nodes = (
"152 0 LINE",
"152 22 LINE",
"66 22 LINE",
"66 363 LINE",
"134 363 LINE",
"134 385 LINE",
"66 385 LINE",
"66 728 LINE",
"151 728 LINE",
"151 750 LINE",
"35 750 LINE",
"35 0 LINE"
);
}
);
width = 177;
},
{
layerId = "628C7BDB-7DBE-4EE3-879C-693AF95326D4";
paths = (
{
closed = 1;
nodes = (
"730 0 LINE",
"731 140 LINE",
"380 140 LINE",
"380 292 LINE",
"673 292 LINE",
"673 455 LINE",
"380 455 LINE",
"380 604 LINE",
"729 604 LINE",
"729 750 LINE",
"41 750 LINE",
"41 0 LINE"
);
}
);
width = 754;
},
{
layerId = "401C54E9-F42A-49C7-842E-99B3D4FBDAC0";
paths = (
{
closed = 1;
nodes = (
"1526 0 LINE",
"1526 172 LINE",
"504 172 LINE",
"504 332 LINE",
"1349 332 LINE",
"1349 484 LINE",
"504 484 LINE",
"504 574 LINE",
"1525 574 LINE",
"1525 750 LINE",
"64 750 LINE",
"64 0 LINE"
);
}
);
width = 1560;
},
{
layerId = "7A9BD435-3083-4FB3-9FE1-50106B21C13B";
paths = (
{
closed = 1;
nodes = (
"1047 0 LINE",
"1047 32 LINE",
"97 32 LINE",
"97 464 LINE",
"915 464 LINE",
"915 495 LINE",
"97 495 LINE",
"97 718 LINE",
"1046 718 LINE",
"1046 750 LINE",
"56 750 LINE",
"56 0 LINE"
);
}
);
width = 1091;
},
{
layerId = "7F3C6EE5-2603-4259-9F13-C30BB9E194E1";
paths = (
{
closed = 1;
nodes = (
"152 0 LINE",
"152 22 LINE",
"66 22 LINE",
"66 462 LINE",
"134 462 LINE",
"134 484 LINE",
"66 484 LINE",
"66 728 LINE",
"151 728 LINE",
"151 750 LINE",
"35 750 LINE",
"35 0 LINE"
);
}
);
width = 177;
},
{
layerId = "FEE31BD6-05B9-4F93-BD72-F1214701600E";
paths = (
{
closed = 1;
nodes = (
"1521 0 LINE",
"1521 172 LINE",
"499 172 LINE",
"499 242 LINE",
"1344 242 LINE",
"1344 394 LINE",
"499 394 LINE",
"499 574 LINE",
"1520 574 LINE",
"1520 750 LINE",
"59 750 LINE",
"59 0 LINE"
);
}
);
width = 1460;
},
{
layerId = "9EF6E879-D021-4626-8F52-6D74284C4DC7";
paths = (
{
closed = 1;
nodes = (
"1047 0 LINE",
"1047 32 LINE",
"97 32 LINE",
"97 275 LINE",
"915 275 LINE",
"915 306 LINE",
"97 306 LINE",
"97 718 LINE",
"1046 718 LINE",
"1046 750 LINE",
"56 750 LINE",
"56 0 LINE"
);
}
);
width = 1091;
},
{
layerId = "6A003782-5630-46D5-9AEF-173A49B0B076";
paths = (
{
closed = 1;
nodes = (
"152 0 LINE",
"152 22 LINE",
"66 22 LINE",
"66 244 LINE",
"134 244 LINE",
"134 266 LINE",
"66 266 LINE",
"66 728 LINE",
"150 728 LINE",
"151 750 LINE",
"35 750 LINE",
"35 0 LINE"
);
}
);
width = 177;
},
{
layerId = "A421AE7B-D57F-4979-B16B-A2461F92FFEC";
paths = (
{
closed = 1;
nodes = (
"730 0 LINE",
"731 140 LINE",
"380 140 LINE",
"380 292 LINE",
"673 292 LINE",
"673 455 LINE",
"380 455 LINE",
"380 604 LINE",
"729 604 LINE",
"729 750 LINE",
"41 750 LINE",
"41 0 LINE"
);
}
);
width = 754;
},
{
layerId = "1DE04BF9-788D-44CB-BAD3-AEB0D6A323B9";
paths = (
{
closed = 1;
nodes = (
"730 0 LINE",
"731 140 LINE",
"380 140 LINE",
"380 292 LINE",
"673 292 LINE",
"673 455 LINE",
"380 455 LINE",
"380 604 LINE",
"729 604 LINE",
"729 750 LINE",
"41 750 LINE",
"41 0 LINE"
);
}
);
width = 754;
}
);
unicode = 0045;
},
{
glyphname = F;
lastChange = "2019-09-10 12:18:56 +0000";
layers = (
{
layerId = "41E2CF60-9A62-485C-A680-66BBCCBE3685";
paths = (
{
closed = 1;
nodes = (
"519 0 LINE",
"519 229 LINE",
"1394 229 LINE",
"1394 386 LINE",
"519 386 LINE",
"519 584 LINE",
"1602 584 LINE",
"1602 750 LINE",
"79 750 LINE",
"79 0 LINE"
);
}
);
width = 1618;
},
{
layerId = "C9BA7AB2-4C39-4898-B0E1-23BE521DA8C1";
paths = (
{
closed = 1;
nodes = (
"97 0 LINE",
"97 355 LINE",
"998 355 LINE",
"998 386 LINE",
"97 386 LINE",
"97 718 LINE",
"1085 718 LINE",
"1085 750 LINE",
"56 750 LINE",
"56 0 LINE"
);
}
);
width = 1117;
},
{
layerId = "1577B97C-DCC5-4AA4-842F-E9BB22E99E3C";
paths = (
{
closed = 1;
nodes = (
"66 0 LINE",
"66 364 LINE",
"138 364 LINE",
"138 386 LINE",
"66 386 LINE",
"66 728 LINE",
"153 728 LINE",
"153 750 LINE",
"35 750 LINE",
"35 0 LINE"
);
}
);
width = 178;
},
{
layerId = "628C7BDB-7DBE-4EE3-879C-693AF95326D4";
paths = (
{
closed = 1;
nodes = (
"380 0 LINE",
"380 243 LINE",
"722 243 LINE",
"722 386 LINE",
"380 386 LINE",
"380 604 LINE",
"795 604 LINE",
"795 750 LINE",
"41 750 LINE",
"41 0 LINE"
);
}
);
width = 798;
},
{
layerId = "401C54E9-F42A-49C7-842E-99B3D4FBDAC0";
paths = (
{
closed = 1;
nodes = (
"519 0 LINE",
"519 313 LINE",
"1394 313 LINE",
"1394 470 LINE",
"519 470 LINE",
"519 584 LINE",
"1602 584 LINE",
"1602 750 LINE",
"79 750 LINE",
"79 0 LINE"
);
}
);
width = 1618;
},
{
layerId = "7A9BD435-3083-4FB3-9FE1-50106B21C13B";
paths = (
{
closed = 1;
nodes = (
"97 0 LINE",
"97 440 LINE",
"998 440 LINE",
"998 471 LINE",
"97 471 LINE",
"97 718 LINE",
"1085 718 LINE",
"1085 750 LINE",
"56 750 LINE",
"56 0 LINE"
);
}
);
width = 1117;
},
{
layerId = "7F3C6EE5-2603-4259-9F13-C30BB9E194E1";
paths = (
{
closed = 1;
nodes = (
"66 0 LINE",
"66 461 LINE",
"138 461 LINE",
"138 483 LINE",
"66 483 LINE",
"66 728 LINE",
"153 728 LINE",
"153 750 LINE",
"35 750 LINE",
"35 0 LINE"
);
}
);
width = 178;
},
{
layerId = "FEE31BD6-05B9-4F93-BD72-F1214701600E";
paths = (
{
closed = 1;
nodes = (
"519 0 LINE",
"519 151 LINE",
"1394 151 LINE",
"1394 308 LINE",
"519 308 LINE",
"519 584 LINE",
"1602 584 LINE",
"1602 750 LINE",
"79 750 LINE",
"79 0 LINE"
);
}
);
width = 1618;
},
{
layerId = "9EF6E879-D021-4626-8F52-6D74284C4DC7";
paths = (
{
closed = 1;
nodes = (
"97 0 LINE",
"97 250 LINE",
"998 250 LINE",
"998 281 LINE",
"97 281 LINE",
"97 718 LINE",
"1085 718 LINE",
"1085 750 LINE",
"56 750 LINE",
"56 0 LINE"
);
}
);
width = 1117;
},
{
layerId = "6A003782-5630-46D5-9AEF-173A49B0B076";
paths = (
{
closed = 1;
nodes = (
"66 0 LINE",
"66 244 LINE",
"138 244 LINE",
"138 266 LINE",
"66 266 LINE",
"66 728 LINE",
"153 728 LINE",
"153 750 LINE",
"35 750 LINE",
"35 0 LINE"
);
}
);
width = 178;
},
{
layerId = "A421AE7B-D57F-4979-B16B-A2461F92FFEC";
paths = (
{
closed = 1;
nodes = (
"380 0 LINE",
"380 243 LINE",
"722 243 LINE",
"722 386 LINE",
"380 386 LINE",
"380 604 LINE",
"795 604 LINE",
"795 750 LINE",
"41 750 LINE",
"41 0 LINE"
);
}
);
width = 798;
},
{
layerId = "1DE04BF9-788D-44CB-BAD3-AEB0D6A323B9";
paths = (
{
closed = 1;
nodes = (
"380 0 LINE",
"380 243 LINE",
"722 243 LINE",
"722 386 LINE",
"380 386 LINE",
"380 604 LINE",
"795 604 LINE",
"795 750 LINE",
"41 750 LINE",
"41 0 LINE"
);
}
);
width = 798;
}
);
unicode = 0046;
},
{
glyphname = G;
lastChange = "2019-09-10 12:18:56 +0000";
layers = (
{
layerId = "41E2CF60-9A62-485C-A680-66BBCCBE3685";
paths = (
{
closed = 1;
nodes = (
"1820 0 LINE",
"1820 434 LINE",
"929 434 LINE",
"929 300 LINE",
"1380 300 LINE",
"1380 156 LINE",
"489 156 LINE",
"489 399 LINE",
"658 594 LINE",
"1380 594 LINE",
"1380 594 LINE",
"1810 594 LINE",
"1810 750 LINE",
"281 750 LINE",
"49 459 LINE",
"49 0 LINE"
);
}
);
width = 1876;
},
{
layerId = "C9BA7AB2-4C39-4898-B0E1-23BE521DA8C1";
paths = (
{
closed = 1;
nodes = (
"1191 0 LINE",
"1191 374 LINE",
"617 374 LINE",
"617 341 LINE",
"1150 341 LINE",
"1150 32 LINE",
"97 32 LINE",
"97 547 LINE",
"216 718 LINE",
"1152 718 LINE",
"1152 561 LINE",
"1193 561 LINE",
"1193 750 LINE",
"187 750 LINE",
"56 559 LINE",
"56 0 LINE"
);
}
);
width = 1244;
},
{
layerId = "1577B97C-DCC5-4AA4-842F-E9BB22E99E3C";
paths = (
{
closed = 1;
nodes = (
"151 0 LINE",
"151 365 LINE",
"86 365 LINE",
"86 343 LINE",
"120 343 LINE",
"120 22 LINE",
"66 22 LINE",
"66 649 LINE",
"94 728 LINE",
"122 728 LINE",
"122 557 LINE",
"153 557 LINE",
"153 750 LINE",
"74 750 LINE",
"35 650 LINE",
"35 0 LINE"
);
}
);
userData = {
com.schriftgestaltung.Glyphs.lastChange = "2019-04-28 11:53:33 +0000";
com.typemytype.robofont.pointLabels = {
03XIRquU5H = (
rightside,
crossbar,
shiftstem,
rightside,
rightside,
shiftdown,
rightside,
rightside,
rightside,
rightside,
rightside,
rightside,
rightside,
rightside,
rightside,
rightside,
rightside,
rightside,
rightside,
rightside,
rightside,
rightside,
rightside,
rightside,
crossbar,
rightside,
rightside,
rightside,
rightside,
rightside,
rightside,
rightside,
rightside,
rightside,
rightside,
rightside,
rightside,
rightside,
rightside,
rightside,
rightside,
rightside,
rightside,
rightside,
rightside,
crossbar,
rightside,
rightside,
shiftdown,
rightside,
rightside,
rightside,
rightside,
rightside,
rightside,
rightside,
rightside,
rightside,
rightside,
rightside,
rightside,
rightside,
rightside,
rightside,
rightside,
rightside,
rightside,
crossbar,
rightside,
rightside,
rightside,
rightside,
rightside,
rightside,
rightside,
rightside,
rightside,
rightside,
rightside,
rightside,
rightside,
rightside,
rightside,
rightside,
rightside,
rightside,
rightside,
leftside,
leftside,
leftside,
rightside,
crossbar,
rightside,
rightside,
shiftdown,
rightside,
rightside,
rightside,
rightside,
rightside,
rightside,
rightside,
rightside,
rightside,
rightside,
rightside,
rightside,
rightside,
rightside,
rightside,
rightside,
rightside,
rightside,
crossbar,
rightside,
rightside,
rightside,
rightside,
rightside,
rightside,
rightside,
rightside,
rightside,
rightside,
rightside,
rightside,
rightside,
rightside,
rightside,
rightside,
rightside,
rightside,
rightside
);
0C3ytxLmQy = (
rightside,
rightside,
rightside,
rightside,
rightside,
rightside,
rightside,
rightside
);
3nCTj46eZY = (
rightside,
crossbar,
rightside,
rightside,
shiftdown,
rightside,
rightside,
rightside,
rightside,
rightside,
rightside,
rightside,
rightside,
rightside,
rightside,
rightside,
rightside,
rightside,
rightside,
rightside,
rightside,
rightside,
rightside,
crossbar,
rightside,
rightside,
rightside,
rightside,
rightside,
rightside,
rightside,
rightside,
rightside,
rightside,
rightside,
rightside,
rightside,
rightside,
rightside,
rightside,
rightside,
rightside,
rightside
);
8B2JVN8ZLJ = (
rightside,
rightside,
rightside,
rightside,
rightside,
rightside,
rightside,
rightside
);
8rex52NyWa = (
rightside,
crossbar,
rightside,
rightside,
rightside,
rightside,
rightside,
rightside,
rightside,
rightside,
rightside,
rightside,
rightside,
rightside,
rightside,
rightside,
rightside,
rightside,
rightside,
rightside,
rightside
);
BK8t8NwvTJ = (
rightside,
crossbar,
shiftstem,
rightside,
rightside,
shiftdown,
rightside,
rightside,
rightside,
rightside,
rightside,
rightside,
rightside,
rightside,
rightside,
rightside,
rightside,
rightside,
rightside,
rightside,
rightside,
rightside,
rightside,
rightside,
crossbar,
rightside,
rightside,
rightside,
rightside,
rightside,
rightside,
rightside,
rightside,
rightside,
rightside,
rightside,
rightside,
rightside,
rightside,
rightside,
rightside,
rightside,
rightside,
rightside,
rightside,
crossbar,
rightside,
rightside,
shiftdown,
rightside,
rightside,
rightside,
rightside,
rightside,
rightside,
rightside,
rightside,
rightside,
rightside,
rightside,
rightside,
rightside,
rightside,
rightside,
rightside,
rightside,
rightside,
crossbar,
rightside,
rightside,
rightside,
rightside,
rightside,
rightside,
rightside,
rightside,
rightside,
rightside,
rightside,
rightside,
rightside,
rightside,
rightside,
rightside,
rightside,
rightside,
rightside,
leftside,
leftside,
leftside,
rightside,
crossbar,
rightside,
rightside,
shiftdown,
rightside,
rightside,
rightside,
rightside,
rightside,
rightside,
rightside,
rightside,
rightside,
rightside,
rightside,
rightside,
rightside,
rightside,
rightside,
rightside,
rightside,
rightside,
crossbar,
rightside,
rightside,
rightside,
rightside,
rightside,
rightside,
rightside,
rightside,
rightside,
rightside,
rightside,
rightside,
rightside,
rightside,
rightside,
rightside,
rightside,
rightside,
rightside
);
CxPWfAz72K = (
rightside,
crossbar,
rightside,
rightside,
shiftdown,
rightside,
rightside,
rightside,
rightside,
rightside,
rightside,
rightside,
rightside,
rightside,
rightside,
rightside,
rightside,
rightside,
rightside,
rightside,
rightside,
rightside,
rightside,
crossbar,
rightside,
rightside,
rightside,
rightside,
rightside,
rightside,
rightside,
rightside,
rightside,
rightside,
rightside,
rightside,
rightside,
rightside,
rightside,
rightside,
rightside,
rightside,
rightside
);
DkNGLrNVA4 = (
rightside,
crossbar,
rightside,
rightside,
rightside,
rightside,
rightside,
rightside,
rightside,
rightside,
rightside,
rightside,
rightside,
rightside,
rightside,
rightside,
rightside,
rightside,
rightside,
rightside,
rightside
);
HNKsGz9B03 = (
rightside,
crossbar,
rightside,
rightside,
shiftdown,
rightside,
rightside,
rightside,
rightside,
rightside,
rightside,
rightside,
rightside,
rightside,
rightside,
rightside,
rightside,
rightside,
rightside,
rightside,
rightside,
rightside,
rightside,
crossbar,
rightside,
rightside,
rightside,
rightside,
rightside,
rightside,
rightside,
rightside,
rightside,
rightside,
rightside,
rightside,
rightside,
rightside,
rightside,
rightside,
rightside,
rightside,
rightside
);
Mtb7ldvxRR = (
rightside,
rightside,
rightside,
rightside,
rightside,
rightside,
rightside,
rightside
);
PhwuN5iOza = (
rightside,
crossbar,
rightside,
rightside,
shiftdown,
rightside,
rightside,
rightside,
rightside,
rightside,
rightside,
rightside,
rightside,
rightside,
rightside,
rightside,
rightside,
rightside,
rightside,
rightside,
rightside,
rightside,
rightside,
crossbar,
rightside,
rightside,
rightside,
rightside,
rightside,
rightside,
rightside,
rightside,
rightside,
rightside,
rightside,
rightside,
rightside,
rightside,
rightside,
rightside,
rightside,
rightside,
rightside
);
gruPC0rm4E = (
rightside,
crossbar,
shiftstem,
rightside,
rightside,
shiftdown,
rightside,
rightside,
rightside,
rightside,
rightside,
rightside,
rightside,
rightside,
rightside,
rightside,
rightside,
rightside,
rightside,
rightside,
rightside,
rightside,
rightside,
rightside,
crossbar,
rightside,
rightside,
rightside,
rightside,
rightside,
rightside,
rightside,
rightside,
rightside,
rightside,
rightside,
rightside,
rightside,
rightside,
rightside,
rightside,
rightside,
rightside,
rightside,
rightside,
crossbar,
rightside,
rightside,
shiftdown,
rightside,
rightside,
rightside,
rightside,
rightside,
rightside,
rightside,
rightside,
rightside,
rightside,
rightside,
rightside,
rightside,
rightside,
rightside,
rightside,
rightside,
rightside,
crossbar,
rightside,
rightside,
rightside,
rightside,
rightside,
rightside,
rightside,
rightside,
rightside,
rightside,
rightside,
rightside,
rightside,
rightside,
rightside,
rightside,
rightside,
rightside,
rightside,
leftside,
leftside,
leftside,
rightside,
crossbar,
rightside,
rightside,
shiftdown,
rightside,
rightside,
rightside,
rightside,
rightside,
rightside,
rightside,
rightside,
rightside,
rightside,
rightside,
rightside,
rightside,
rightside,
rightside,
rightside,
rightside,
rightside,
crossbar,
rightside,
rightside,
rightside,
rightside,
rightside,
rightside,
rightside,
rightside,
rightside,
rightside,
rightside,
rightside,
rightside,
rightside,
rightside,
rightside,
rightside,
rightside,
rightside
);
gyWZd1V7bg = (
rightside,
rightside,
rightside,
rightside,
rightside,
rightside,
rightside,
rightside
);
oP4AYTo8BD = (
rightside,
rightside,
rightside,
rightside,
rightside,
rightside,
rightside,
rightside
);
p5qGxSYyHQ = (
rightside,
crossbar,
shiftstem,
rightside,
rightside,
shiftdown,
rightside,
rightside,
rightside,
rightside,
rightside,
rightside,
rightside,
rightside,
rightside,
rightside,
rightside,
rightside,
rightside,
rightside,
rightside,
rightside,
rightside,
rightside,
crossbar,
rightside,
rightside,
rightside,
rightside,
rightside,
rightside,
rightside,
rightside,
rightside,
rightside,
rightside,
rightside,
rightside,
rightside,
rightside,
rightside,
rightside,
rightside,
rightside,
rightside,
crossbar,
rightside,
rightside,
shiftdown,
rightside,
rightside,
rightside,
rightside,
rightside,
rightside,
rightside,
rightside,
rightside,
rightside,
rightside,
rightside,
rightside,
rightside,
rightside,
rightside,
rightside,
rightside,
crossbar,
rightside,
rightside,
rightside,
rightside,
rightside,
rightside,
rightside,
rightside,
rightside,
rightside,
rightside,
rightside,
rightside,
rightside,
rightside,
rightside,
rightside,
rightside,
rightside,
leftside,
leftside,
leftside,
rightside,
crossbar,
rightside,
rightside,
shiftdown,
rightside,
rightside,
rightside,
rightside,
rightside,
rightside,
rightside,
rightside,
rightside,
rightside,
rightside,
rightside,
rightside,
rightside,
rightside,
rightside,
rightside,
rightside,
crossbar,
rightside,
rightside,
rightside,
rightside,
rightside,
rightside,
rightside,
rightside,
rightside,
rightside,
rightside,
rightside,
rightside,
rightside,
rightside,
rightside,
rightside,
rightside,
rightside
);
q5MpLm6pYB = (
rightside,
crossbar,
shiftstem,
rightside,
rightside,
shiftdown,
rightside,
rightside,
rightside,
rightside,
rightside,
rightside,
rightside,
rightside,
rightside,
rightside,
rightside,
rightside,
rightside,
rightside,
rightside,
rightside,
rightside,
rightside,
crossbar,
rightside,
rightside,
rightside,
rightside,
rightside,
rightside,
rightside,
rightside,
rightside,
rightside,
rightside,
rightside,
rightside,
rightside,
rightside,
rightside,
rightside,
rightside,
rightside,
rightside,
crossbar,
rightside,
rightside,
shiftdown,
rightside,
rightside,
rightside,
rightside,
rightside,
rightside,
rightside,
rightside,
rightside,
rightside,
rightside,
rightside,
rightside,
rightside,
rightside,
rightside,
rightside,
rightside,
crossbar,
rightside,
rightside,
rightside,
rightside,
rightside,
rightside,
rightside,
rightside,
rightside,
rightside,
rightside,
rightside,
rightside,
rightside,
rightside,
rightside,
rightside,
rightside,
rightside,
leftside,
leftside,
leftside,
rightside,
crossbar,
rightside,
rightside,
shiftdown,
rightside,
rightside,
rightside,
rightside,
rightside,
rightside,
rightside,
rightside,
rightside,
rightside,
rightside,
rightside,
rightside,
rightside,
rightside,
rightside,
rightside,
rightside,
crossbar,
rightside,
rightside,
rightside,
rightside,
rightside,
rightside,
rightside,
rightside,
rightside,
rightside,
rightside,
rightside,
rightside,
rightside,
rightside,
rightside,
rightside,
rightside,
rightside
);
sayqGOMtzs = (
rightside,
crossbar,
shiftstem,
rightside,
rightside,
shiftdown,
rightside,
rightside,
rightside,
rightside,
rightside,
rightside,
rightside,
rightside,
rightside,
rightside,
rightside,
rightside,
rightside,
rightside,
rightside,
rightside,
rightside,
rightside,
crossbar,
rightside,
rightside,
rightside,
rightside,
rightside,
rightside,
rightside,
rightside,
rightside,
rightside,
rightside,
rightside,
rightside,
rightside,
rightside,
rightside,
rightside,
rightside,
rightside,
rightside,
crossbar,
rightside,
rightside,
shiftdown,
rightside,
rightside,
rightside,
rightside,
rightside,
rightside,
rightside,
rightside,
rightside,
rightside,
rightside,
rightside,
rightside,
rightside,
rightside,
rightside,
rightside,
rightside,
crossbar,
rightside,
rightside,
rightside,
rightside,
rightside,
rightside,
rightside,
rightside,
rightside,
rightside,
rightside,
rightside,
rightside,
rightside,
rightside,
rightside,
rightside,
rightside,
rightside,
leftside,
leftside,
leftside,
rightside,
crossbar,
rightside,
rightside,
shiftdown,
rightside,
rightside,
rightside,
rightside,
rightside,
rightside,
rightside,
rightside,
rightside,
rightside,
rightside,
rightside,
rightside,
rightside,
rightside,
rightside,
rightside,
rightside,
crossbar,
rightside,
rightside,
rightside,
rightside,
rightside,
rightside,
rightside,
rightside,
rightside,
rightside,
rightside,
rightside,
rightside,
rightside,
rightside,
rightside,
rightside,
rightside,
rightside
);
};
};
width = 183;
},
{
layerId = "628C7BDB-7DBE-4EE3-879C-693AF95326D4";
paths = (
{
closed = 1;
nodes = (
"885 0 LINE",
"885 401 LINE",
"421 401 LINE",
"421 284 LINE",
"546 284 LINE",
"546 117 LINE",
"375 117 LINE",
"375 559 LINE",
"404 633 LINE",
"538 633 LINE",
"538 492 LINE",
"877 492 LINE",
"877 750 LINE",
"99 750 LINE",
"36 587 LINE",
"36 0 LINE"
);
}
);
width = 905;
},
{
layerId = "7F3C6EE5-2603-4259-9F13-C30BB9E194E1";
paths = (
{
closed = 1;
nodes = (
"151 0 LINE",
"151 469 LINE",
"86 469 LINE",
"86 447 LINE",
"120 447 LINE",
"120 22 LINE",
"66 22 LINE",
"66 649 LINE",
"94 728 LINE",
"122 728 LINE",
"122 557 LINE",
"153 557 LINE",
"153 750 LINE",
"74 750 LINE",
"35 650 LINE",
"35 0 LINE"
);
}
);
userData = {
com.schriftgestaltung.Glyphs.lastChange = "2019-04-28 11:53:33 +0000";
com.typemytype.robofont.pointLabels = {
03XIRquU5H = (
rightside,
crossbar,
shiftstem,
rightside,
rightside,
shiftdown,
rightside,
rightside,
rightside,
rightside,
rightside,
rightside,
rightside,
rightside,
rightside,
rightside,
rightside,
rightside,
rightside,
rightside,
rightside,
rightside,
rightside,
rightside,
crossbar,
rightside,
rightside,
rightside,
rightside,
rightside,
rightside,
rightside,
rightside,
rightside,
rightside,
rightside,
rightside,
rightside,
rightside,
rightside,
rightside,
rightside,
rightside,
rightside,
rightside,
crossbar,
rightside,
rightside,
shiftdown,
rightside,
rightside,
rightside,
rightside,
rightside,
rightside,
rightside,
rightside,
rightside,
rightside,
rightside,
rightside,
rightside,
rightside,
rightside,
rightside,
rightside,
rightside,
crossbar,
rightside,
rightside,
rightside,
rightside,
rightside,
rightside,
rightside,
rightside,
rightside,
rightside,
rightside,
rightside,
rightside,
rightside,
rightside,
rightside,
rightside,
rightside,
rightside,
leftside,
leftside,
leftside,
rightside,
crossbar,
rightside,
rightside,
shiftdown,
rightside,
rightside,
rightside,
rightside,
rightside,
rightside,
rightside,
rightside,
rightside,
rightside,
rightside,
rightside,
rightside,
rightside,
rightside,
rightside,
rightside,
rightside,
crossbar,
rightside,
rightside,
rightside,
rightside,
rightside,
rightside,
rightside,
rightside,
rightside,
rightside,
rightside,
rightside,
rightside,
rightside,
rightside,
rightside,
rightside,
rightside,
rightside
);
0C3ytxLmQy = (
rightside,
rightside,
rightside,
rightside,
rightside,
rightside,
rightside,
rightside
);
3nCTj46eZY = (
rightside,
crossbar,
rightside,
rightside,
shiftdown,
rightside,
rightside,
rightside,
rightside,
rightside,
rightside,
rightside,
rightside,
rightside,
rightside,
rightside,
rightside,
rightside,
rightside,
rightside,
rightside,
rightside,
rightside,
crossbar,
rightside,
rightside,
rightside,
rightside,
rightside,
rightside,
rightside,
rightside,
rightside,
rightside,
rightside,
rightside,
rightside,
rightside,
rightside,
rightside,
rightside,
rightside,
rightside
);
8B2JVN8ZLJ = (
rightside,
rightside,
rightside,
rightside,
rightside,
rightside,
rightside,
rightside
);
8rex52NyWa = (
rightside,
crossbar,
rightside,
rightside,
rightside,
rightside,
rightside,
rightside,
rightside,
rightside,
rightside,
rightside,
rightside,
rightside,
rightside,
rightside,
rightside,
rightside,
rightside,
rightside,
rightside
);
BK8t8NwvTJ = (
rightside,
crossbar,
shiftstem,
rightside,
rightside,
shiftdown,
rightside,
rightside,
rightside,
rightside,
rightside,
rightside,
rightside,
rightside,
rightside,
rightside,
rightside,
rightside,
rightside,
rightside,
rightside,
rightside,
rightside,
rightside,
crossbar,
rightside,
rightside,
rightside,
rightside,
rightside,
rightside,
rightside,
rightside,
rightside,
rightside,
rightside,
rightside,
rightside,
rightside,
rightside,
rightside,
rightside,
rightside,
rightside,
rightside,
crossbar,
rightside,
rightside,
shiftdown,
rightside,
rightside,
rightside,
rightside,
rightside,
rightside,
rightside,
rightside,
rightside,
rightside,
rightside,
rightside,
rightside,
rightside,
rightside,
rightside,
rightside,
rightside,
crossbar,
rightside,
rightside,
rightside,
rightside,
rightside,
rightside,
rightside,
rightside,
rightside,
rightside,
rightside,
rightside,
rightside,
rightside,
rightside,
rightside,
rightside,
rightside,
rightside,
leftside,
leftside,
leftside,
rightside,
crossbar,
rightside,
rightside,
shiftdown,
rightside,
rightside,
rightside,
rightside,
rightside,
rightside,
rightside,
rightside,
rightside,
rightside,
rightside,
rightside,
rightside,
rightside,
rightside,
rightside,
rightside,
rightside,
crossbar,
rightside,
rightside,
rightside,
rightside,
rightside,
rightside,
rightside,
rightside,
rightside,
rightside,
rightside,
rightside,
rightside,
rightside,
rightside,
rightside,
rightside,
rightside,
rightside
);
CxPWfAz72K = (
rightside,
crossbar,
rightside,
rightside,
shiftdown,
rightside,
rightside,
rightside,
rightside,
rightside,
rightside,
rightside,
rightside,
rightside,
rightside,
rightside,
rightside,
rightside,
rightside,
rightside,
rightside,
rightside,
rightside,
crossbar,
rightside,
rightside,
rightside,
rightside,
rightside,
rightside,
rightside,
rightside,
rightside,
rightside,
rightside,
rightside,
rightside,
rightside,
rightside,
rightside,
rightside,
rightside,
rightside
);
DkNGLrNVA4 = (
rightside,
crossbar,
rightside,
rightside,
rightside,
rightside,
rightside,
rightside,
rightside,
rightside,
rightside,
rightside,
rightside,
rightside,
rightside,
rightside,
rightside,
rightside,
rightside,
rightside,
rightside
);
HNKsGz9B03 = (
rightside,
crossbar,
rightside,
rightside,
shiftdown,
rightside,
rightside,
rightside,
rightside,
rightside,
rightside,
rightside,
rightside,
rightside,
rightside,
rightside,
rightside,
rightside,
rightside,
rightside,
rightside,
rightside,
rightside,
crossbar,
rightside,
rightside,
rightside,
rightside,
rightside,
rightside,
rightside,
rightside,
rightside,
rightside,
rightside,
rightside,
rightside,
rightside,
rightside,
rightside,
rightside,
rightside,
rightside
);
Mtb7ldvxRR = (
rightside,
rightside,
rightside,
rightside,
rightside,
rightside,
rightside,
rightside
);
PhwuN5iOza = (
rightside,
crossbar,
rightside,
rightside,
shiftdown,
rightside,
rightside,
rightside,
rightside,
rightside,
rightside,
rightside,
rightside,
rightside,
rightside,
rightside,
rightside,
rightside,
rightside,
rightside,
rightside,
rightside,
rightside,
crossbar,
rightside,
rightside,
rightside,
rightside,
rightside,
rightside,
rightside,
rightside,
rightside,
rightside,
rightside,
rightside,
rightside,
rightside,
rightside,
rightside,
rightside,
rightside,
rightside
);
gruPC0rm4E = (
rightside,
crossbar,
shiftstem,
rightside,
rightside,
shiftdown,
rightside,
rightside,
rightside,
rightside,
rightside,
rightside,
rightside,
rightside,
rightside,
rightside,
rightside,
rightside,
rightside,
rightside,
rightside,
rightside,
rightside,
rightside,
crossbar,
rightside,
rightside,
rightside,
rightside,
rightside,
rightside,
rightside,
rightside,
rightside,
rightside,
rightside,
rightside,
rightside,
rightside,
rightside,
rightside,
rightside,
rightside,
rightside,
rightside,
crossbar,
rightside,
rightside,
shiftdown,
rightside,
rightside,
rightside,
rightside,
rightside,
rightside,
rightside,
rightside,
rightside,
rightside,
rightside,
rightside,
rightside,
rightside,
rightside,
rightside,
rightside,
rightside,
crossbar,
rightside,
rightside,
rightside,
rightside,
rightside,
rightside,
rightside,
rightside,
rightside,
rightside,
rightside,
rightside,
rightside,
rightside,
rightside,
rightside,
rightside,
rightside,
rightside,
leftside,
leftside,
leftside,
rightside,
crossbar,
rightside,
rightside,
shiftdown,
rightside,
rightside,
rightside,
rightside,
rightside,
rightside,
rightside,
rightside,
rightside,
rightside,
rightside,
rightside,
rightside,
rightside,
rightside,
rightside,
rightside,
rightside,
crossbar,
rightside,
rightside,
rightside,
rightside,
rightside,
rightside,
rightside,
rightside,
rightside,
rightside,
rightside,
rightside,
rightside,
rightside,
rightside,
rightside,
rightside,
rightside,
rightside
);
gyWZd1V7bg = (
rightside,
rightside,
rightside,
rightside,
rightside,
rightside,
rightside,
rightside
);
oP4AYTo8BD = (
rightside,
rightside,
rightside,
rightside,
rightside,
rightside,
rightside,
rightside
);
p5qGxSYyHQ = (
rightside,
crossbar,
shiftstem,
rightside,
rightside,
shiftdown,
rightside,
rightside,
rightside,
rightside,
rightside,
rightside,
rightside,
rightside,
rightside,
rightside,
rightside,
rightside,
rightside,
rightside,
rightside,
rightside,
rightside,
rightside,
crossbar,
rightside,
rightside,
rightside,
rightside,
rightside,
rightside,
rightside,
rightside,
rightside,
rightside,
rightside,
rightside,
rightside,
rightside,
rightside,
rightside,
rightside,
rightside,
rightside,
rightside,
crossbar,
rightside,
rightside,
shiftdown,
rightside,
rightside,
rightside,
rightside,
rightside,
rightside,
rightside,
rightside,
rightside,
rightside,
rightside,
rightside,
rightside,
rightside,
rightside,
rightside,
rightside,
rightside,
crossbar,
rightside,
rightside,
rightside,
rightside,
rightside,
rightside,
rightside,
rightside,
rightside,
rightside,
rightside,
rightside,
rightside,
rightside,
rightside,
rightside,
rightside,
rightside,
rightside,
leftside,
leftside,
leftside,
rightside,
crossbar,
rightside,
rightside,
shiftdown,
rightside,
rightside,
rightside,
rightside,
rightside,
rightside,
rightside,
rightside,
rightside,
rightside,
rightside,
rightside,
rightside,
rightside,
rightside,
rightside,
rightside,
rightside,
crossbar,
rightside,
rightside,
rightside,
rightside,
rightside,
rightside,
rightside,
rightside,
rightside,
rightside,
rightside,
rightside,
rightside,
rightside,
rightside,
rightside,
rightside,
rightside,
rightside
);
q5MpLm6pYB = (
rightside,
crossbar,
shiftstem,
rightside,
rightside,
shiftdown,
rightside,
rightside,
rightside,
rightside,
rightside,
rightside,
rightside,
rightside,
rightside,
rightside,
rightside,
rightside,
rightside,
rightside,
rightside,
rightside,
rightside,
rightside,
crossbar,
rightside,
rightside,
rightside,
rightside,
rightside,
rightside,
rightside,
rightside,
rightside,
rightside,
rightside,
rightside,
rightside,
rightside,
rightside,
rightside,
rightside,
rightside,
rightside,
rightside,
crossbar,
rightside,
rightside,
shiftdown,
rightside,
rightside,
rightside,
rightside,
rightside,
rightside,
rightside,
rightside,
rightside,
rightside,
rightside,
rightside,
rightside,
rightside,
rightside,
rightside,
rightside,
rightside,
crossbar,
rightside,
rightside,
rightside,
rightside,
rightside,
rightside,
rightside,
rightside,
rightside,
rightside,
rightside,
rightside,
rightside,
rightside,
rightside,
rightside,
rightside,
rightside,
rightside,
leftside,
leftside,
leftside,
rightside,
crossbar,
rightside,
rightside,
shiftdown,
rightside,
rightside,
rightside,
rightside,
rightside,
rightside,
rightside,
rightside,
rightside,
rightside,
rightside,
rightside,
rightside,
rightside,
rightside,
rightside,
rightside,
rightside,
crossbar,
rightside,
rightside,
rightside,
rightside,
rightside,
rightside,
rightside,
rightside,
rightside,
rightside,
rightside,
rightside,
rightside,
rightside,
rightside,
rightside,
rightside,
rightside,
rightside
);
sayqGOMtzs = (
rightside,
crossbar,
shiftstem,
rightside,
rightside,
shiftdown,
rightside,
rightside,
rightside,
rightside,
rightside,
rightside,
rightside,
rightside,
rightside,
rightside,
rightside,
rightside,
rightside,
rightside,
rightside,
rightside,
rightside,
rightside,
crossbar,
rightside,
rightside,
rightside,
rightside,
rightside,
rightside,
rightside,
rightside,
rightside,
rightside,
rightside,
rightside,
rightside,
rightside,
rightside,
rightside,
rightside,
rightside,
rightside,
rightside,
crossbar,
rightside,
rightside,
shiftdown,
rightside,
rightside,
rightside,
rightside,
rightside,
rightside,
rightside,
rightside,
rightside,
rightside,
rightside,
rightside,
rightside,
rightside,
rightside,
rightside,
rightside,
rightside,
crossbar,
rightside,
rightside,
rightside,
rightside,
rightside,
rightside,
rightside,
rightside,
rightside,
rightside,
rightside,
rightside,
rightside,
rightside,
rightside,
rightside,
rightside,
rightside,
rightside,
leftside,
leftside,
leftside,
rightside,
crossbar,
rightside,
rightside,
shiftdown,
rightside,
rightside,
rightside,
rightside,
rightside,
rightside,
rightside,
rightside,
rightside,
rightside,
rightside,
rightside,
rightside,
rightside,
rightside,
rightside,
rightside,
rightside,
crossbar,
rightside,
rightside,
rightside,
rightside,
rightside,
rightside,
rightside,
rightside,
rightside,
rightside,
rightside,
rightside,
rightside,
rightside,
rightside,
rightside,
rightside,
rightside,
rightside
);
};
};
width = 183;
},
{
layerId = "7A9BD435-3083-4FB3-9FE1-50106B21C13B";
paths = (
{
closed = 1;
nodes = (
"1191 0 LINE",
"1191 478 LINE",
"617 478 LINE",
"617 445 LINE",
"1150 445 LINE",
"1150 32 LINE",
"97 32 LINE",
"97 547 LINE",
"216 718 LINE",
"1152 718 LINE",
"1152 561 LINE",
"1193 561 LINE",
"1193 750 LINE",
"187 750 LINE",
"56 559 LINE",
"56 0 LINE"
);
}
);
width = 1244;
},
{
layerId = "401C54E9-F42A-49C7-842E-99B3D4FBDAC0";
paths = (
{
closed = 1;
nodes = (
"1820 0 LINE",
"1820 506 LINE",
"929 506 LINE",
"929 372 LINE",
"1380 372 LINE",
"1380 156 LINE",
"489 156 LINE",
"489 399 LINE",
"645 594 LINE",
"1380 594 LINE",
"1380 594 LINE",
"1810 594 LINE",
"1810 750 LINE",
"281 750 LINE",
"49 459 LINE",
"49 0 LINE"
);
}
);
width = 1876;
},
{
layerId = "6A003782-5630-46D5-9AEF-173A49B0B076";
paths = (
{
closed = 1;
nodes = (
"151 0 LINE",
"151 235 LINE",
"86 235 LINE",
"86 213 LINE",
"120 213 LINE",
"120 22 LINE",
"66 22 LINE",
"66 649 LINE",
"94 728 LINE",
"122 728 LINE",
"122 557 LINE",
"153 557 LINE",
"153 750 LINE",
"74 750 LINE",
"35 650 LINE",
"35 0 LINE"
);
}
);
userData = {
com.schriftgestaltung.Glyphs.lastChange = "2019-04-28 11:53:33 +0000";
com.typemytype.robofont.pointLabels = {
03XIRquU5H = (
rightside,
crossbar,
shiftstem,
rightside,
rightside,
shiftdown,
rightside,
rightside,
rightside,
rightside,
rightside,
rightside,
rightside,
rightside,
rightside,
rightside,
rightside,
rightside,
rightside,
rightside,
rightside,
rightside,
rightside,
rightside,
crossbar,
rightside,
rightside,
rightside,
rightside,
rightside,
rightside,
rightside,
rightside,
rightside,
rightside,
rightside,
rightside,
rightside,
rightside,
rightside,
rightside,
rightside,
rightside,
rightside,
rightside,
crossbar,
rightside,
rightside,
shiftdown,
rightside,
rightside,
rightside,
rightside,
rightside,
rightside,
rightside,
rightside,
rightside,
rightside,
rightside,
rightside,
rightside,
rightside,
rightside,
rightside,
rightside,
rightside,
crossbar,
rightside,
rightside,
rightside,
rightside,
rightside,
rightside,
rightside,
rightside,
rightside,
rightside,
rightside,
rightside,
rightside,
rightside,
rightside,
rightside,
rightside,
rightside,
rightside,
leftside,
leftside,
leftside,
rightside,
crossbar,
rightside,
rightside,
shiftdown,
rightside,
rightside,
rightside,
rightside,
rightside,
rightside,
rightside,
rightside,
rightside,
rightside,
rightside,
rightside,
rightside,
rightside,
rightside,
rightside,
rightside,
rightside,
crossbar,
rightside,
rightside,
rightside,
rightside,
rightside,
rightside,
rightside,
rightside,
rightside,
rightside,
rightside,
rightside,
rightside,
rightside,
rightside,
rightside,
rightside,
rightside,
rightside
);
0C3ytxLmQy = (
rightside,
rightside,
rightside,
rightside,
rightside,
rightside,
rightside,
rightside
);
3nCTj46eZY = (
rightside,
crossbar,
rightside,
rightside,
shiftdown,
rightside,
rightside,
rightside,
rightside,
rightside,
rightside,
rightside,
rightside,
rightside,
rightside,
rightside,
rightside,
rightside,
rightside,
rightside,
rightside,
rightside,
rightside,
crossbar,
rightside,
rightside,
rightside,
rightside,
rightside,
rightside,
rightside,
rightside,
rightside,
rightside,
rightside,
rightside,
rightside,
rightside,
rightside,
rightside,
rightside,
rightside,
rightside
);
8B2JVN8ZLJ = (
rightside,
rightside,
rightside,
rightside,
rightside,
rightside,
rightside,
rightside
);
8rex52NyWa = (
rightside,
crossbar,
rightside,
rightside,
rightside,
rightside,
rightside,
rightside,
rightside,
rightside,
rightside,
rightside,
rightside,
rightside,
rightside,
rightside,
rightside,
rightside,
rightside,
rightside,
rightside
);
BK8t8NwvTJ = (
rightside,
crossbar,
shiftstem,
rightside,
rightside,
shiftdown,
rightside,
rightside,
rightside,
rightside,
rightside,
rightside,
rightside,
rightside,
rightside,
rightside,
rightside,
rightside,
rightside,
rightside,
rightside,
rightside,
rightside,
rightside,
crossbar,
rightside,
rightside,
rightside,
rightside,
rightside,
rightside,
rightside,
rightside,
rightside,
rightside,
rightside,
rightside,
rightside,
rightside,
rightside,
rightside,
rightside,
rightside,
rightside,
rightside,
crossbar,
rightside,
rightside,
shiftdown,
rightside,
rightside,
rightside,
rightside,
rightside,
rightside,
rightside,
rightside,
rightside,
rightside,
rightside,
rightside,
rightside,
rightside,
rightside,
rightside,
rightside,
rightside,
crossbar,
rightside,
rightside,
rightside,
rightside,
rightside,
rightside,
rightside,
rightside,
rightside,
rightside,
rightside,
rightside,
rightside,
rightside,
rightside,
rightside,
rightside,
rightside,
rightside,
leftside,
leftside,
leftside,
rightside,
crossbar,
rightside,
rightside,
shiftdown,
rightside,
rightside,
rightside,
rightside,
rightside,
rightside,
rightside,
rightside,
rightside,
rightside,
rightside,
rightside,
rightside,
rightside,
rightside,
rightside,
rightside,
rightside,
crossbar,
rightside,
rightside,
rightside,
rightside,
rightside,
rightside,
rightside,
rightside,
rightside,
rightside,
rightside,
rightside,
rightside,
rightside,
rightside,
rightside,
rightside,
rightside,
rightside
);
CxPWfAz72K = (
rightside,
crossbar,
rightside,
rightside,
shiftdown,
rightside,
rightside,
rightside,
rightside,
rightside,
rightside,
rightside,
rightside,
rightside,
rightside,
rightside,
rightside,
rightside,
rightside,
rightside,
rightside,
rightside,
rightside,
crossbar,
rightside,
rightside,
rightside,
rightside,
rightside,
rightside,
rightside,
rightside,
rightside,
rightside,
rightside,
rightside,
rightside,
rightside,
rightside,
rightside,
rightside,
rightside,
rightside
);
DkNGLrNVA4 = (
rightside,
crossbar,
rightside,
rightside,
rightside,
rightside,
rightside,
rightside,
rightside,
rightside,
rightside,
rightside,
rightside,
rightside,
rightside,
rightside,
rightside,
rightside,
rightside,
rightside,
rightside
);
HNKsGz9B03 = (
rightside,
crossbar,
rightside,
rightside,
shiftdown,
rightside,
rightside,
rightside,
rightside,
rightside,
rightside,
rightside,
rightside,
rightside,
rightside,
rightside,
rightside,
rightside,
rightside,
rightside,
rightside,
rightside,
rightside,
crossbar,
rightside,
rightside,
rightside,
rightside,
rightside,
rightside,
rightside,
rightside,
rightside,
rightside,
rightside,
rightside,
rightside,
rightside,
rightside,
rightside,
rightside,
rightside,
rightside
);
Mtb7ldvxRR = (
rightside,
rightside,
rightside,
rightside,
rightside,
rightside,
rightside,
rightside
);
PhwuN5iOza = (
rightside,
crossbar,
rightside,
rightside,
shiftdown,
rightside,
rightside,
rightside,
rightside,
rightside,
rightside,
rightside,
rightside,
rightside,
rightside,
rightside,
rightside,
rightside,
rightside,
rightside,
rightside,
rightside,
rightside,
crossbar,
rightside,
rightside,
rightside,
rightside,
rightside,
rightside,
rightside,
rightside,
rightside,
rightside,
rightside,
rightside,
rightside,
rightside,
rightside,
rightside,
rightside,
rightside,
rightside
);
gruPC0rm4E = (
rightside,
crossbar,
shiftstem,
rightside,
rightside,
shiftdown,
rightside,
rightside,
rightside,
rightside,
rightside,
rightside,
rightside,
rightside,
rightside,
rightside,
rightside,
rightside,
rightside,
rightside,
rightside,
rightside,
rightside,
rightside,
crossbar,
rightside,
rightside,
rightside,
rightside,
rightside,
rightside,
rightside,
rightside,
rightside,
rightside,
rightside,
rightside,
rightside,
rightside,
rightside,
rightside,
rightside,
rightside,
rightside,
rightside,
crossbar,
rightside,
rightside,
shiftdown,
rightside,
rightside,
rightside,
rightside,
rightside,
rightside,
rightside,
rightside,
rightside,
rightside,
rightside,
rightside,
rightside,
rightside,
rightside,
rightside,
rightside,
rightside,
crossbar,
rightside,
rightside,
rightside,
rightside,
rightside,
rightside,
rightside,
rightside,
rightside,
rightside,
rightside,
rightside,
rightside,
rightside,
rightside,
rightside,
rightside,
rightside,
rightside,
leftside,
leftside,
leftside,
rightside,
crossbar,
rightside,
rightside,
shiftdown,
rightside,
rightside,
rightside,
rightside,
rightside,
rightside,
rightside,
rightside,
rightside,
rightside,
rightside,
rightside,
rightside,
rightside,
rightside,
rightside,
rightside,
rightside,
crossbar,
rightside,
rightside,
rightside,
rightside,
rightside,
rightside,
rightside,
rightside,
rightside,
rightside,
rightside,
rightside,
rightside,
rightside,
rightside,
rightside,
rightside,
rightside,
rightside
);
gyWZd1V7bg = (
rightside,
rightside,
rightside,
rightside,
rightside,
rightside,
rightside,
rightside
);
oP4AYTo8BD = (
rightside,
rightside,
rightside,
rightside,
rightside,
rightside,
rightside,
rightside
);
p5qGxSYyHQ = (
rightside,
crossbar,
shiftstem,
rightside,
rightside,
shiftdown,
rightside,
rightside,
rightside,
rightside,
rightside,
rightside,
rightside,
rightside,
rightside,
rightside,
rightside,
rightside,
rightside,
rightside,
rightside,
rightside,
rightside,
rightside,
crossbar,
rightside,
rightside,
rightside,
rightside,
rightside,
rightside,
rightside,
rightside,
rightside,
rightside,
rightside,
rightside,
rightside,
rightside,
rightside,
rightside,
rightside,
rightside,
rightside,
rightside,
crossbar,
rightside,
rightside,
shiftdown,
rightside,
rightside,
rightside,
rightside,
rightside,
rightside,
rightside,
rightside,
rightside,
rightside,
rightside,
rightside,
rightside,
rightside,
rightside,
rightside,
rightside,
rightside,
crossbar,
rightside,
rightside,
rightside,
rightside,
rightside,
rightside,
rightside,
rightside,
rightside,
rightside,
rightside,
rightside,
rightside,
rightside,
rightside,
rightside,
rightside,
rightside,
rightside,
leftside,
leftside,
leftside,
rightside,
crossbar,
rightside,
rightside,
shiftdown,
rightside,
rightside,
rightside,
rightside,
rightside,
rightside,
rightside,
rightside,
rightside,
rightside,
rightside,
rightside,
rightside,
rightside,
rightside,
rightside,
rightside,
rightside,
crossbar,
rightside,
rightside,
rightside,
rightside,
rightside,
rightside,
rightside,
rightside,
rightside,
rightside,
rightside,
rightside,
rightside,
rightside,
rightside,
rightside,
rightside,
rightside,
rightside
);
q5MpLm6pYB = (
rightside,
crossbar,
shiftstem,
rightside,
rightside,
shiftdown,
rightside,
rightside,
rightside,
rightside,
rightside,
rightside,
rightside,
rightside,
rightside,
rightside,
rightside,
rightside,
rightside,
rightside,
rightside,
rightside,
rightside,
rightside,
crossbar,
rightside,
rightside,
rightside,
rightside,
rightside,
rightside,
rightside,
rightside,
rightside,
rightside,
rightside,
rightside,
rightside,
rightside,
rightside,
rightside,
rightside,
rightside,
rightside,
rightside,
crossbar,
rightside,
rightside,
shiftdown,
rightside,
rightside,
rightside,
rightside,
rightside,
rightside,
rightside,
rightside,
rightside,
rightside,
rightside,
rightside,
rightside,
rightside,
rightside,
rightside,
rightside,
rightside,
crossbar,
rightside,
rightside,
rightside,
rightside,
rightside,
rightside,
rightside,
rightside,
rightside,
rightside,
rightside,
rightside,
rightside,
rightside,
rightside,
rightside,
rightside,
rightside,
rightside,
leftside,
leftside,
leftside,
rightside,
crossbar,
rightside,
rightside,
shiftdown,
rightside,
rightside,
rightside,
rightside,
rightside,
rightside,
rightside,
rightside,
rightside,
rightside,
rightside,
rightside,
rightside,
rightside,
rightside,
rightside,
rightside,
rightside,
crossbar,
rightside,
rightside,
rightside,
rightside,
rightside,
rightside,
rightside,
rightside,
rightside,
rightside,
rightside,
rightside,
rightside,
rightside,
rightside,
rightside,
rightside,
rightside,
rightside
);
sayqGOMtzs = (
rightside,
crossbar,
shiftstem,
rightside,
rightside,
shiftdown,
rightside,
rightside,
rightside,
rightside,
rightside,
rightside,
rightside,
rightside,
rightside,
rightside,
rightside,
rightside,
rightside,
rightside,
rightside,
rightside,
rightside,
rightside,
crossbar,
rightside,
rightside,
rightside,
rightside,
rightside,
rightside,
rightside,
rightside,
rightside,
rightside,
rightside,
rightside,
rightside,
rightside,
rightside,
rightside,
rightside,
rightside,
rightside,
rightside,
crossbar,
rightside,
rightside,
shiftdown,
rightside,
rightside,
rightside,
rightside,
rightside,
rightside,
rightside,
rightside,
rightside,
rightside,
rightside,
rightside,
rightside,
rightside,
rightside,
rightside,
rightside,
rightside,
crossbar,
rightside,
rightside,
rightside,
rightside,
rightside,
rightside,
rightside,
rightside,
rightside,
rightside,
rightside,
rightside,
rightside,
rightside,
rightside,
rightside,
rightside,
rightside,
rightside,
leftside,
leftside,
leftside,
rightside,
crossbar,
rightside,
rightside,
shiftdown,
rightside,
rightside,
rightside,
rightside,
rightside,
rightside,
rightside,
rightside,
rightside,
rightside,
rightside,
rightside,
rightside,
rightside,
rightside,
rightside,
rightside,
rightside,
crossbar,
rightside,
rightside,
rightside,
rightside,
rightside,
rightside,
rightside,
rightside,
rightside,
rightside,
rightside,
rightside,
rightside,
rightside,
rightside,
rightside,
rightside,
rightside,
rightside
);
};
};
width = 183;
},
{
layerId = "9EF6E879-D021-4626-8F52-6D74284C4DC7";
paths = (
{
closed = 1;
nodes = (
"1191 0 LINE",
"1191 276 LINE",
"617 276 LINE",
"617 243 LINE",
"1150 243 LINE",
"1150 32 LINE",
"97 32 LINE",
"97 547 LINE",
"216 718 LINE",
"1152 718 LINE",
"1152 561 LINE",
"1193 561 LINE",
"1193 750 LINE",
"187 750 LINE",
"56 559 LINE",
"56 0 LINE"
);
}
);
width = 1244;
},
{
layerId = "FEE31BD6-05B9-4F93-BD72-F1214701600E";
paths = (
{
closed = 1;
nodes = (
"1820 0 LINE",
"1820 354 LINE",
"929 354 LINE",
"929 220 LINE",
"1380 220 LINE",
"1380 156 LINE",
"489 156 LINE",
"489 409 LINE",
"641 594 LINE",
"1380 594 LINE",
"1380 594 LINE",
"1810 594 LINE",
"1810 750 LINE",
"281 750 LINE",
"49 459 LINE",
"49 0 LINE"
);
}
);
width = 1876;
},
{
layerId = "A421AE7B-D57F-4979-B16B-A2461F92FFEC";
paths = (
{
closed = 1;
nodes = (
"885 0 LINE",
"885 401 LINE",
"421 401 LINE",
"421 284 LINE",
"546 284 LINE",
"546 117 LINE",
"375 117 LINE",
"375 559 LINE",
"404 633 LINE",
"538 633 LINE",
"538 492 LINE",
"877 492 LINE",
"877 750 LINE",
"99 750 LINE",
"36 587 LINE",
"36 0 LINE"
);
}
);
width = 905;
},
{
layerId = "1DE04BF9-788D-44CB-BAD3-AEB0D6A323B9";
paths = (
{
closed = 1;
nodes = (
"885 0 LINE",
"885 401 LINE",
"421 401 LINE",
"421 284 LINE",
"546 284 LINE",
"546 117 LINE",
"375 117 LINE",
"375 559 LINE",
"404 633 LINE",
"538 633 LINE",
"538 492 LINE",
"877 492 LINE",
"877 750 LINE",
"99 750 LINE",
"36 587 LINE",
"36 0 LINE"
);
}
);
width = 905;
}
);
unicode = 0047;
},
{
glyphname = H;
lastChange = "2019-09-10 12:18:56 +0000";
layers = (
{
layerId = "41E2CF60-9A62-485C-A680-66BBCCBE3685";
paths = (
{
closed = 1;
nodes = (
"489 0 LINE",
"489 288 LINE",
"1377 288 LINE",
"1377 0 LINE",
"1816 0 LINE",
"1816 750 LINE",
"1377 750 LINE",
"1377 448 LINE",
"489 448 LINE",
"489 750 LINE",
"49 750 LINE",
"49 0 LINE"
);
}
);
width = 1865;
},
{
layerId = "C9BA7AB2-4C39-4898-B0E1-23BE521DA8C1";
paths = (
{
closed = 1;
nodes = (
"97 0 LINE",
"97 369 LINE",
"1153 369 LINE",
"1153 0 LINE",
"1194 0 LINE",
"1194 750 LINE",
"1153 750 LINE",
"1153 404 LINE",
"97 404 LINE",
"97 750 LINE",
"56 750 LINE",
"56 0 LINE"
);
}
);
width = 1250;
},
{
layerId = "1577B97C-DCC5-4AA4-842F-E9BB22E99E3C";
paths = (
{
closed = 1;
nodes = (
"66 0 LINE",
"66 364 LINE",
"123 364 LINE",
"123 0 LINE",
"154 0 LINE",
"154 750 LINE",
"123 750 LINE",
"123 386 LINE",
"66 386 LINE",
"66 750 LINE",
"35 750 LINE",
"35 0 LINE"
);
}
);
userData = {
com.schriftgestaltung.Glyphs.lastChange = "2019-04-28 05:35:59 +0000";
com.typemytype.robofont.pointLabels = {
7JgTtdb0jg = (
crossbar,
crossbar,
shiftdown
);
8OglXgblhr = (
rightside
);
MTAeavIVWY = (
crossbar
);
QjywsYY2yB = (
leftside,
crossbar,
shiftstem,
crossbar,
shiftdown,
crossbar,
leftside
);
UPaHY3UudR = (
leftside,
crossbar,
shiftstem,
crossbar,
shiftdown,
crossbar,
leftside
);
WUaPOcaxKT = (
leftside,
crossbar,
shiftstem,
crossbar,
shiftdown,
crossbar,
leftside
);
ZnCDQVdtyD = (
leftside,
crossbar,
shiftstem,
crossbar,
shiftdown,
crossbar,
leftside
);
lggLiivmLt = (
leftside,
crossbar,
shiftstem,
crossbar,
shiftdown,
crossbar,
leftside
);
oOtn61SmRY = (
rightside
);
uqAJBjDIOT = (
leftside,
crossbar,
shiftstem,
crossbar,
shiftdown,
crossbar,
leftside
);
};
};
width = 189;
},
{
layerId = "628C7BDB-7DBE-4EE3-879C-693AF95326D4";
paths = (
{
closed = 1;
nodes = (
"380 0 LINE",
"380 295 LINE",
"569 295 LINE",
"569 0 LINE",
"908 0 LINE",
"908 750 LINE",
"569 750 LINE",
"569 439 LINE",
"380 439 LINE",
"380 750 LINE",
"41 750 LINE",
"41 0 LINE"
);
}
);
width = 849;
},
{
layerId = "7F3C6EE5-2603-4259-9F13-C30BB9E194E1";
paths = (
{
closed = 1;
nodes = (
"66 0 LINE",
"66 469 LINE",
"123 469 LINE",
"123 0 LINE",
"154 0 LINE",
"154 750 LINE",
"123 750 LINE",
"123 491 LINE",
"66 491 LINE",
"66 750 LINE",
"35 750 LINE",
"35 0 LINE"
);
}
);
userData = {
com.schriftgestaltung.Glyphs.lastChange = "2019-04-28 05:35:59 +0000";
com.typemytype.robofont.pointLabels = {
7JgTtdb0jg = (
crossbar,
crossbar,
shiftdown
);
8OglXgblhr = (
rightside
);
MTAeavIVWY = (
crossbar
);
QjywsYY2yB = (
leftside,
crossbar,
shiftstem,
crossbar,
shiftdown,
crossbar,
leftside
);
UPaHY3UudR = (
leftside,
crossbar,
shiftstem,
crossbar,
shiftdown,
crossbar,
leftside
);
WUaPOcaxKT = (
leftside,
crossbar,
shiftstem,
crossbar,
shiftdown,
crossbar,
leftside
);
ZnCDQVdtyD = (
leftside,
crossbar,
shiftstem,
crossbar,
shiftdown,
crossbar,
leftside
);
lggLiivmLt = (
leftside,
crossbar,
shiftstem,
crossbar,
shiftdown,
crossbar,
leftside
);
oOtn61SmRY = (
rightside
);
uqAJBjDIOT = (
leftside,
crossbar,
shiftstem,
crossbar,
shiftdown,
crossbar,
leftside
);
};
};
width = 189;
},
{
layerId = "7A9BD435-3083-4FB3-9FE1-50106B21C13B";
paths = (
{
closed = 1;
nodes = (
"97 0 LINE",
"97 472 LINE",
"1153 472 LINE",
"1153 0 LINE",
"1194 0 LINE",
"1194 750 LINE",
"1153 750 LINE",
"1153 507 LINE",
"97 507 LINE",
"97 750 LINE",
"56 750 LINE",
"56 0 LINE"
);
}
);
width = 1250;
},
{
layerId = "401C54E9-F42A-49C7-842E-99B3D4FBDAC0";
paths = (
{
closed = 1;
nodes = (
"489 0 LINE",
"489 378 LINE",
"1377 378 LINE",
"1377 0 LINE",
"1816 0 LINE",
"1816 750 LINE",
"1377 750 LINE",
"1377 538 LINE",
"489 538 LINE",
"489 750 LINE",
"49 750 LINE",
"49 0 LINE"
);
}
);
width = 1865;
},
{
layerId = "6A003782-5630-46D5-9AEF-173A49B0B076";
paths = (
{
closed = 1;
nodes = (
"66 0 LINE",
"66 234 LINE",
"123 234 LINE",
"123 0 LINE",
"154 0 LINE",
"154 750 LINE",
"123 750 LINE",
"123 256 LINE",
"66 256 LINE",
"66 750 LINE",
"35 750 LINE",
"35 0 LINE"
);
}
);
userData = {
com.schriftgestaltung.Glyphs.lastChange = "2019-04-28 05:35:59 +0000";
com.typemytype.robofont.pointLabels = {
7JgTtdb0jg = (
crossbar,
crossbar,
shiftdown
);
8OglXgblhr = (
rightside
);
MTAeavIVWY = (
crossbar
);
QjywsYY2yB = (
leftside,
crossbar,
shiftstem,
crossbar,
shiftdown,
crossbar,
leftside
);
UPaHY3UudR = (
leftside,
crossbar,
shiftstem,
crossbar,
shiftdown,
crossbar,
leftside
);
WUaPOcaxKT = (
leftside,
crossbar,
shiftstem,
crossbar,
shiftdown,
crossbar,
leftside
);
ZnCDQVdtyD = (
leftside,
crossbar,
shiftstem,
crossbar,
shiftdown,
crossbar,
leftside
);
lggLiivmLt = (
leftside,
crossbar,
shiftstem,
crossbar,
shiftdown,
crossbar,
leftside
);
oOtn61SmRY = (
rightside
);
uqAJBjDIOT = (
leftside,
crossbar,
shiftstem,
crossbar,
shiftdown,
crossbar,
leftside
);
};
};
width = 189;
},
{
layerId = "9EF6E879-D021-4626-8F52-6D74284C4DC7";
paths = (
{
closed = 1;
nodes = (
"97 0 LINE",
"97 255 LINE",
"1153 255 LINE",
"1153 0 LINE",
"1194 0 LINE",
"1194 750 LINE",
"1153 750 LINE",
"1153 290 LINE",
"97 290 LINE",
"97 750 LINE",
"56 750 LINE",
"56 0 LINE"
);
}
);
width = 1250;
},
{
layerId = "FEE31BD6-05B9-4F93-BD72-F1214701600E";
paths = (
{
closed = 1;
nodes = (
"489 0 LINE",
"489 168 LINE",
"1377 168 LINE",
"1377 0 LINE",
"1816 0 LINE",
"1816 750 LINE",
"1377 750 LINE",
"1377 328 LINE",
"489 328 LINE",
"489 750 LINE",
"49 750 LINE",
"49 0 LINE"
);
}
);
width = 1865;
},
{
layerId = "A421AE7B-D57F-4979-B16B-A2461F92FFEC";
paths = (
{
closed = 1;
nodes = (
"380 0 LINE",
"380 295 LINE",
"569 295 LINE",
"569 0 LINE",
"908 0 LINE",
"908 750 LINE",
"569 750 LINE",
"569 439 LINE",
"380 439 LINE",
"380 750 LINE",
"41 750 LINE",
"41 0 LINE"
);
}
);
width = 849;
},
{
layerId = "1DE04BF9-788D-44CB-BAD3-AEB0D6A323B9";
paths = (
{
closed = 1;
nodes = (
"380 0 LINE",
"380 295 LINE",
"569 295 LINE",
"569 0 LINE",
"908 0 LINE",
"908 750 LINE",
"569 750 LINE",
"569 439 LINE",
"380 439 LINE",
"380 750 LINE",
"41 750 LINE",
"41 0 LINE"
);
}
);
width = 849;
}
);
unicode = 0048;
},
{
glyphname = I;
lastChange = "2019-09-10 12:18:56 +0000";
layers = (
{
layerId = "41E2CF60-9A62-485C-A680-66BBCCBE3685";
paths = (
{
closed = 1;
nodes = (
"506 0 LINE",
"506 750 LINE",
"66 750 LINE",
"66 0 LINE"
);
}
);
width = 572;
},
{
layerId = "C9BA7AB2-4C39-4898-B0E1-23BE521DA8C1";
paths = (
{
closed = 1;
nodes = (
"97 0 LINE",
"97 750 LINE",
"56 750 LINE",
"56 0 LINE"
);
}
);
width = 153;
},
{
layerId = "1577B97C-DCC5-4AA4-842F-E9BB22E99E3C";
paths = (
{
closed = 1;
nodes = (
"66 0 LINE",
"66 750 LINE",
"35 750 LINE",
"35 0 LINE"
);
}
);
userData = {
com.schriftgestaltung.Glyphs.lastChange = "2019-04-28 05:35:59 +0000";
com.typemytype.robofont.pointLabels = {
G11nOl1a96 = (
ri
);
LJaww9hqQY = (
leftside
);
jRE4QRN7r7 = (
ri
);
rhZOX8XKiW = (
leftside
);
};
};
width = 101;
},
{
layerId = "628C7BDB-7DBE-4EE3-879C-693AF95326D4";
paths = (
{
closed = 1;
nodes = (
"385 0 LINE",
"385 750 LINE",
"46 750 LINE",
"46 0 LINE"
);
}
);
width = 431;
},
{
layerId = "7F3C6EE5-2603-4259-9F13-C30BB9E194E1";
paths = (
{
closed = 1;
nodes = (
"66 0 LINE",
"66 750 LINE",
"35 750 LINE",
"35 0 LINE"
);
}
);
userData = {
com.schriftgestaltung.Glyphs.lastChange = "2019-04-28 05:35:59 +0000";
com.typemytype.robofont.pointLabels = {
G11nOl1a96 = (
ri
);
LJaww9hqQY = (
leftside
);
jRE4QRN7r7 = (
ri
);
rhZOX8XKiW = (
leftside
);
};
};
width = 101;
},
{
layerId = "7A9BD435-3083-4FB3-9FE1-50106B21C13B";
paths = (
{
closed = 1;
nodes = (
"97 0 LINE",
"97 750 LINE",
"56 750 LINE",
"56 0 LINE"
);
}
);
width = 153;
},
{
layerId = "401C54E9-F42A-49C7-842E-99B3D4FBDAC0";
paths = (
{
closed = 1;
nodes = (
"506 0 LINE",
"506 750 LINE",
"66 750 LINE",
"66 0 LINE"
);
}
);
width = 572;
},
{
layerId = "6A003782-5630-46D5-9AEF-173A49B0B076";
paths = (
{
closed = 1;
nodes = (
"66 0 LINE",
"66 750 LINE",
"35 750 LINE",
"35 0 LINE"
);
}
);
userData = {
com.schriftgestaltung.Glyphs.lastChange = "2019-04-28 05:35:59 +0000";
com.typemytype.robofont.pointLabels = {
G11nOl1a96 = (
ri
);
LJaww9hqQY = (
leftside
);
jRE4QRN7r7 = (
ri
);
rhZOX8XKiW = (
leftside
);
};
};
width = 101;
},
{
layerId = "9EF6E879-D021-4626-8F52-6D74284C4DC7";
paths = (
{
closed = 1;
nodes = (
"97 0 LINE",
"97 750 LINE",
"56 750 LINE",
"56 0 LINE"
);
}
);
width = 153;
},
{
layerId = "FEE31BD6-05B9-4F93-BD72-F1214701600E";
paths = (
{
closed = 1;
nodes = (
"506 0 LINE",
"506 750 LINE",
"66 750 LINE",
"66 0 LINE"
);
}
);
width = 572;
},
{
layerId = "A421AE7B-D57F-4979-B16B-A2461F92FFEC";
paths = (
{
closed = 1;
nodes = (
"385 0 LINE",
"385 750 LINE",
"46 750 LINE",
"46 0 LINE"
);
}
);
width = 431;
},
{
layerId = "1DE04BF9-788D-44CB-BAD3-AEB0D6A323B9";
paths = (
{
closed = 1;
nodes = (
"385 0 LINE",
"385 750 LINE",
"46 750 LINE",
"46 0 LINE"
);
}
);
width = 431;
}
);
unicode = 0049;
},
{
glyphname = J;
lastChange = "2019-09-10 12:18:56 +0000";
layers = (
{
layerId = "41E2CF60-9A62-485C-A680-66BBCCBE3685";
paths = (
{
closed = 1;
nodes = (
"1729 0 LINE",
"1729 750 LINE",
"111 750 LINE",
"111 594 LINE",
"1289 594 LINE",
"1289 156 LINE",
"581 156 LINE",
"486 379 LINE",
"36 379 LINE",
"211 0 LINE"
);
}
);
width = 1793;
},
{
layerId = "C9BA7AB2-4C39-4898-B0E1-23BE521DA8C1";
paths = (
{
closed = 1;
nodes = (
"1163 0 LINE",
"1163 750 LINE",
"61 750 LINE",
"61 718 LINE",
"1121 718 LINE",
"1121 32 LINE",
"116 32 LINE",
"80 275 LINE",
"38 275 LINE",
"81 0 LINE"
);
}
);
width = 1219;
},
{
layerId = "1577B97C-DCC5-4AA4-842F-E9BB22E99E3C";
paths = (
{
closed = 1;
nodes = (
"140 0 LINE",
"140 750 LINE",
"32 750 LINE",
"32 728 LINE",
"109 728 LINE",
"109 22 LINE",
"77 22 LINE",
"49 157 LINE",
"18 157 LINE",
"52 0 LINE"
);
}
);
userData = {
com.schriftgestaltung.Glyphs.lastChange = "2019-04-28 12:46:30 +0000";
com.typemytype.robofont.pointLabels = {
46RrD1WET2 = (
rightside,
rightside,
shiftstem,
leftside,
rightside,
rightside,
shiftdown,
shiftstem
);
7exNZv1XSc = (
leftside
);
AdYfGKx8QJ = (
rightside,
rightside,
shiftstem,
leftside,
rightside,
rightside,
shiftdown,
shiftstem
);
NQmE31PUns = (
rightside,
rightside,
shiftstem,
leftside,
rightside,
rightside,
shiftdown,
shiftstem
);
TbrXnCyMEi = (
leftside
);
d5Di3vNzni = (
rightside,
rightside,
shiftstem
);
jiO9eX9U07 = (
leftside
);
wgpFs1yguc = (
rightside,
rightside,
shiftstem
);
zFXsE8BUYG = (
rightside,
rightside,
shiftstem,
leftside,
rightside,
rightside,
shiftdown,
shiftstem
);
};
};
width = 175;
},
{
layerId = "628C7BDB-7DBE-4EE3-879C-693AF95326D4";
paths = (
{
closed = 1;
nodes = (
"788 0 LINE",
"788 750 LINE",
"44 750 LINE",
"44 653 LINE",
"449 653 LINE",
"449 97 LINE",
"407 97 LINE",
"369 317 LINE",
"28 317 LINE",
"90 0 LINE"
);
}
);
width = 829;
},
{
layerId = "7F3C6EE5-2603-4259-9F13-C30BB9E194E1";
paths = (
{
closed = 1;
nodes = (
"140 0 LINE",
"140 750 LINE",
"32 750 LINE",
"32 728 LINE",
"109 728 LINE",
"109 22 LINE",
"77 22 LINE",
"49 157 LINE",
"18 157 LINE",
"52 0 LINE"
);
}
);
userData = {
com.schriftgestaltung.Glyphs.lastChange = "2019-04-28 12:46:30 +0000";
com.typemytype.robofont.pointLabels = {
46RrD1WET2 = (
rightside,
rightside,
shiftstem,
leftside,
rightside,
rightside,
shiftdown,
shiftstem
);
7exNZv1XSc = (
leftside
);
AdYfGKx8QJ = (
rightside,
rightside,
shiftstem,
leftside,
rightside,
rightside,
shiftdown,
shiftstem
);
NQmE31PUns = (
rightside,
rightside,
shiftstem,
leftside,
rightside,
rightside,
shiftdown,
shiftstem
);
TbrXnCyMEi = (
leftside
);
d5Di3vNzni = (
rightside,
rightside,
shiftstem
);
jiO9eX9U07 = (
leftside
);
wgpFs1yguc = (
rightside,
rightside,
shiftstem
);
zFXsE8BUYG = (
rightside,
rightside,
shiftstem,
leftside,
rightside,
rightside,
shiftdown,
shiftstem
);
};
};
width = 175;
},
{
layerId = "7A9BD435-3083-4FB3-9FE1-50106B21C13B";
paths = (
{
closed = 1;
nodes = (
"1163 0 LINE",
"1163 750 LINE",
"61 750 LINE",
"61 718 LINE",
"1121 718 LINE",
"1121 32 LINE",
"116 32 LINE",
"80 275 LINE",
"38 275 LINE",
"81 0 LINE"
);
}
);
width = 1219;
},
{
layerId = "401C54E9-F42A-49C7-842E-99B3D4FBDAC0";
paths = (
{
closed = 1;
nodes = (
"1729 0 LINE",
"1729 750 LINE",
"111 750 LINE",
"111 594 LINE",
"1289 594 LINE",
"1289 156 LINE",
"581 156 LINE",
"486 379 LINE",
"36 379 LINE",
"211 0 LINE"
);
}
);
width = 1793;
},
{
layerId = "6A003782-5630-46D5-9AEF-173A49B0B076";
paths = (
{
closed = 1;
nodes = (
"140 0 LINE",
"140 750 LINE",
"32 750 LINE",
"32 728 LINE",
"109 728 LINE",
"109 22 LINE",
"77 22 LINE",
"49 157 LINE",
"18 157 LINE",
"52 0 LINE"
);
}
);
userData = {
com.schriftgestaltung.Glyphs.lastChange = "2019-04-28 12:46:30 +0000";
com.typemytype.robofont.pointLabels = {
46RrD1WET2 = (
rightside,
rightside,
shiftstem,
leftside,
rightside,
rightside,
shiftdown,
shiftstem
);
7exNZv1XSc = (
leftside
);
AdYfGKx8QJ = (
rightside,
rightside,
shiftstem,
leftside,
rightside,
rightside,
shiftdown,
shiftstem
);
NQmE31PUns = (
rightside,
rightside,
shiftstem,
leftside,
rightside,
rightside,
shiftdown,
shiftstem
);
TbrXnCyMEi = (
leftside
);
d5Di3vNzni = (
rightside,
rightside,
shiftstem
);
jiO9eX9U07 = (
leftside
);
wgpFs1yguc = (
rightside,
rightside,
shiftstem
);
zFXsE8BUYG = (
rightside,
rightside,
shiftstem,
leftside,
rightside,
rightside,
shiftdown,
shiftstem
);
};
};
width = 175;
},
{
layerId = "9EF6E879-D021-4626-8F52-6D74284C4DC7";
paths = (
{
closed = 1;
nodes = (
"1163 0 LINE",
"1163 750 LINE",
"61 750 LINE",
"61 718 LINE",
"1121 718 LINE",
"1121 32 LINE",
"116 32 LINE",
"80 275 LINE",
"38 275 LINE",
"81 0 LINE"
);
}
);
width = 1219;
},
{
layerId = "FEE31BD6-05B9-4F93-BD72-F1214701600E";
paths = (
{
closed = 1;
nodes = (
"1729 0 LINE",
"1729 750 LINE",
"111 750 LINE",
"111 594 LINE",
"1289 594 LINE",
"1289 156 LINE",
"581 156 LINE",
"486 379 LINE",
"36 379 LINE",
"211 0 LINE"
);
}
);
width = 1793;
},
{
layerId = "A421AE7B-D57F-4979-B16B-A2461F92FFEC";
paths = (
{
closed = 1;
nodes = (
"788 0 LINE",
"788 750 LINE",
"44 750 LINE",
"44 653 LINE",
"449 653 LINE",
"449 97 LINE",
"407 97 LINE",
"369 317 LINE",
"28 317 LINE",
"90 0 LINE"
);
}
);
width = 829;
},
{
layerId = "1DE04BF9-788D-44CB-BAD3-AEB0D6A323B9";
paths = (
{
closed = 1;
nodes = (
"788 0 LINE",
"788 750 LINE",
"44 750 LINE",
"44 653 LINE",
"449 653 LINE",
"449 97 LINE",
"407 97 LINE",
"369 317 LINE",
"28 317 LINE",
"90 0 LINE"
);
}
);
width = 829;
}
);
unicode = 004A;
},
{
glyphname = K;
lastChange = "2019-09-10 12:18:56 +0000";
layers = (
{
layerId = "41E2CF60-9A62-485C-A680-66BBCCBE3685";
paths = (
{
closed = 1;
nodes = (
"504 0 LINE",
"504 293 LINE",
"1201 293 LINE",
"1394 249 LINE",
"1394 0 LINE",
"1834 0 LINE",
"1834 325 LINE",
"1455 383 LINE",
"1455 400 LINE",
"1809 492 LINE",
"1809 750 LINE",
"1369 750 LINE",
"1369 518 LINE",
"1199 462 LINE",
"504 462 LINE",
"504 750 LINE",
"64 750 LINE",
"64 0 LINE"
);
}
);
width = 1865;
},
{
layerId = "C9BA7AB2-4C39-4898-B0E1-23BE521DA8C1";
paths = (
{
closed = 1;
nodes = (
"98 0 LINE",
"98 363 LINE",
"770 363 LINE",
"1155 293 LINE",
"1155 0 LINE",
"1197 0 LINE",
"1197 314 LINE",
"821 382 LINE",
"821 383 LINE",
"1181 460 LINE",
"1181 750 LINE",
"1140 750 LINE",
"1140 478 LINE",
"770 395 LINE",
"98 395 LINE",
"98 750 LINE",
"56 750 LINE",
"56 0 LINE"
);
}
);
width = 1240;
},
{
layerId = "1577B97C-DCC5-4AA4-842F-E9BB22E99E3C";
paths = (
{
closed = 1;
nodes = (
"66 0 LINE",
"66 367 LINE",
"76 375 LINE",
"125 318 LINE",
"125 0 LINE",
"156 0 LINE",
"156 325 LINE",
"92 399 LINE",
"92 388 LINE",
"149 432 LINE",
"149 750 LINE",
"118 750 LINE",
"118 442 LINE",
"70 401 LINE",
"66 401 LINE",
"66 750 LINE",
"35 750 LINE",
"35 0 LINE"
);
}
);
userData = {
com.schriftgestaltung.Glyphs.lastChange = "2019-04-28 05:35:59 +0000";
com.typemytype.robofont.pointLabels = {
0mqLpz5vAU = (
leftside,
rightside,
shiftdown,
rightside,
crossbar,
shiftstem,
rightside,
rightside,
crossbar,
rightside,
rightside,
crossbar,
leftside
);
8uJIZj54GB = (
rightside,
rightside,
crossbar
);
AJFybwtISS = (
leftside,
rightside,
shiftdown,
rightside,
crossbar,
shiftstem,
rightside,
rightside,
crossbar,
rightside,
rightside,
crossbar,
leftside
);
I87sAwdtGu = (
leftside,
rightside,
shiftdown,
rightside,
crossbar,
shiftstem,
rightside,
rightside,
crossbar,
rightside,
rightside,
crossbar,
leftside
);
RNULHVAYqp = (
rightside
);
UTjU3L1PPB = (
leftside,
rightside,
shiftdown,
rightside,
crossbar,
shiftstem,
rightside,
rightside,
crossbar,
rightside,
rightside,
crossbar,
leftside
);
e8AHcRxH3I = (
rightside,
rightside,
crossbar
);
eNRdyfM1oC = (
rightside
);
nN62QTbZwT = (
rightside,
shiftdown,
rightside,
crossbar,
rightside,
rightside,
crossbar
);
nj0bO2yqxJ = (
rightside,
rightside,
crossbar
);
qeJQMGx6zx = (
rightside,
rightside,
crossbar
);
tRv54mralF = (
leftside,
rightside,
shiftdown,
rightside,
crossbar,
shiftstem,
rightside,
rightside,
crossbar,
rightside,
rightside,
crossbar,
leftside
);
up9uIbzma1 = (
rightside,
rightside,
crossbar
);
xRsK7LwvCP = (
rightside,
shiftdown,
rightside,
crossbar,
rightside,
rightside,
crossbar
);
xj8qIf4v8s = (
leftside,
rightside,
shiftdown,
rightside,
crossbar,
shiftstem,
rightside,
rightside,
crossbar,
rightside,
rightside,
crossbar,
leftside
);
};
};
width = 187;
},
{
layerId = "628C7BDB-7DBE-4EE3-879C-693AF95326D4";
paths = (
{
closed = 1;
nodes = (
"380 0 LINE",
"380 332 LINE",
"493 332 LINE",
"540 299 LINE",
"540 0 LINE",
"879 0 LINE",
"879 319 LINE",
"706 387 LINE",
"706 402 LINE",
"872 451 LINE",
"872 750 LINE",
"533 750 LINE",
"533 446 LINE",
"488 425 LINE",
"380 425 LINE",
"380 750 LINE",
"41 750 LINE",
"41 0 LINE"
);
}
);
width = 911;
},
{
layerId = "7F3C6EE5-2603-4259-9F13-C30BB9E194E1";
paths = (
{
closed = 1;
nodes = (
"66 0 LINE",
"66 477 LINE",
"76 485 LINE",
"125 428 LINE",
"125 0 LINE",
"156 0 LINE",
"156 435 LINE",
"92 509 LINE",
"92 498 LINE",
"149 542 LINE",
"149 750 LINE",
"118 750 LINE",
"118 552 LINE",
"70 511 LINE",
"66 511 LINE",
"66 750 LINE",
"35 750 LINE",
"35 0 LINE"
);
}
);
userData = {
com.schriftgestaltung.Glyphs.lastChange = "2019-04-28 05:35:59 +0000";
com.typemytype.robofont.pointLabels = {
0mqLpz5vAU = (
leftside,
rightside,
shiftdown,
rightside,
crossbar,
shiftstem,
rightside,
rightside,
crossbar,
rightside,
rightside,
crossbar,
leftside
);
8uJIZj54GB = (
rightside,
rightside,
crossbar
);
AJFybwtISS = (
leftside,
rightside,
shiftdown,
rightside,
crossbar,
shiftstem,
rightside,
rightside,
crossbar,
rightside,
rightside,
crossbar,
leftside
);
I87sAwdtGu = (
leftside,
rightside,
shiftdown,
rightside,
crossbar,
shiftstem,
rightside,
rightside,
crossbar,
rightside,
rightside,
crossbar,
leftside
);
RNULHVAYqp = (
rightside
);
UTjU3L1PPB = (
leftside,
rightside,
shiftdown,
rightside,
crossbar,
shiftstem,
rightside,
rightside,
crossbar,
rightside,
rightside,
crossbar,
leftside
);
e8AHcRxH3I = (
rightside,
rightside,
crossbar
);
eNRdyfM1oC = (
rightside
);
nN62QTbZwT = (
rightside,
shiftdown,
rightside,
crossbar,
rightside,
rightside,
crossbar
);
nj0bO2yqxJ = (
rightside,
rightside,
crossbar
);
qeJQMGx6zx = (
rightside,
rightside,
crossbar
);
tRv54mralF = (
leftside,
rightside,
shiftdown,
rightside,
crossbar,
shiftstem,
rightside,
rightside,
crossbar,
rightside,
rightside,
crossbar,
leftside
);
up9uIbzma1 = (
rightside,
rightside,
crossbar
);
xRsK7LwvCP = (
rightside,
shiftdown,
rightside,
crossbar,
rightside,
rightside,
crossbar
);
xj8qIf4v8s = (
leftside,
rightside,
shiftdown,
rightside,
crossbar,
shiftstem,
rightside,
rightside,
crossbar,
rightside,
rightside,
crossbar,
leftside
);
};
};
width = 187;
},
{
layerId = "7A9BD435-3083-4FB3-9FE1-50106B21C13B";
paths = (
{
closed = 1;
nodes = (
"98 0 LINE",
"98 467 LINE",
"770 467 LINE",
"1155 393 LINE",
"1155 0 LINE",
"1197 0 LINE",
"1197 418 LINE",
"821 486 LINE",
"821 487 LINE",
"1181 564 LINE",
"1181 750 LINE",
"1140 750 LINE",
"1140 586 LINE",
"766 499 LINE",
"98 499 LINE",
"98 750 LINE",
"56 750 LINE",
"56 0 LINE"
);
}
);
width = 1240;
},
{
layerId = "401C54E9-F42A-49C7-842E-99B3D4FBDAC0";
paths = (
{
closed = 1;
nodes = (
"504 0 LINE",
"504 388 LINE",
"1261 388 LINE",
"1394 342 LINE",
"1394 0 LINE",
"1834 0 LINE",
"1834 407 LINE",
"1405 472 LINE",
"1405 490 LINE",
"1809 585 LINE",
"1809 750 LINE",
"1369 750 LINE",
"1369 608 LINE",
"1249 555 LINE",
"504 555 LINE",
"504 750 LINE",
"64 750 LINE",
"64 0 LINE"
);
}
);
width = 1865;
},
{
layerId = "6A003782-5630-46D5-9AEF-173A49B0B076";
paths = (
{
closed = 1;
nodes = (
"66 0 LINE",
"66 190 LINE",
"76 198 LINE",
"125 141 LINE",
"125 0 LINE",
"156 0 LINE",
"156 148 LINE",
"92 222 LINE",
"92 211 LINE",
"149 255 LINE",
"149 750 LINE",
"118 750 LINE",
"118 265 LINE",
"70 224 LINE",
"66 224 LINE",
"66 750 LINE",
"35 750 LINE",
"35 0 LINE"
);
}
);
userData = {
com.schriftgestaltung.Glyphs.lastChange = "2019-04-28 05:35:59 +0000";
com.typemytype.robofont.pointLabels = {
0mqLpz5vAU = (
leftside,
rightside,
shiftdown,
rightside,
crossbar,
shiftstem,
rightside,
rightside,
crossbar,
rightside,
rightside,
crossbar,
leftside
);
8uJIZj54GB = (
rightside,
rightside,
crossbar
);
AJFybwtISS = (
leftside,
rightside,
shiftdown,
rightside,
crossbar,
shiftstem,
rightside,
rightside,
crossbar,
rightside,
rightside,
crossbar,
leftside
);
I87sAwdtGu = (
leftside,
rightside,
shiftdown,
rightside,
crossbar,
shiftstem,
rightside,
rightside,
crossbar,
rightside,
rightside,
crossbar,
leftside
);
RNULHVAYqp = (
rightside
);
UTjU3L1PPB = (
leftside,
rightside,
shiftdown,
rightside,
crossbar,
shiftstem,
rightside,
rightside,
crossbar,
rightside,
rightside,
crossbar,
leftside
);
e8AHcRxH3I = (
rightside,
rightside,
crossbar
);
eNRdyfM1oC = (
rightside
);
nN62QTbZwT = (
rightside,
shiftdown,
rightside,
crossbar,
rightside,
rightside,
crossbar
);
nj0bO2yqxJ = (
rightside,
rightside,
crossbar
);
qeJQMGx6zx = (
rightside,
rightside,
crossbar
);
tRv54mralF = (
leftside,
rightside,
shiftdown,
rightside,
crossbar,
shiftstem,
rightside,
rightside,
crossbar,
rightside,
rightside,
crossbar,
leftside
);
up9uIbzma1 = (
rightside,
rightside,
crossbar
);
xRsK7LwvCP = (
rightside,
shiftdown,
rightside,
crossbar,
rightside,
rightside,
crossbar
);
xj8qIf4v8s = (
leftside,
rightside,
shiftdown,
rightside,
crossbar,
shiftstem,
rightside,
rightside,
crossbar,
rightside,
rightside,
crossbar,
leftside
);
};
};
width = 187;
},
{
layerId = "9EF6E879-D021-4626-8F52-6D74284C4DC7";
paths = (
{
closed = 1;
nodes = (
"98 0 LINE",
"98 208 LINE",
"770 208 LINE",
"1155 136 LINE",
"1155 0 LINE",
"1197 0 LINE",
"1197 159 LINE",
"821 225 LINE",
"821 226 LINE",
"1181 305 LINE",
"1181 750 LINE",
"1140 750 LINE",
"1140 323 LINE",
"770 240 LINE",
"98 240 LINE",
"98 750 LINE",
"56 750 LINE",
"56 0 LINE"
);
}
);
width = 1240;
},
{
layerId = "FEE31BD6-05B9-4F93-BD72-F1214701600E";
paths = (
{
closed = 1;
nodes = (
"504 0 LINE",
"504 183 LINE",
"1231 183 LINE",
"1394 139 LINE",
"1394 0 LINE",
"1834 0 LINE",
"1834 208 LINE",
"1405 271 LINE",
"1405 290 LINE",
"1809 382 LINE",
"1809 750 LINE",
"1369 750 LINE",
"1369 408 LINE",
"1219 352 LINE",
"504 352 LINE",
"504 750 LINE",
"64 750 LINE",
"64 0 LINE"
);
}
);
width = 1865;
},
{
layerId = "A421AE7B-D57F-4979-B16B-A2461F92FFEC";
paths = (
{
closed = 1;
nodes = (
"380 0 LINE",
"380 332 LINE",
"493 332 LINE",
"540 299 LINE",
"540 0 LINE",
"879 0 LINE",
"879 319 LINE",
"706 387 LINE",
"706 402 LINE",
"872 451 LINE",
"872 750 LINE",
"533 750 LINE",
"533 446 LINE",
"488 425 LINE",
"380 425 LINE",
"380 750 LINE",
"41 750 LINE",
"41 0 LINE"
);
}
);
width = 911;
},
{
layerId = "1DE04BF9-788D-44CB-BAD3-AEB0D6A323B9";
paths = (
{
closed = 1;
nodes = (
"380 0 LINE",
"380 332 LINE",
"493 332 LINE",
"540 299 LINE",
"540 0 LINE",
"879 0 LINE",
"879 319 LINE",
"706 387 LINE",
"706 402 LINE",
"872 451 LINE",
"872 750 LINE",
"533 750 LINE",
"533 446 LINE",
"488 425 LINE",
"380 425 LINE",
"380 750 LINE",
"41 750 LINE",
"41 0 LINE"
);
}
);
width = 911;
}
);
unicode = 004B;
},
{
glyphname = L;
lastChange = "2019-09-10 12:18:56 +0000";
layers = (
{
layerId = "41E2CF60-9A62-485C-A680-66BBCCBE3685";
paths = (
{
closed = 1;
nodes = (
"1658 0 LINE",
"1658 156 LINE",
"563 156 LINE",
"563 750 LINE",
"123 750 LINE",
"123 0 LINE"
);
}
);
width = 1678;
},
{
layerId = "C9BA7AB2-4C39-4898-B0E1-23BE521DA8C1";
paths = (
{
closed = 1;
nodes = (
"1071 0 LINE",
"1071 32 LINE",
"98 32 LINE",
"98 750 LINE",
"56 750 LINE",
"56 0 LINE"
);
}
);
width = 1102;
},
{
layerId = "1577B97C-DCC5-4AA4-842F-E9BB22E99E3C";
paths = (
{
closed = 1;
nodes = (
"142 0 LINE",
"142 22 LINE",
"66 22 LINE",
"66 750 LINE",
"35 750 LINE",
"35 0 LINE"
);
}
);
width = 172;
},
{
layerId = "628C7BDB-7DBE-4EE3-879C-693AF95326D4";
paths = (
{
closed = 1;
nodes = (
"729 -2 LINE",
"729 144 LINE",
"380 146 LINE",
"380 750 LINE",
"41 750 LINE",
"41 0 LINE"
);
}
);
width = 734;
},
{
layerId = "401C54E9-F42A-49C7-842E-99B3D4FBDAC0";
paths = (
{
closed = 1;
nodes = (
"1658 0 LINE",
"1658 156 LINE",
"563 156 LINE",
"563 750 LINE",
"123 750 LINE",
"123 0 LINE"
);
}
);
width = 1678;
},
{
layerId = "7A9BD435-3083-4FB3-9FE1-50106B21C13B";
paths = (
{
closed = 1;
nodes = (
"1071 0 LINE",
"1071 32 LINE",
"98 32 LINE",
"98 750 LINE",
"56 750 LINE",
"56 0 LINE"
);
}
);
width = 1102;
},
{
layerId = "7F3C6EE5-2603-4259-9F13-C30BB9E194E1";
paths = (
{
closed = 1;
nodes = (
"142 0 LINE",
"142 22 LINE",
"66 22 LINE",
"66 750 LINE",
"35 750 LINE",
"35 0 LINE"
);
}
);
width = 172;
},
{
layerId = "FEE31BD6-05B9-4F93-BD72-F1214701600E";
paths = (
{
closed = 1;
nodes = (
"1658 0 LINE",
"1658 156 LINE",
"563 156 LINE",
"563 750 LINE",
"123 750 LINE",
"123 0 LINE"
);
}
);
width = 1678;
},
{
layerId = "9EF6E879-D021-4626-8F52-6D74284C4DC7";
paths = (
{
closed = 1;
nodes = (
"1071 0 LINE",
"1071 32 LINE",
"98 32 LINE",
"98 750 LINE",
"56 750 LINE",
"56 0 LINE"
);
}
);
width = 1102;
},
{
layerId = "6A003782-5630-46D5-9AEF-173A49B0B076";
paths = (
{
closed = 1;
nodes = (
"142 0 LINE",
"142 22 LINE",
"66 22 LINE",
"66 750 LINE",
"35 750 LINE",
"35 0 LINE"
);
}
);
width = 172;
},
{
layerId = "A421AE7B-D57F-4979-B16B-A2461F92FFEC";
paths = (
{
closed = 1;
nodes = (
"729 -2 LINE",
"729 144 LINE",
"380 146 LINE",
"380 750 LINE",
"41 750 LINE",
"41 0 LINE"
);
}
);
width = 734;
},
{
layerId = "1DE04BF9-788D-44CB-BAD3-AEB0D6A323B9";
paths = (
{
closed = 1;
nodes = (
"729 -2 LINE",
"729 144 LINE",
"380 146 LINE",
"380 750 LINE",
"41 750 LINE",
"41 0 LINE"
);
}
);
width = 734;
}
);
unicode = 004C;
},
{
glyphname = M;
lastChange = "2019-09-10 12:18:56 +0000";
layers = (
{
layerId = "41E2CF60-9A62-485C-A680-66BBCCBE3685";
paths = (
{
closed = 1;
nodes = (
"504 0 LINE",
"504 583 LINE",
"549 583 LINE",
"789 0 LINE",
"1319 0 LINE",
"1556 584 LINE",
"1601 584 LINE",
"1601 0 LINE",
"2041 0 LINE",
"2041 750 LINE",
"1266 750 LINE",
"1067 176 LINE",
"1038 176 LINE",
"839 750 LINE",
"64 750 LINE",
"64 0 LINE"
);
}
);
width = 2105;
},
{
layerId = "C9BA7AB2-4C39-4898-B0E1-23BE521DA8C1";
paths = (
{
closed = 1;
nodes = (
"97 0 LINE",
"97 718 LINE",
"111 718 LINE",
"648 103 LINE",
"693 103 LINE",
"1227 719 LINE",
"1244 719 LINE",
"1244 0 LINE",
"1285 0 LINE",
"1285 750 LINE",
"1195 750 LINE",
"673 142 LINE",
"667 142 LINE",
"145 750 LINE",
"56 750 LINE",
"56 0 LINE"
);
}
);
width = 1341;
},
{
layerId = "1577B97C-DCC5-4AA4-842F-E9BB22E99E3C";
paths = (
{
closed = 1;
nodes = (
"66 0 LINE",
"66 728 LINE",
"79 728 LINE",
"108 30 LINE",
"168 30 LINE",
"196 729 LINE",
"212 729 LINE",
"212 0 LINE",
"243 0 LINE",
"243 750 LINE",
"166 750 LINE",
"141 52 LINE",
"135 52 LINE",
"109 750 LINE",
"35 750 LINE",
"35 0 LINE"
);
}
);
userData = {
com.schriftgestaltung.Glyphs.lastChange = "2019-04-28 05:35:59 +0000";
com.typemytype.robofont.pointLabels = {
0IVF7y8NCN = (
leftside,
leftside,
rightside,
rightside,
shiftstem,
leftside,
shiftdown,
leftside,
rightside,
rightside,
shiftstem,
leftside,
leftside,
rightside,
rightside,
shiftstem,
leftside,
leftside,
rightside,
rightside,
shiftstem
);
4t8tj5JGI4 = (
leftside,
leftside,
rightside,
rightside,
shiftstem
);
5TFRebmDRK = (
leftside,
leftside,
rightside,
rightside,
shiftstem
);
GaMk5bB7DR = (
leftside,
leftside,
rightside,
rightside,
shiftstem,
leftside,
shiftdown,
leftside,
rightside,
rightside,
shiftstem,
leftside,
leftside,
rightside,
rightside,
shiftstem,
leftside,
leftside,
rightside,
rightside,
shiftstem
);
N3Yjzxbj88 = (
leftside,
leftside,
rightside,
rightside,
shiftstem,
leftside,
shiftdown,
leftside,
rightside,
rightside,
shiftstem,
leftside,
leftside,
rightside,
rightside,
shiftstem,
leftside,
leftside,
rightside,
rightside,
shiftstem
);
O3YubNnacO = (
leftside,
leftside,
rightside,
rightside,
shiftstem
);
cR3kL9Ehcu = (
leftside,
leftside,
rightside,
rightside,
shiftstem,
leftside,
shiftdown,
leftside,
rightside,
rightside,
shiftstem,
leftside,
leftside,
rightside,
rightside,
shiftstem,
leftside,
leftside,
rightside,
rightside,
shiftstem
);
ceFvMk9BBo = (
leftside,
leftside,
rightside,
rightside,
shiftstem
);
czpj5jP2o1 = (
leftside,
leftside,
rightside,
rightside,
shiftstem
);
fB69TbcHQR = (
leftside,
leftside,
rightside,
rightside,
shiftstem,
leftside,
shiftdown,
leftside,
rightside,
rightside,
shiftstem,
leftside,
leftside,
rightside,
rightside,
shiftstem,
leftside,
leftside,
rightside,
rightside,
shiftstem
);
hvBQuBUzS5 = (
leftside,
leftside,
rightside,
rightside,
shiftstem
);
l3jugDCgZp = (
leftside,
leftside,
rightside,
rightside,
shiftstem
);
q5rffo9NOb = (
leftside,
leftside,
rightside,
rightside,
shiftstem,
leftside,
shiftdown,
leftside,
rightside,
rightside,
shiftstem,
leftside,
leftside,
rightside,
rightside,
shiftstem,
leftside,
leftside,
rightside,
rightside,
shiftstem
);
rc1RBgs7MK = (
leftside,
leftside,
rightside,
rightside,
shiftstem
);
rfY4yi4WM7 = (
leftside,
leftside,
rightside,
rightside,
shiftstem
);
s8LitYzs32 = (
leftside,
leftside,
rightside,
rightside,
shiftstem
);
};
};
width = 278;
},
{
layerId = "628C7BDB-7DBE-4EE3-879C-693AF95326D4";
paths = (
{
closed = 1;
nodes = (
"355 0 LINE",
"355 619 LINE",
"360 619 LINE",
"437 90 LINE",
"828 90 LINE",
"906 620 LINE",
"911 620 LINE",
"911 0 LINE",
"1227 0 LINE",
"1227 750 LINE",
"706 750 LINE",
"644 205 LINE",
"634 205 LINE",
"571 750 LINE",
"51 750 LINE",
"51 0 LINE"
);
}
);
width = 1278;
},
{
layerId = "7F3C6EE5-2603-4259-9F13-C30BB9E194E1";
paths = (
{
closed = 1;
nodes = (
"66 0 LINE",
"66 728 LINE",
"79 728 LINE",
"108 30 LINE",
"168 30 LINE",
"196 729 LINE",
"212 729 LINE",
"212 0 LINE",
"243 0 LINE",
"243 750 LINE",
"166 750 LINE",
"141 52 LINE",
"135 52 LINE",
"109 750 LINE",
"35 750 LINE",
"35 0 LINE"
);
}
);
userData = {
com.schriftgestaltung.Glyphs.lastChange = "2019-04-28 05:35:59 +0000";
com.typemytype.robofont.pointLabels = {
0IVF7y8NCN = (
leftside,
leftside,
rightside,
rightside,
shiftstem,
leftside,
shiftdown,
leftside,
rightside,
rightside,
shiftstem,
leftside,
leftside,
rightside,
rightside,
shiftstem,
leftside,
leftside,
rightside,
rightside,
shiftstem
);
4t8tj5JGI4 = (
leftside,
leftside,
rightside,
rightside,
shiftstem
);
5TFRebmDRK = (
leftside,
leftside,
rightside,
rightside,
shiftstem
);
GaMk5bB7DR = (
leftside,
leftside,
rightside,
rightside,
shiftstem,
leftside,
shiftdown,
leftside,
rightside,
rightside,
shiftstem,
leftside,
leftside,
rightside,
rightside,
shiftstem,
leftside,
leftside,
rightside,
rightside,
shiftstem
);
N3Yjzxbj88 = (
leftside,
leftside,
rightside,
rightside,
shiftstem,
leftside,
shiftdown,
leftside,
rightside,
rightside,
shiftstem,
leftside,
leftside,
rightside,
rightside,
shiftstem,
leftside,
leftside,
rightside,
rightside,
shiftstem
);
O3YubNnacO = (
leftside,
leftside,
rightside,
rightside,
shiftstem
);
cR3kL9Ehcu = (
leftside,
leftside,
rightside,
rightside,
shiftstem,
leftside,
shiftdown,
leftside,
rightside,
rightside,
shiftstem,
leftside,
leftside,
rightside,
rightside,
shiftstem,
leftside,
leftside,
rightside,
rightside,
shiftstem
);
ceFvMk9BBo = (
leftside,
leftside,
rightside,
rightside,
shiftstem
);
czpj5jP2o1 = (
leftside,
leftside,
rightside,
rightside,
shiftstem
);
fB69TbcHQR = (
leftside,
leftside,
rightside,
rightside,
shiftstem,
leftside,
shiftdown,
leftside,
rightside,
rightside,
shiftstem,
leftside,
leftside,
rightside,
rightside,
shiftstem,
leftside,
leftside,
rightside,
rightside,
shiftstem
);
hvBQuBUzS5 = (
leftside,
leftside,
rightside,
rightside,
shiftstem
);
l3jugDCgZp = (
leftside,
leftside,
rightside,
rightside,
shiftstem
);
q5rffo9NOb = (
leftside,
leftside,
rightside,
rightside,
shiftstem,
leftside,
shiftdown,
leftside,
rightside,
rightside,
shiftstem,
leftside,
leftside,
rightside,
rightside,
shiftstem,
leftside,
leftside,
rightside,
rightside,
shiftstem
);
rc1RBgs7MK = (
leftside,
leftside,
rightside,
rightside,
shiftstem
);
rfY4yi4WM7 = (
leftside,
leftside,
rightside,
rightside,
shiftstem
);
s8LitYzs32 = (
leftside,
leftside,
rightside,
rightside,
shiftstem
);
};
};
width = 278;
},
{
layerId = "7A9BD435-3083-4FB3-9FE1-50106B21C13B";
paths = (
{
closed = 1;
nodes = (
"97 0 LINE",
"97 718 LINE",
"111 718 LINE",
"648 103 LINE",
"693 103 LINE",
"1227 719 LINE",
"1244 719 LINE",
"1244 0 LINE",
"1285 0 LINE",
"1285 750 LINE",
"1195 750 LINE",
"673 142 LINE",
"667 142 LINE",
"145 750 LINE",
"56 750 LINE",
"56 0 LINE"
);
}
);
width = 1341;
},
{
layerId = "401C54E9-F42A-49C7-842E-99B3D4FBDAC0";
paths = (
{
closed = 1;
nodes = (
"504 0 LINE",
"504 583 LINE",
"549 583 LINE",
"789 0 LINE",
"1319 0 LINE",
"1556 584 LINE",
"1601 584 LINE",
"1601 0 LINE",
"2041 0 LINE",
"2041 750 LINE",
"1266 750 LINE",
"1067 176 LINE",
"1038 176 LINE",
"839 750 LINE",
"64 750 LINE",
"64 0 LINE"
);
}
);
width = 2105;
},
{
layerId = "6A003782-5630-46D5-9AEF-173A49B0B076";
paths = (
{
closed = 1;
nodes = (
"66 0 LINE",
"66 728 LINE",
"79 728 LINE",
"108 60 LINE",
"168 60 LINE",
"196 729 LINE",
"212 729 LINE",
"212 0 LINE",
"243 0 LINE",
"243 750 LINE",
"166 750 LINE",
"141 82 LINE",
"135 82 LINE",
"109 750 LINE",
"35 750 LINE",
"35 0 LINE"
);
}
);
userData = {
com.schriftgestaltung.Glyphs.lastChange = "2019-04-28 05:35:59 +0000";
com.typemytype.robofont.pointLabels = {
0IVF7y8NCN = (
leftside,
leftside,
rightside,
rightside,
shiftstem,
leftside,
shiftdown,
leftside,
rightside,
rightside,
shiftstem,
leftside,
leftside,
rightside,
rightside,
shiftstem,
leftside,
leftside,
rightside,
rightside,
shiftstem
);
4t8tj5JGI4 = (
leftside,
leftside,
rightside,
rightside,
shiftstem
);
5TFRebmDRK = (
leftside,
leftside,
rightside,
rightside,
shiftstem
);
GaMk5bB7DR = (
leftside,
leftside,
rightside,
rightside,
shiftstem,
leftside,
shiftdown,
leftside,
rightside,
rightside,
shiftstem,
leftside,
leftside,
rightside,
rightside,
shiftstem,
leftside,
leftside,
rightside,
rightside,
shiftstem
);
N3Yjzxbj88 = (
leftside,
leftside,
rightside,
rightside,
shiftstem,
leftside,
shiftdown,
leftside,
rightside,
rightside,
shiftstem,
leftside,
leftside,
rightside,
rightside,
shiftstem,
leftside,
leftside,
rightside,
rightside,
shiftstem
);
O3YubNnacO = (
leftside,
leftside,
rightside,
rightside,
shiftstem
);
cR3kL9Ehcu = (
leftside,
leftside,
rightside,
rightside,
shiftstem,
leftside,
shiftdown,
leftside,
rightside,
rightside,
shiftstem,
leftside,
leftside,
rightside,
rightside,
shiftstem,
leftside,
leftside,
rightside,
rightside,
shiftstem
);
ceFvMk9BBo = (
leftside,
leftside,
rightside,
rightside,
shiftstem
);
czpj5jP2o1 = (
leftside,
leftside,
rightside,
rightside,
shiftstem
);
fB69TbcHQR = (
leftside,
leftside,
rightside,
rightside,
shiftstem,
leftside,
shiftdown,
leftside,
rightside,
rightside,
shiftstem,
leftside,
leftside,
rightside,
rightside,
shiftstem,
leftside,
leftside,
rightside,
rightside,
shiftstem
);
hvBQuBUzS5 = (
leftside,
leftside,
rightside,
rightside,
shiftstem
);
l3jugDCgZp = (
leftside,
leftside,
rightside,
rightside,
shiftstem
);
q5rffo9NOb = (
leftside,
leftside,
rightside,
rightside,
shiftstem,
leftside,
shiftdown,
leftside,
rightside,
rightside,
shiftstem,
leftside,
leftside,
rightside,
rightside,
shiftstem,
leftside,
leftside,
rightside,
rightside,
shiftstem
);
rc1RBgs7MK = (
leftside,
leftside,
rightside,
rightside,
shiftstem
);
rfY4yi4WM7 = (
leftside,
leftside,
rightside,
rightside,
shiftstem
);
s8LitYzs32 = (
leftside,
leftside,
rightside,
rightside,
shiftstem
);
};
};
width = 278;
},
{
layerId = "9EF6E879-D021-4626-8F52-6D74284C4DC7";
paths = (
{
closed = 1;
nodes = (
"97 0 LINE",
"97 718 LINE",
"111 718 LINE",
"648 103 LINE",
"693 103 LINE",
"1227 719 LINE",
"1244 719 LINE",
"1244 0 LINE",
"1285 0 LINE",
"1285 750 LINE",
"1195 750 LINE",
"673 142 LINE",
"667 142 LINE",
"145 750 LINE",
"56 750 LINE",
"56 0 LINE"
);
}
);
width = 1341;
},
{
layerId = "FEE31BD6-05B9-4F93-BD72-F1214701600E";
paths = (
{
closed = 1;
nodes = (
"504 0 LINE",
"504 583 LINE",
"549 583 LINE",
"789 0 LINE",
"1319 0 LINE",
"1556 584 LINE",
"1601 584 LINE",
"1601 0 LINE",
"2041 0 LINE",
"2041 750 LINE",
"1266 750 LINE",
"1067 176 LINE",
"1038 176 LINE",
"839 750 LINE",
"64 750 LINE",
"64 0 LINE"
);
}
);
width = 2105;
},
{
layerId = "A421AE7B-D57F-4979-B16B-A2461F92FFEC";
paths = (
{
closed = 1;
nodes = (
"355 0 LINE",
"355 619 LINE",
"360 619 LINE",
"437 90 LINE",
"828 90 LINE",
"906 620 LINE",
"911 620 LINE",
"911 0 LINE",
"1227 0 LINE",
"1227 750 LINE",
"706 750 LINE",
"644 205 LINE",
"634 205 LINE",
"571 750 LINE",
"51 750 LINE",
"51 0 LINE"
);
}
);
width = 1278;
},
{
layerId = "1DE04BF9-788D-44CB-BAD3-AEB0D6A323B9";
paths = (
{
closed = 1;
nodes = (
"355 0 LINE",
"355 619 LINE",
"360 619 LINE",
"437 90 LINE",
"828 90 LINE",
"906 620 LINE",
"911 620 LINE",
"911 0 LINE",
"1227 0 LINE",
"1227 750 LINE",
"706 750 LINE",
"644 205 LINE",
"634 205 LINE",
"571 750 LINE",
"51 750 LINE",
"51 0 LINE"
);
}
);
width = 1278;
}
);
unicode = 004D;
},
{
glyphname = N;
lastChange = "2019-09-10 12:18:56 +0000";
layers = (
{
layerId = "41E2CF60-9A62-485C-A680-66BBCCBE3685";
paths = (
{
closed = 1;
nodes = (
"504 0 LINE",
"504 588 LINE",
"523 588 LINE",
"1182 0 LINE",
"1828 0 LINE",
"1828 750 LINE",
"1388 750 LINE",
"1388 163 LINE",
"1363 163 LINE",
"703 750 LINE",
"64 750 LINE",
"64 0 LINE"
);
}
);
width = 1892;
},
{
layerId = "C9BA7AB2-4C39-4898-B0E1-23BE521DA8C1";
paths = (
{
closed = 1;
nodes = (
"98 0 LINE",
"98 718 LINE",
"124 718 LINE",
"1135 0 LINE",
"1229 0 LINE",
"1229 750 LINE",
"1188 750 LINE",
"1188 34 LINE",
"1162 34 LINE",
"150 750 LINE",
"56 750 LINE",
"56 0 LINE"
);
}
);
width = 1285;
},
{
layerId = "1577B97C-DCC5-4AA4-842F-E9BB22E99E3C";
paths = (
{
closed = 1;
nodes = (
"66 0 LINE",
"66 728 LINE",
"77 728 LINE",
"121 0 LINE",
"187 0 LINE",
"187 750 LINE",
"156 750 LINE",
"156 24 LINE",
"148 24 LINE",
"103 750 LINE",
"35 750 LINE",
"35 0 LINE"
);
}
);
userData = {
com.schriftgestaltung.Glyphs.lastChange = "2019-04-28 05:35:59 +0000";
com.typemytype.robofont.pointLabels = {
1omi5wQQzW = (
shiftstem
);
7wBal5jvPQ = (
shiftstem,
shiftstem,
shiftdown
);
DYg9JHyygg = (
shiftstem,
shiftstem,
shiftdown
);
HgG4gyE7AV = (
shiftstem,
shiftstem,
shiftdown
);
Icsrkoeq5r = (
leftside
);
MWbbTwGkbG = (
leftside
);
Mm9MihPC9S = (
shiftstem,
shiftstem,
rightside
);
RZjfuiFaWd = (
shiftstem,
shiftstem,
shiftdown
);
ZsB4bFWMAS = (
shiftstem,
shiftstem,
rightside
);
j2qkgH7CJF = (
shiftstem
);
};
};
width = 222;
},
{
layerId = "628C7BDB-7DBE-4EE3-879C-693AF95326D4";
paths = (
{
closed = 1;
nodes = (
"338 0 LINE",
"338 599 LINE",
"346 599 LINE",
"424 0 LINE",
"935 0 LINE",
"935 750 LINE",
"646 750 LINE",
"646 178 LINE",
"635 178 LINE",
"563 750 LINE",
"41 750 LINE",
"41 0 LINE"
);
}
);
width = 976;
},
{
layerId = "7F3C6EE5-2603-4259-9F13-C30BB9E194E1";
paths = (
{
closed = 1;
nodes = (
"66 0 LINE",
"66 728 LINE",
"77 728 LINE",
"121 0 LINE",
"187 0 LINE",
"187 750 LINE",
"156 750 LINE",
"156 24 LINE",
"148 24 LINE",
"103 750 LINE",
"35 750 LINE",
"35 0 LINE"
);
}
);
userData = {
com.schriftgestaltung.Glyphs.lastChange = "2019-04-28 05:35:59 +0000";
com.typemytype.robofont.pointLabels = {
1omi5wQQzW = (
shiftstem
);
7wBal5jvPQ = (
shiftstem,
shiftstem,
shiftdown
);
DYg9JHyygg = (
shiftstem,
shiftstem,
shiftdown
);
HgG4gyE7AV = (
shiftstem,
shiftstem,
shiftdown
);
Icsrkoeq5r = (
leftside
);
MWbbTwGkbG = (
leftside
);
Mm9MihPC9S = (
shiftstem,
shiftstem,
rightside
);
RZjfuiFaWd = (
shiftstem,
shiftstem,
shiftdown
);
ZsB4bFWMAS = (
shiftstem,
shiftstem,
rightside
);
j2qkgH7CJF = (
shiftstem
);
};
};
width = 222;
},
{
layerId = "7A9BD435-3083-4FB3-9FE1-50106B21C13B";
paths = (
{
closed = 1;
nodes = (
"98 0 LINE",
"98 718 LINE",
"124 718 LINE",
"1135 0 LINE",
"1229 0 LINE",
"1229 750 LINE",
"1188 750 LINE",
"1188 34 LINE",
"1162 34 LINE",
"150 750 LINE",
"56 750 LINE",
"56 0 LINE"
);
}
);
width = 1285;
},
{
layerId = "401C54E9-F42A-49C7-842E-99B3D4FBDAC0";
paths = (
{
closed = 1;
nodes = (
"504 0 LINE",
"504 588 LINE",
"523 588 LINE",
"1182 0 LINE",
"1828 0 LINE",
"1828 750 LINE",
"1388 750 LINE",
"1388 163 LINE",
"1363 163 LINE",
"703 750 LINE",
"64 750 LINE",
"64 0 LINE"
);
}
);
width = 1892;
},
{
layerId = "6A003782-5630-46D5-9AEF-173A49B0B076";
paths = (
{
closed = 1;
nodes = (
"66 0 LINE",
"66 728 LINE",
"77 728 LINE",
"121 0 LINE",
"187 0 LINE",
"187 750 LINE",
"156 750 LINE",
"156 24 LINE",
"148 24 LINE",
"103 750 LINE",
"35 750 LINE",
"35 0 LINE"
);
}
);
userData = {
com.schriftgestaltung.Glyphs.lastChange = "2019-04-28 05:35:59 +0000";
com.typemytype.robofont.pointLabels = {
1omi5wQQzW = (
shiftstem
);
7wBal5jvPQ = (
shiftstem,
shiftstem,
shiftdown
);
DYg9JHyygg = (
shiftstem,
shiftstem,
shiftdown
);
HgG4gyE7AV = (
shiftstem,
shiftstem,
shiftdown
);
Icsrkoeq5r = (
leftside
);
MWbbTwGkbG = (
leftside
);
Mm9MihPC9S = (
shiftstem,
shiftstem,
rightside
);
RZjfuiFaWd = (
shiftstem,
shiftstem,
shiftdown
);
ZsB4bFWMAS = (
shiftstem,
shiftstem,
rightside
);
j2qkgH7CJF = (
shiftstem
);
};
};
width = 222;
},
{
layerId = "9EF6E879-D021-4626-8F52-6D74284C4DC7";
paths = (
{
closed = 1;
nodes = (
"98 0 LINE",
"98 718 LINE",
"124 718 LINE",
"1135 0 LINE",
"1229 0 LINE",
"1229 750 LINE",
"1188 750 LINE",
"1188 34 LINE",
"1162 34 LINE",
"150 750 LINE",
"56 750 LINE",
"56 0 LINE"
);
}
);
width = 1285;
},
{
layerId = "FEE31BD6-05B9-4F93-BD72-F1214701600E";
paths = (
{
closed = 1;
nodes = (
"504 0 LINE",
"504 588 LINE",
"523 588 LINE",
"1182 0 LINE",
"1828 0 LINE",
"1828 750 LINE",
"1388 750 LINE",
"1388 163 LINE",
"1363 163 LINE",
"703 750 LINE",
"64 750 LINE",
"64 0 LINE"
);
}
);
width = 1892;
},
{
layerId = "A421AE7B-D57F-4979-B16B-A2461F92FFEC";
paths = (
{
closed = 1;
nodes = (
"338 0 LINE",
"338 599 LINE",
"346 599 LINE",
"424 0 LINE",
"935 0 LINE",
"935 750 LINE",
"646 750 LINE",
"646 178 LINE",
"635 178 LINE",
"563 750 LINE",
"41 750 LINE",
"41 0 LINE"
);
}
);
width = 976;
},
{
layerId = "1DE04BF9-788D-44CB-BAD3-AEB0D6A323B9";
paths = (
{
closed = 1;
nodes = (
"338 0 LINE",
"338 599 LINE",
"346 599 LINE",
"424 0 LINE",
"935 0 LINE",
"935 750 LINE",
"646 750 LINE",
"646 178 LINE",
"635 178 LINE",
"563 750 LINE",
"41 750 LINE",
"41 0 LINE"
);
}
);
width = 976;
}
);
unicode = 004E;
},
{
glyphname = O;
lastChange = "2019-09-10 12:18:56 +0000";
layers = (
{
layerId = "41E2CF60-9A62-485C-A680-66BBCCBE3685";
paths = (
{
closed = 1;
nodes = (
"1567 0 LINE",
"1801 238 LINE",
"1801 750 LINE",
"316 750 LINE",
"75 501 LINE",
"75 0 LINE"
);
},
{
closed = 1;
nodes = (
"515 386 LINE",
"706 594 LINE",
"1361 594 LINE",
"1361 355 LINE",
"1167 156 LINE",
"515 156 LINE"
);
}
);
width = 1876;
},
{
layerId = "C9BA7AB2-4C39-4898-B0E1-23BE521DA8C1";
paths = (
{
closed = 1;
nodes = (
"1074 0 LINE",
"1197 152 LINE",
"1197 750 LINE",
"179 750 LINE",
"56 596 LINE",
"56 0 LINE"
);
},
{
closed = 1;
nodes = (
"97 584 LINE",
"206 718 LINE",
"1156 718 LINE",
"1156 166 LINE",
"1046 32 LINE",
"97 32 LINE"
);
}
);
width = 1253;
},
{
layerId = "1577B97C-DCC5-4AA4-842F-E9BB22E99E3C";
paths = (
{
closed = 1;
nodes = (
"126 0 LINE",
"157 62 LINE",
"157 750 LINE",
"66 750 LINE",
"35 688 LINE",
"35 0 LINE"
);
},
{
closed = 1;
nodes = (
"66 684 LINE",
"88 728 LINE",
"126 728 LINE",
"126 66 LINE",
"104 22 LINE",
"66 22 LINE"
);
}
);
userData = {
com.schriftgestaltung.Glyphs.lastChange = "2019-08-12 16:07:16 +0000";
com.typemytype.robofont.pointLabels = {
SnrsQD5TLy = (
rightside,
rightside,
rightside,
shiftstem,
leftside,
leftside,
shiftstem,
leftside,
leftside,
shiftdown,
leftside,
shiftstem,
leftside,
leftside,
leftside,
shiftstem,
leftside,
leftside,
leftside,
shiftstem,
leftside,
leftside,
shiftdown,
leftside,
shiftstem,
leftside,
leftside,
leftside,
shiftstem,
leftside,
leftside,
leftside,
shiftstem,
leftside,
leftside,
shiftdown,
leftside,
shiftstem,
leftside,
leftside,
leftside,
shiftstem,
leftside
);
U6WibAQAUl = (
leftside,
leftside,
leftside
);
YbQKHpAtYn = (
shiftstem,
shiftdown,
shiftstem,
leftside,
leftside,
leftside,
shiftstem,
leftside,
leftside,
leftside,
shiftstem,
leftside,
leftside,
shiftdown,
leftside,
shiftstem,
leftside,
leftside,
leftside,
shiftstem,
leftside
);
a4Ql951bxG = (
leftside,
leftside,
leftside
);
c9brEFyXXA = (
rightside,
rightside,
rightside,
shiftstem,
leftside,
leftside,
shiftstem,
leftside,
leftside,
shiftdown,
leftside,
shiftstem,
leftside,
leftside,
leftside,
shiftstem,
leftside,
leftside,
leftside,
shiftstem,
leftside,
leftside,
shiftdown,
leftside,
shiftstem,
leftside,
leftside,
leftside,
shiftstem,
leftside,
leftside,
leftside,
shiftstem,
leftside,
leftside,
shiftdown,
leftside,
shiftstem,
leftside,
leftside,
leftside,
shiftstem,
leftside
);
dfgNHTgBfR = (
rightside,
rightside,
rightside,
shiftstem,
leftside,
leftside,
shiftstem,
leftside,
leftside,
shiftdown,
leftside,
shiftstem,
leftside,
leftside,
leftside,
shiftstem,
leftside,
leftside,
leftside,
shiftstem,
leftside,
leftside,
shiftdown,
leftside,
shiftstem,
leftside,
leftside,
leftside,
shiftstem,
leftside,
leftside,
leftside,
shiftstem,
leftside,
leftside,
shiftdown,
leftside,
shiftstem,
leftside,
leftside,
leftside,
shiftstem,
leftside
);
g70r2r6DwY = (
rightside,
rightside,
rightside,
shiftstem,
leftside,
leftside,
shiftstem,
leftside,
leftside,
shiftdown,
leftside,
shiftstem,
leftside,
leftside,
leftside,
shiftstem,
leftside,
leftside,
leftside,
shiftstem,
leftside,
leftside,
shiftdown,
leftside,
shiftstem,
leftside,
leftside,
leftside,
shiftstem,
leftside,
leftside,
leftside,
shiftstem,
leftside,
leftside,
shiftdown,
leftside,
shiftstem,
leftside,
leftside,
leftside,
shiftstem,
leftside
);
jjd5iRDXWT = (
rightside,
rightside,
rightside,
shiftstem,
leftside,
leftside,
shiftstem,
leftside,
leftside,
shiftdown,
leftside,
shiftstem,
leftside,
leftside,
leftside,
shiftstem,
leftside,
leftside,
leftside,
shiftstem,
leftside,
leftside,
shiftdown,
leftside,
shiftstem,
leftside,
leftside,
leftside,
shiftstem,
leftside,
leftside,
leftside,
shiftstem,
leftside,
leftside,
shiftdown,
leftside,
shiftstem,
leftside,
leftside,
leftside,
shiftstem,
leftside
);
kbL68Qh2zr = (
leftside,
leftside,
leftside
);
ob8US3C311 = (
rightside,
rightside,
rightside,
shiftstem,
leftside,
leftside,
shiftstem,
leftside,
leftside,
shiftdown,
leftside,
shiftstem,
leftside,
leftside,
leftside,
shiftstem,
leftside,
leftside,
leftside,
shiftstem,
leftside,
leftside,
shiftdown,
leftside,
shiftstem,
leftside,
leftside,
leftside,
shiftstem,
leftside,
leftside,
leftside,
shiftstem,
leftside,
leftside,
shiftdown,
leftside,
shiftstem,
leftside,
leftside,
leftside,
shiftstem,
leftside
);
qXlVxK5ShE = (
leftside,
leftside,
shiftstem,
leftside,
leftside,
shiftdown,
leftside,
shiftstem,
leftside,
leftside,
leftside,
shiftstem,
leftside
);
vdfGLkskOQ = (
shiftstem,
shiftdown,
shiftstem,
leftside,
leftside,
leftside,
shiftstem,
leftside,
leftside,
leftside,
shiftstem,
leftside,
leftside,
shiftdown,
leftside,
shiftstem,
leftside,
leftside,
leftside,
shiftstem,
leftside
);
};
};
width = 192;
},
{
layerId = "628C7BDB-7DBE-4EE3-879C-693AF95326D4";
paths = (
{
closed = 1;
nodes = (
"827 0 LINE",
"888 162 LINE",
"888 750 LINE",
"114 750 LINE",
"36 564 LINE",
"36 0 LINE"
);
},
{
closed = 1;
nodes = (
"375 485 LINE",
"429 653 LINE",
"549 653 LINE",
"549 241 LINE",
"494 97 LINE",
"375 97 LINE"
);
}
);
width = 924;
},
{
layerId = "7F3C6EE5-2603-4259-9F13-C30BB9E194E1";
paths = (
{
closed = 1;
nodes = (
"126 0 LINE",
"157 62 LINE",
"157 750 LINE",
"66 750 LINE",
"35 688 LINE",
"35 0 LINE"
);
},
{
closed = 1;
nodes = (
"66 684 LINE",
"88 728 LINE",
"126 728 LINE",
"126 66 LINE",
"104 22 LINE",
"66 22 LINE"
);
}
);
userData = {
com.schriftgestaltung.Glyphs.lastChange = "2019-08-12 16:07:16 +0000";
com.typemytype.robofont.pointLabels = {
SnrsQD5TLy = (
rightside,
rightside,
rightside,
shiftstem,
leftside,
leftside,
shiftstem,
leftside,
leftside,
shiftdown,
leftside,
shiftstem,
leftside,
leftside,
leftside,
shiftstem,
leftside,
leftside,
leftside,
shiftstem,
leftside,
leftside,
shiftdown,
leftside,
shiftstem,
leftside,
leftside,
leftside,
shiftstem,
leftside,
leftside,
leftside,
shiftstem,
leftside,
leftside,
shiftdown,
leftside,
shiftstem,
leftside,
leftside,
leftside,
shiftstem,
leftside
);
U6WibAQAUl = (
leftside,
leftside,
leftside
);
YbQKHpAtYn = (
shiftstem,
shiftdown,
shiftstem,
leftside,
leftside,
leftside,
shiftstem,
leftside,
leftside,
leftside,
shiftstem,
leftside,
leftside,
shiftdown,
leftside,
shiftstem,
leftside,
leftside,
leftside,
shiftstem,
leftside
);
a4Ql951bxG = (
leftside,
leftside,
leftside
);
c9brEFyXXA = (
rightside,
rightside,
rightside,
shiftstem,
leftside,
leftside,
shiftstem,
leftside,
leftside,
shiftdown,
leftside,
shiftstem,
leftside,
leftside,
leftside,
shiftstem,
leftside,
leftside,
leftside,
shiftstem,
leftside,
leftside,
shiftdown,
leftside,
shiftstem,
leftside,
leftside,
leftside,
shiftstem,
leftside,
leftside,
leftside,
shiftstem,
leftside,
leftside,
shiftdown,
leftside,
shiftstem,
leftside,
leftside,
leftside,
shiftstem,
leftside
);
dfgNHTgBfR = (
rightside,
rightside,
rightside,
shiftstem,
leftside,
leftside,
shiftstem,
leftside,
leftside,
shiftdown,
leftside,
shiftstem,
leftside,
leftside,
leftside,
shiftstem,
leftside,
leftside,
leftside,
shiftstem,
leftside,
leftside,
shiftdown,
leftside,
shiftstem,
leftside,
leftside,
leftside,
shiftstem,
leftside,
leftside,
leftside,
shiftstem,
leftside,
leftside,
shiftdown,
leftside,
shiftstem,
leftside,
leftside,
leftside,
shiftstem,
leftside
);
g70r2r6DwY = (
rightside,
rightside,
rightside,
shiftstem,
leftside,
leftside,
shiftstem,
leftside,
leftside,
shiftdown,
leftside,
shiftstem,
leftside,
leftside,
leftside,
shiftstem,
leftside,
leftside,
leftside,
shiftstem,
leftside,
leftside,
shiftdown,
leftside,
shiftstem,
leftside,
leftside,
leftside,
shiftstem,
leftside,
leftside,
leftside,
shiftstem,
leftside,
leftside,
shiftdown,
leftside,
shiftstem,
leftside,
leftside,
leftside,
shiftstem,
leftside
);
jjd5iRDXWT = (
rightside,
rightside,
rightside,
shiftstem,
leftside,
leftside,
shiftstem,
leftside,
leftside,
shiftdown,
leftside,
shiftstem,
leftside,
leftside,
leftside,
shiftstem,
leftside,
leftside,
leftside,
shiftstem,
leftside,
leftside,
shiftdown,
leftside,
shiftstem,
leftside,
leftside,
leftside,
shiftstem,
leftside,
leftside,
leftside,
shiftstem,
leftside,
leftside,
shiftdown,
leftside,
shiftstem,
leftside,
leftside,
leftside,
shiftstem,
leftside
);
kbL68Qh2zr = (
leftside,
leftside,
leftside
);
ob8US3C311 = (
rightside,
rightside,
rightside,
shiftstem,
leftside,
leftside,
shiftstem,
leftside,
leftside,
shiftdown,
leftside,
shiftstem,
leftside,
leftside,
leftside,
shiftstem,
leftside,
leftside,
leftside,
shiftstem,
leftside,
leftside,
shiftdown,
leftside,
shiftstem,
leftside,
leftside,
leftside,
shiftstem,
leftside,
leftside,
leftside,
shiftstem,
leftside,
leftside,
shiftdown,
leftside,
shiftstem,
leftside,
leftside,
leftside,
shiftstem,
leftside
);
qXlVxK5ShE = (
leftside,
leftside,
shiftstem,
leftside,
leftside,
shiftdown,
leftside,
shiftstem,
leftside,
leftside,
leftside,
shiftstem,
leftside
);
vdfGLkskOQ = (
shiftstem,
shiftdown,
shiftstem,
leftside,
leftside,
leftside,
shiftstem,
leftside,
leftside,
leftside,
shiftstem,
leftside,
leftside,
shiftdown,
leftside,
shiftstem,
leftside,
leftside,
leftside,
shiftstem,
leftside
);
};
};
width = 192;
},
{
layerId = "7A9BD435-3083-4FB3-9FE1-50106B21C13B";
paths = (
{
closed = 1;
nodes = (
"1074 0 LINE",
"1197 152 LINE",
"1197 750 LINE",
"179 750 LINE",
"56 596 LINE",
"56 0 LINE"
);
},
{
closed = 1;
nodes = (
"97 584 LINE",
"206 718 LINE",
"1156 718 LINE",
"1156 166 LINE",
"1046 32 LINE",
"97 32 LINE"
);
}
);
width = 1253;
},
{
layerId = "401C54E9-F42A-49C7-842E-99B3D4FBDAC0";
paths = (
{
closed = 1;
nodes = (
"1567 0 LINE",
"1801 238 LINE",
"1801 750 LINE",
"316 750 LINE",
"75 501 LINE",
"75 0 LINE"
);
},
{
closed = 1;
nodes = (
"515 386 LINE",
"706 594 LINE",
"1361 594 LINE",
"1361 355 LINE",
"1167 156 LINE",
"515 156 LINE"
);
}
);
width = 1876;
},
{
layerId = "6A003782-5630-46D5-9AEF-173A49B0B076";
paths = (
{
closed = 1;
nodes = (
"126 0 LINE",
"157 62 LINE",
"157 750 LINE",
"66 750 LINE",
"35 688 LINE",
"35 0 LINE"
);
},
{
closed = 1;
nodes = (
"66 684 LINE",
"88 728 LINE",
"126 728 LINE",
"126 66 LINE",
"104 22 LINE",
"66 22 LINE"
);
}
);
userData = {
com.schriftgestaltung.Glyphs.lastChange = "2019-08-12 16:07:16 +0000";
com.typemytype.robofont.pointLabels = {
SnrsQD5TLy = (
rightside,
rightside,
rightside,
shiftstem,
leftside,
leftside,
shiftstem,
leftside,
leftside,
shiftdown,
leftside,
shiftstem,
leftside,
leftside,
leftside,
shiftstem,
leftside,
leftside,
leftside,
shiftstem,
leftside,
leftside,
shiftdown,
leftside,
shiftstem,
leftside,
leftside,
leftside,
shiftstem,
leftside,
leftside,
leftside,
shiftstem,
leftside,
leftside,
shiftdown,
leftside,
shiftstem,
leftside,
leftside,
leftside,
shiftstem,
leftside
);
U6WibAQAUl = (
leftside,
leftside,
leftside
);
YbQKHpAtYn = (
shiftstem,
shiftdown,
shiftstem,
leftside,
leftside,
leftside,
shiftstem,
leftside,
leftside,
leftside,
shiftstem,
leftside,
leftside,
shiftdown,
leftside,
shiftstem,
leftside,
leftside,
leftside,
shiftstem,
leftside
);
a4Ql951bxG = (
leftside,
leftside,
leftside
);
c9brEFyXXA = (
rightside,
rightside,
rightside,
shiftstem,
leftside,
leftside,
shiftstem,
leftside,
leftside,
shiftdown,
leftside,
shiftstem,
leftside,
leftside,
leftside,
shiftstem,
leftside,
leftside,
leftside,
shiftstem,
leftside,
leftside,
shiftdown,
leftside,
shiftstem,
leftside,
leftside,
leftside,
shiftstem,
leftside,
leftside,
leftside,
shiftstem,
leftside,
leftside,
shiftdown,
leftside,
shiftstem,
leftside,
leftside,
leftside,
shiftstem,
leftside
);
dfgNHTgBfR = (
rightside,
rightside,
rightside,
shiftstem,
leftside,
leftside,
shiftstem,
leftside,
leftside,
shiftdown,
leftside,
shiftstem,
leftside,
leftside,
leftside,
shiftstem,
leftside,
leftside,
leftside,
shiftstem,
leftside,
leftside,
shiftdown,
leftside,
shiftstem,
leftside,
leftside,
leftside,
shiftstem,
leftside,
leftside,
leftside,
shiftstem,
leftside,
leftside,
shiftdown,
leftside,
shiftstem,
leftside,
leftside,
leftside,
shiftstem,
leftside
);
g70r2r6DwY = (
rightside,
rightside,
rightside,
shiftstem,
leftside,
leftside,
shiftstem,
leftside,
leftside,
shiftdown,
leftside,
shiftstem,
leftside,
leftside,
leftside,
shiftstem,
leftside,
leftside,
leftside,
shiftstem,
leftside,
leftside,
shiftdown,
leftside,
shiftstem,
leftside,
leftside,
leftside,
shiftstem,
leftside,
leftside,
leftside,
shiftstem,
leftside,
leftside,
shiftdown,
leftside,
shiftstem,
leftside,
leftside,
leftside,
shiftstem,
leftside
);
jjd5iRDXWT = (
rightside,
rightside,
rightside,
shiftstem,
leftside,
leftside,
shiftstem,
leftside,
leftside,
shiftdown,
leftside,
shiftstem,
leftside,
leftside,
leftside,
shiftstem,
leftside,
leftside,
leftside,
shiftstem,
leftside,
leftside,
shiftdown,
leftside,
shiftstem,
leftside,
leftside,
leftside,
shiftstem,
leftside,
leftside,
leftside,
shiftstem,
leftside,
leftside,
shiftdown,
leftside,
shiftstem,
leftside,
leftside,
leftside,
shiftstem,
leftside
);
kbL68Qh2zr = (
leftside,
leftside,
leftside
);
ob8US3C311 = (
rightside,
rightside,
rightside,
shiftstem,
leftside,
leftside,
shiftstem,
leftside,
leftside,
shiftdown,
leftside,
shiftstem,
leftside,
leftside,
leftside,
shiftstem,
leftside,
leftside,
leftside,
shiftstem,
leftside,
leftside,
shiftdown,
leftside,
shiftstem,
leftside,
leftside,
leftside,
shiftstem,
leftside,
leftside,
leftside,
shiftstem,
leftside,
leftside,
shiftdown,
leftside,
shiftstem,
leftside,
leftside,
leftside,
shiftstem,
leftside
);
qXlVxK5ShE = (
leftside,
leftside,
shiftstem,
leftside,
leftside,
shiftdown,
leftside,
shiftstem,
leftside,
leftside,
leftside,
shiftstem,
leftside
);
vdfGLkskOQ = (
shiftstem,
shiftdown,
shiftstem,
leftside,
leftside,
leftside,
shiftstem,
leftside,
leftside,
leftside,
shiftstem,
leftside,
leftside,
shiftdown,
leftside,
shiftstem,
leftside,
leftside,
leftside,
shiftstem,
leftside
);
};
};
width = 192;
},
{
layerId = "9EF6E879-D021-4626-8F52-6D74284C4DC7";
paths = (
{
closed = 1;
nodes = (
"1074 0 LINE",
"1197 152 LINE",
"1197 750 LINE",
"179 750 LINE",
"56 596 LINE",
"56 0 LINE"
);
},
{
closed = 1;
nodes = (
"97 584 LINE",
"206 718 LINE",
"1156 718 LINE",
"1156 166 LINE",
"1046 32 LINE",
"97 32 LINE"
);
}
);
width = 1253;
},
{
layerId = "FEE31BD6-05B9-4F93-BD72-F1214701600E";
paths = (
{
closed = 1;
nodes = (
"1567 0 LINE",
"1801 238 LINE",
"1801 750 LINE",
"316 750 LINE",
"75 501 LINE",
"75 0 LINE"
);
},
{
closed = 1;
nodes = (
"515 386 LINE",
"706 594 LINE",
"1361 594 LINE",
"1361 355 LINE",
"1167 156 LINE",
"515 156 LINE"
);
}
);
width = 1876;
},
{
layerId = "A421AE7B-D57F-4979-B16B-A2461F92FFEC";
paths = (
{
closed = 1;
nodes = (
"827 0 LINE",
"888 162 LINE",
"888 750 LINE",
"114 750 LINE",
"36 564 LINE",
"36 0 LINE"
);
},
{
closed = 1;
nodes = (
"375 485 LINE",
"429 653 LINE",
"549 653 LINE",
"549 241 LINE",
"494 97 LINE",
"375 97 LINE"
);
}
);
width = 924;
},
{
layerId = "1DE04BF9-788D-44CB-BAD3-AEB0D6A323B9";
paths = (
{
closed = 1;
nodes = (
"827 0 LINE",
"888 162 LINE",
"888 750 LINE",
"114 750 LINE",
"36 564 LINE",
"36 0 LINE"
);
},
{
closed = 1;
nodes = (
"375 485 LINE",
"429 653 LINE",
"549 653 LINE",
"549 241 LINE",
"494 97 LINE",
"375 97 LINE"
);
}
);
width = 924;
}
);
unicode = 004F;
},
{
glyphname = P;
lastChange = "2019-09-10 13:23:01 +0000";
layers = (
{
layerId = "41E2CF60-9A62-485C-A680-66BBCCBE3685";
paths = (
{
closed = 1;
nodes = (
"563 0 LINE",
"563 230 LINE",
"1704 319 LINE",
"1704 750 LINE",
"123 750 LINE",
"123 0 LINE"
);
},
{
closed = 1;
nodes = (
"563 594 LINE",
"1264 594 LINE",
"1264 436 LINE",
"563 392 LINE"
);
}
);
width = 1749;
},
{
layerId = "C9BA7AB2-4C39-4898-B0E1-23BE521DA8C1";
paths = (
{
closed = 1;
nodes = (
"98 0 LINE",
"98 325 LINE",
"1160 420 LINE",
"1160 750 LINE",
"56 750 LINE",
"56 0 LINE"
);
},
{
closed = 1;
nodes = (
"98 718 LINE",
"1118 718 LINE",
"1118 447 LINE",
"98 359 LINE"
);
}
);
width = 1190;
},
{
layerId = "1577B97C-DCC5-4AA4-842F-E9BB22E99E3C";
paths = (
{
closed = 1;
nodes = (
"66 0 LINE",
"66 331 LINE",
"149 372 LINE",
"149 750 LINE",
"35 750 LINE",
"35 0 LINE"
);
},
{
closed = 1;
nodes = (
"66 728 LINE",
"118 728 LINE",
"118 385 LINE",
"66 359 LINE"
);
}
);
userData = {
com.schriftgestaltung.Glyphs.lastChange = "2019-04-28 05:35:59 +0000";
com.typemytype.robofont.pointLabels = {
1WCnzth1GX = (
rightside,
rightside,
shiftstem,
shiftdown,
rightside,
shiftstem
);
2c4LCF1E1R = (
rightside,
rightside,
shiftstem,
shiftdown,
rightside,
shiftstem
);
6xW04auDFu = (
rightside,
rightside,
shiftstem
);
EG08jqU5fb = (
leftside
);
IZIZQr2gYJ = (
rightside,
rightside,
shiftstem,
shiftdown,
rightside,
shiftstem
);
PIBVN1PGv1 = (
rightside,
rightside,
shiftstem,
shiftdown,
rightside,
shiftstem
);
Tt6D8zYZmU = (
rightside,
rightside,
shiftstem
);
eETO5GBD5v = (
leftside
);
};
};
width = 177;
},
{
layerId = "628C7BDB-7DBE-4EE3-879C-693AF95326D4";
paths = (
{
closed = 1;
nodes = (
"380 0 LINE",
"380 288 LINE",
"803 348 LINE",
"803 750 LINE",
"41 750 LINE",
"41 0 LINE"
);
},
{
closed = 1;
nodes = (
"380 653 LINE",
"464 653 LINE",
"464 420 LINE",
"380 411 LINE"
);
}
);
width = 824;
},
{
layerId = "7F3C6EE5-2603-4259-9F13-C30BB9E194E1";
paths = (
{
closed = 1;
nodes = (
"66 0 LINE",
"66 441 LINE",
"149 482 LINE",
"149 750 LINE",
"35 750 LINE",
"35 0 LINE"
);
},
{
closed = 1;
nodes = (
"66 728 LINE",
"118 728 LINE",
"118 495 LINE",
"66 471 LINE"
);
}
);
userData = {
com.schriftgestaltung.Glyphs.lastChange = "2019-04-28 05:35:59 +0000";
com.typemytype.robofont.pointLabels = {
1WCnzth1GX = (
rightside,
rightside,
shiftstem,
shiftdown,
rightside,
shiftstem
);
2c4LCF1E1R = (
rightside,
rightside,
shiftstem,
shiftdown,
rightside,
shiftstem
);
6xW04auDFu = (
rightside,
rightside,
shiftstem
);
EG08jqU5fb = (
leftside
);
IZIZQr2gYJ = (
rightside,
rightside,
shiftstem,
shiftdown,
rightside,
shiftstem
);
PIBVN1PGv1 = (
rightside,
rightside,
shiftstem,
shiftdown,
rightside,
shiftstem
);
Tt6D8zYZmU = (
rightside,
rightside,
shiftstem
);
eETO5GBD5v = (
leftside
);
};
};
width = 177;
},
{
layerId = "7A9BD435-3083-4FB3-9FE1-50106B21C13B";
paths = (
{
closed = 1;
nodes = (
"98 0 LINE",
"98 428 LINE",
"1160 523 LINE",
"1160 750 LINE",
"56 750 LINE",
"56 0 LINE"
);
},
{
closed = 1;
nodes = (
"98 718 LINE",
"1118 718 LINE",
"1118 550 LINE",
"98 462 LINE"
);
}
);
width = 1190;
},
{
layerId = "401C54E9-F42A-49C7-842E-99B3D4FBDAC0";
paths = (
{
closed = 1;
nodes = (
"563 0 LINE",
"563 288 LINE",
"1705 362 LINE",
"1705 750 LINE",
"123 750 LINE",
"123 0 LINE"
);
},
{
closed = 1;
nodes = (
"563 594 LINE",
"1265 594 LINE",
"1265 493 LINE",
"563 455 LINE"
);
}
);
width = 1750;
},
{
layerId = "6A003782-5630-46D5-9AEF-173A49B0B076";
paths = (
{
closed = 1;
nodes = (
"66 0 LINE",
"66 166 LINE",
"149 207 LINE",
"149 750 LINE",
"35 750 LINE",
"35 0 LINE"
);
},
{
closed = 1;
nodes = (
"66 728 LINE",
"118 728 LINE",
"118 220 LINE",
"66 196 LINE"
);
}
);
userData = {
com.schriftgestaltung.Glyphs.lastChange = "2019-04-28 05:35:59 +0000";
com.typemytype.robofont.pointLabels = {
1WCnzth1GX = (
rightside,
rightside,
shiftstem,
shiftdown,
rightside,
shiftstem
);
2c4LCF1E1R = (
rightside,
rightside,
shiftstem,
shiftdown,
rightside,
shiftstem
);
6xW04auDFu = (
rightside,
rightside,
shiftstem
);
EG08jqU5fb = (
leftside
);
IZIZQr2gYJ = (
rightside,
rightside,
shiftstem,
shiftdown,
rightside,
shiftstem
);
PIBVN1PGv1 = (
rightside,
rightside,
shiftstem,
shiftdown,
rightside,
shiftstem
);
Tt6D8zYZmU = (
rightside,
rightside,
shiftstem
);
eETO5GBD5v = (
leftside
);
};
};
width = 177;
},
{
layerId = "9EF6E879-D021-4626-8F52-6D74284C4DC7";
paths = (
{
closed = 1;
nodes = (
"98 0 LINE",
"98 175 LINE",
"1160 270 LINE",
"1160 750 LINE",
"56 750 LINE",
"56 0 LINE"
);
},
{
closed = 1;
nodes = (
"98 718 LINE",
"1118 718 LINE",
"1118 297 LINE",
"98 209 LINE"
);
}
);
width = 1190;
},
{
layerId = "FEE31BD6-05B9-4F93-BD72-F1214701600E";
paths = (
{
closed = 1;
nodes = (
"562 0 LINE",
"562 141 LINE",
"1704 235 LINE",
"1704 750 LINE",
"122 750 LINE",
"122 0 LINE"
);
},
{
closed = 1;
nodes = (
"562 594 LINE",
"1264 594 LINE",
"1264 358 LINE",
"562 303 LINE"
);
}
);
width = 1749;
},
{
layerId = "A421AE7B-D57F-4979-B16B-A2461F92FFEC";
paths = (
{
closed = 1;
nodes = (
"380 0 LINE",
"380 288 LINE",
"803 348 LINE",
"803 750 LINE",
"41 750 LINE",
"41 0 LINE"
);
},
{
closed = 1;
nodes = (
"380 653 LINE",
"464 653 LINE",
"464 420 LINE",
"380 411 LINE"
);
}
);
width = 824;
},
{
layerId = "1DE04BF9-788D-44CB-BAD3-AEB0D6A323B9";
paths = (
{
closed = 1;
nodes = (
"380 0 LINE",
"380 288 LINE",
"803 348 LINE",
"803 750 LINE",
"41 750 LINE",
"41 0 LINE"
);
},
{
closed = 1;
nodes = (
"380 653 LINE",
"464 653 LINE",
"464 420 LINE",
"380 411 LINE"
);
}
);
width = 824;
}
);
unicode = 0050;
},
{
glyphname = Q;
lastChange = "2019-09-10 12:18:56 +0000";
layers = (
{
layerId = "41E2CF60-9A62-485C-A680-66BBCCBE3685";
paths = (
{
closed = 1;
nodes = (
"1829 0 LINE",
"1829 750 LINE",
"281 750 LINE",
"59 406 LINE",
"59 0 LINE"
);
},
{
closed = 1;
nodes = (
"1288 -213 LINE",
"1179 60 LINE",
"773 60 LINE",
"880 -213 LINE"
);
},
{
closed = 1;
nodes = (
"499 353 LINE",
"639 594 LINE",
"1390 594 LINE",
"1390 156 LINE",
"499 156 LINE"
);
}
);
width = 1893;
},
{
layerId = "C9BA7AB2-4C39-4898-B0E1-23BE521DA8C1";
paths = (
{
closed = 1;
nodes = (
"1197 0 LINE",
"1197 750 LINE",
"179 750 LINE",
"56 591 LINE",
"56 0 LINE"
);
},
{
closed = 1;
nodes = (
"740 -180 LINE",
"646 10 LINE",
"609 10 LINE",
"700 -180 LINE"
);
},
{
closed = 1;
nodes = (
"98 582 LINE",
"206 718 LINE",
"1156 718 LINE",
"1156 32 LINE",
"98 32 LINE"
);
}
);
width = 1253;
},
{
layerId = "1577B97C-DCC5-4AA4-842F-E9BB22E99E3C";
paths = (
{
closed = 1;
nodes = (
"157 0 LINE",
"157 750 LINE",
"66 750 LINE",
"35 688 LINE",
"35 0 LINE"
);
},
{
closed = 1;
nodes = (
"146 -111 LINE",
"111 10 LINE",
"83 10 LINE",
"115 -111 LINE"
);
},
{
closed = 1;
nodes = (
"66 684 LINE",
"88 728 LINE",
"126 728 LINE",
"126 22 LINE",
"66 22 LINE"
);
}
);
userData = {
com.schriftgestaltung.Glyphs.lastChange = "2019-04-28 05:35:59 +0000";
com.typemytype.robofont.pointLabels = {
2q9VlGka1x = (
rightside,
rightside,
shiftstem,
shiftdown,
shiftdown
);
8lRHbc76vf = (
shiftdown
);
QaOuzaR5Nc = (
shiftdown
);
U6WibAQAUl = (
leftside
);
a4Ql951bxG = (
leftside
);
b9GvAVdrlf = (
shiftdown
);
bEeLKF9K0J = (
rightside,
rightside,
shiftstem,
shiftdown,
shiftdown
);
c9brEFyXXA = (
rightside,
rightside,
shiftstem,
shiftdown,
shiftdown
);
dfgNHTgBfR = (
rightside,
rightside,
shiftstem,
shiftdown,
shiftdown
);
gOQWswYvKT = (
leftside
);
ivebcmARlA = (
leftside
);
kbL68Qh2zr = (
leftside
);
};
};
width = 192;
},
{
layerId = "628C7BDB-7DBE-4EE3-879C-693AF95326D4";
paths = (
{
closed = 1;
nodes = (
"808 0 LINE",
"808 750 LINE",
"101 750 LINE",
"38 545 LINE",
"38 0 LINE"
);
},
{
closed = 1;
nodes = (
"558 -138 LINE",
"514 10 LINE",
"330 10 LINE",
"372 -138 LINE"
);
},
{
closed = 1;
nodes = (
"377 467 LINE",
"413 653 LINE",
"469 653 LINE",
"469 117 LINE",
"377 117 LINE"
);
}
);
width = 849;
},
{
layerId = "7F3C6EE5-2603-4259-9F13-C30BB9E194E1";
paths = (
{
closed = 1;
nodes = (
"157 0 LINE",
"157 750 LINE",
"66 750 LINE",
"35 688 LINE",
"35 0 LINE"
);
},
{
closed = 1;
nodes = (
"146 -111 LINE",
"111 10 LINE",
"83 10 LINE",
"115 -111 LINE"
);
},
{
closed = 1;
nodes = (
"66 684 LINE",
"88 728 LINE",
"126 728 LINE",
"126 22 LINE",
"66 22 LINE"
);
}
);
userData = {
com.schriftgestaltung.Glyphs.lastChange = "2019-04-28 05:35:59 +0000";
com.typemytype.robofont.pointLabels = {
2q9VlGka1x = (
rightside,
rightside,
shiftstem,
shiftdown,
shiftdown
);
8lRHbc76vf = (
shiftdown
);
QaOuzaR5Nc = (
shiftdown
);
U6WibAQAUl = (
leftside
);
a4Ql951bxG = (
leftside
);
b9GvAVdrlf = (
shiftdown
);
bEeLKF9K0J = (
rightside,
rightside,
shiftstem,
shiftdown,
shiftdown
);
c9brEFyXXA = (
rightside,
rightside,
shiftstem,
shiftdown,
shiftdown
);
dfgNHTgBfR = (
rightside,
rightside,
shiftstem,
shiftdown,
shiftdown
);
gOQWswYvKT = (
leftside
);
ivebcmARlA = (
leftside
);
kbL68Qh2zr = (
leftside
);
};
};
width = 192;
},
{
layerId = "7A9BD435-3083-4FB3-9FE1-50106B21C13B";
paths = (
{
closed = 1;
nodes = (
"1197 0 LINE",
"1197 750 LINE",
"179 750 LINE",
"56 591 LINE",
"56 0 LINE"
);
},
{
closed = 1;
nodes = (
"740 -180 LINE",
"646 10 LINE",
"609 10 LINE",
"700 -180 LINE"
);
},
{
closed = 1;
nodes = (
"98 582 LINE",
"206 718 LINE",
"1156 718 LINE",
"1156 32 LINE",
"98 32 LINE"
);
}
);
width = 1253;
},
{
layerId = "401C54E9-F42A-49C7-842E-99B3D4FBDAC0";
paths = (
{
closed = 1;
nodes = (
"1829 0 LINE",
"1829 750 LINE",
"281 750 LINE",
"59 406 LINE",
"59 0 LINE"
);
},
{
closed = 1;
nodes = (
"1288 -213 LINE",
"1179 60 LINE",
"773 60 LINE",
"880 -213 LINE"
);
},
{
closed = 1;
nodes = (
"499 353 LINE",
"639 594 LINE",
"1390 594 LINE",
"1390 156 LINE",
"499 156 LINE"
);
}
);
width = 1893;
},
{
layerId = "6A003782-5630-46D5-9AEF-173A49B0B076";
paths = (
{
closed = 1;
nodes = (
"157 0 LINE",
"157 750 LINE",
"66 750 LINE",
"35 688 LINE",
"35 0 LINE"
);
},
{
closed = 1;
nodes = (
"146 -111 LINE",
"111 10 LINE",
"83 10 LINE",
"115 -111 LINE"
);
},
{
closed = 1;
nodes = (
"66 684 LINE",
"88 728 LINE",
"126 728 LINE",
"126 22 LINE",
"66 22 LINE"
);
}
);
userData = {
com.schriftgestaltung.Glyphs.lastChange = "2019-04-28 05:35:59 +0000";
com.typemytype.robofont.pointLabels = {
2q9VlGka1x = (
rightside,
rightside,
shiftstem,
shiftdown,
shiftdown
);
8lRHbc76vf = (
shiftdown
);
QaOuzaR5Nc = (
shiftdown
);
U6WibAQAUl = (
leftside
);
a4Ql951bxG = (
leftside
);
b9GvAVdrlf = (
shiftdown
);
bEeLKF9K0J = (
rightside,
rightside,
shiftstem,
shiftdown,
shiftdown
);
c9brEFyXXA = (
rightside,
rightside,
shiftstem,
shiftdown,
shiftdown
);
dfgNHTgBfR = (
rightside,
rightside,
shiftstem,
shiftdown,
shiftdown
);
gOQWswYvKT = (
leftside
);
ivebcmARlA = (
leftside
);
kbL68Qh2zr = (
leftside
);
};
};
width = 192;
},
{
layerId = "9EF6E879-D021-4626-8F52-6D74284C4DC7";
paths = (
{
closed = 1;
nodes = (
"1197 0 LINE",
"1197 750 LINE",
"179 750 LINE",
"56 591 LINE",
"56 0 LINE"
);
},
{
closed = 1;
nodes = (
"740 -180 LINE",
"646 10 LINE",
"609 10 LINE",
"700 -180 LINE"
);
},
{
closed = 1;
nodes = (
"98 582 LINE",
"206 718 LINE",
"1156 718 LINE",
"1156 32 LINE",
"98 32 LINE"
);
}
);
width = 1253;
},
{
layerId = "FEE31BD6-05B9-4F93-BD72-F1214701600E";
paths = (
{
closed = 1;
nodes = (
"1829 0 LINE",
"1829 750 LINE",
"281 750 LINE",
"59 406 LINE",
"59 0 LINE"
);
},
{
closed = 1;
nodes = (
"1288 -213 LINE",
"1179 60 LINE",
"773 60 LINE",
"880 -213 LINE"
);
},
{
closed = 1;
nodes = (
"499 353 LINE",
"639 594 LINE",
"1390 594 LINE",
"1390 156 LINE",
"499 156 LINE"
);
}
);
width = 1893;
},
{
layerId = "A421AE7B-D57F-4979-B16B-A2461F92FFEC";
paths = (
{
closed = 1;
nodes = (
"808 0 LINE",
"808 750 LINE",
"101 750 LINE",
"38 545 LINE",
"38 0 LINE"
);
},
{
closed = 1;
nodes = (
"558 -138 LINE",
"514 10 LINE",
"330 10 LINE",
"372 -138 LINE"
);
},
{
closed = 1;
nodes = (
"377 467 LINE",
"413 653 LINE",
"469 653 LINE",
"469 117 LINE",
"377 117 LINE"
);
}
);
width = 849;
},
{
layerId = "1DE04BF9-788D-44CB-BAD3-AEB0D6A323B9";
paths = (
{
closed = 1;
nodes = (
"808 0 LINE",
"808 750 LINE",
"101 750 LINE",
"38 545 LINE",
"38 0 LINE"
);
},
{
closed = 1;
nodes = (
"558 -138 LINE",
"514 10 LINE",
"330 10 LINE",
"372 -138 LINE"
);
},
{
closed = 1;
nodes = (
"377 467 LINE",
"413 653 LINE",
"469 653 LINE",
"469 117 LINE",
"377 117 LINE"
);
}
);
width = 849;
}
);
unicode = 0051;
},
{
glyphname = R;
lastChange = "2019-09-10 12:18:56 +0000";
layers = (
{
layerId = "41E2CF60-9A62-485C-A680-66BBCCBE3685";
paths = (
{
closed = 1;
nodes = (
"504 0 LINE",
"504 268 LINE",
"1200 268 LINE",
"1391 222 LINE",
"1391 0 LINE",
"1830 0 LINE",
"1830 295 LINE",
"1552 353 LINE",
"1552 367 LINE",
"1805 438 LINE",
"1805 750 LINE",
"64 750 LINE",
"64 0 LINE"
);
},
{
closed = 1;
nodes = (
"504 594 LINE",
"1366 594 LINE",
"1366 481 LINE",
"1202 427 LINE",
"504 427 LINE"
);
}
);
width = 1861;
},
{
layerId = "C9BA7AB2-4C39-4898-B0E1-23BE521DA8C1";
paths = (
{
closed = 1;
nodes = (
"97 0 LINE",
"97 362 LINE",
"908 362 LINE",
"1152 264 LINE",
"1152 0 LINE",
"1193 0 LINE",
"1193 282 LINE",
"947 375 LINE",
"947 379 LINE",
"1164 461 LINE",
"1164 750 LINE",
"56 750 LINE",
"56 0 LINE"
);
},
{
closed = 1;
nodes = (
"97 718 LINE",
"1123 718 LINE",
"1123 474 LINE",
"902 392 LINE",
"97 392 LINE"
);
}
);
width = 1229;
},
{
layerId = "1577B97C-DCC5-4AA4-842F-E9BB22E99E3C";
paths = (
{
closed = 1;
nodes = (
"66 0 LINE",
"66 363 LINE",
"74 367 LINE",
"122 317 LINE",
"122 0 LINE",
"152 0 LINE",
"151 325 LINE",
"98 376 LINE",
"98 380 LINE",
"149 401 LINE",
"149 750 LINE",
"35 750 LINE",
"35 0 LINE"
);
},
{
closed = 1;
nodes = (
"66 728 LINE",
"118 728 LINE",
"118 413 LINE",
"69 390 LINE",
"66 390 LINE"
);
}
);
userData = {
com.schriftgestaltung.Glyphs.lastChange = "2019-04-28 05:35:59 +0000";
com.typemytype.robofont.pointLabels = {
2AKhSOaavW = (
crossbar
);
7iGA9EjrJP = (
crossbar
);
9fBpwr0c5A = (
leftside,
crossbar,
leftside,
crossbar,
crossbar,
shiftstem,
shiftdown,
crossbar,
crossbar,
shiftdown
);
CHVOARGKU2 = (
leftside,
crossbar,
leftside,
crossbar,
crossbar,
shiftstem,
shiftdown,
crossbar,
crossbar,
shiftdown
);
FKSRxBbMyE = (
crossbar
);
JkNiARIXMp = (
crossbar,
crossbar,
shiftdown
);
V9Ywxgiq2G = (
crossbar,
crossbar,
rightside
);
gNqIOGc9HF = (
crossbar,
crossbar,
rightside
);
itimCqoufa = (
leftside,
crossbar,
leftside,
crossbar,
crossbar,
shiftstem,
shiftdown,
crossbar,
crossbar,
shiftdown
);
j4s86nnkOj = (
crossbar,
crossbar,
shiftdown
);
jqqb8BKfoQ = (
leftside,
crossbar,
leftside,
crossbar,
crossbar,
shiftstem,
shiftdown,
crossbar,
crossbar,
shiftdown
);
nPfCo47fuL = (
crossbar,
crossbar,
rightside
);
pOaU6sS7pE = (
leftside,
crossbar,
leftside,
crossbar,
crossbar,
shiftstem,
shiftdown,
crossbar,
crossbar,
shiftdown
);
s4rDE72DYf = (
leftside,
crossbar,
leftside,
crossbar,
crossbar,
shiftstem,
shiftdown,
crossbar,
crossbar,
shiftdown
);
xAUivuY8OU = (
crossbar,
crossbar,
rightside
);
};
};
width = 184;
},
{
layerId = "628C7BDB-7DBE-4EE3-879C-693AF95326D4";
paths = (
{
closed = 1;
nodes = (
"380 0 LINE",
"380 328 LINE",
"496 328 LINE",
"548 304 LINE",
"548 0 LINE",
"886 0 LINE",
"885 324 LINE",
"742 371 LINE",
"742 383 LINE",
"882 404 LINE",
"882 750 LINE",
"41 750 LINE",
"41 0 LINE"
);
},
{
closed = 1;
nodes = (
"380 633 LINE",
"543 633 LINE",
"543 430 LINE",
"499 414 LINE",
"380 414 LINE"
);
}
);
width = 919;
},
{
layerId = "7F3C6EE5-2603-4259-9F13-C30BB9E194E1";
paths = (
{
closed = 1;
nodes = (
"66 0 LINE",
"66 460 LINE",
"74 464 LINE",
"122 414 LINE",
"122 0 LINE",
"152 0 LINE",
"151 422 LINE",
"98 473 LINE",
"98 477 LINE",
"149 498 LINE",
"149 750 LINE",
"35 750 LINE",
"35 0 LINE"
);
},
{
closed = 1;
nodes = (
"66 728 LINE",
"118 728 LINE",
"118 510 LINE",
"69 487 LINE",
"66 487 LINE"
);
}
);
userData = {
com.schriftgestaltung.Glyphs.lastChange = "2019-04-28 05:35:59 +0000";
com.typemytype.robofont.pointLabels = {
2AKhSOaavW = (
crossbar
);
7iGA9EjrJP = (
crossbar
);
9fBpwr0c5A = (
leftside,
crossbar,
leftside,
crossbar,
crossbar,
shiftstem,
shiftdown,
crossbar,
crossbar,
shiftdown
);
CHVOARGKU2 = (
leftside,
crossbar,
leftside,
crossbar,
crossbar,
shiftstem,
shiftdown,
crossbar,
crossbar,
shiftdown
);
FKSRxBbMyE = (
crossbar
);
JkNiARIXMp = (
crossbar,
crossbar,
shiftdown
);
V9Ywxgiq2G = (
crossbar,
crossbar,
rightside
);
gNqIOGc9HF = (
crossbar,
crossbar,
rightside
);
itimCqoufa = (
leftside,
crossbar,
leftside,
crossbar,
crossbar,
shiftstem,
shiftdown,
crossbar,
crossbar,
shiftdown
);
j4s86nnkOj = (
crossbar,
crossbar,
shiftdown
);
jqqb8BKfoQ = (
leftside,
crossbar,
leftside,
crossbar,
crossbar,
shiftstem,
shiftdown,
crossbar,
crossbar,
shiftdown
);
nPfCo47fuL = (
crossbar,
crossbar,
rightside
);
pOaU6sS7pE = (
leftside,
crossbar,
leftside,
crossbar,
crossbar,
shiftstem,
shiftdown,
crossbar,
crossbar,
shiftdown
);
s4rDE72DYf = (
leftside,
crossbar,
leftside,
crossbar,
crossbar,
shiftstem,
shiftdown,
crossbar,
crossbar,
shiftdown
);
xAUivuY8OU = (
crossbar,
crossbar,
rightside
);
};
};
width = 184;
},
{
layerId = "7A9BD435-3083-4FB3-9FE1-50106B21C13B";
paths = (
{
closed = 1;
nodes = (
"97 0 LINE",
"97 464 LINE",
"908 464 LINE",
"1152 366 LINE",
"1152 0 LINE",
"1193 0 LINE",
"1193 384 LINE",
"947 477 LINE",
"947 481 LINE",
"1164 563 LINE",
"1164 750 LINE",
"56 750 LINE",
"56 0 LINE"
);
},
{
closed = 1;
nodes = (
"97 718 LINE",
"1123 718 LINE",
"1123 576 LINE",
"902 494 LINE",
"97 494 LINE"
);
}
);
width = 1229;
},
{
layerId = "401C54E9-F42A-49C7-842E-99B3D4FBDAC0";
paths = (
{
closed = 1;
nodes = (
"504 0 LINE",
"504 328 LINE",
"1160 328 LINE",
"1391 252 LINE",
"1391 0 LINE",
"1830 0 LINE",
"1830 334 LINE",
"1523 421 LINE",
"1523 435 LINE",
"1805 507 LINE",
"1805 750 LINE",
"64 750 LINE",
"64 0 LINE"
);
},
{
closed = 1;
nodes = (
"504 594 LINE",
"1366 594 LINE",
"1366 521 LINE",
"1321 487 LINE",
"504 487 LINE"
);
}
);
width = 1861;
},
{
layerId = "6A003782-5630-46D5-9AEF-173A49B0B076";
paths = (
{
closed = 1;
nodes = (
"66 0 LINE",
"66 253 LINE",
"74 257 LINE",
"122 207 LINE",
"122 0 LINE",
"152 0 LINE",
"151 215 LINE",
"98 266 LINE",
"98 270 LINE",
"149 291 LINE",
"149 750 LINE",
"35 750 LINE",
"35 0 LINE"
);
},
{
closed = 1;
nodes = (
"66 728 LINE",
"118 728 LINE",
"118 303 LINE",
"69 280 LINE",
"66 280 LINE"
);
}
);
userData = {
com.schriftgestaltung.Glyphs.lastChange = "2019-04-28 05:35:59 +0000";
com.typemytype.robofont.pointLabels = {
2AKhSOaavW = (
crossbar
);
7iGA9EjrJP = (
crossbar
);
9fBpwr0c5A = (
leftside,
crossbar,
leftside,
crossbar,
crossbar,
shiftstem,
shiftdown,
crossbar,
crossbar,
shiftdown
);
CHVOARGKU2 = (
leftside,
crossbar,
leftside,
crossbar,
crossbar,
shiftstem,
shiftdown,
crossbar,
crossbar,
shiftdown
);
FKSRxBbMyE = (
crossbar
);
JkNiARIXMp = (
crossbar,
crossbar,
shiftdown
);
V9Ywxgiq2G = (
crossbar,
crossbar,
rightside
);
gNqIOGc9HF = (
crossbar,
crossbar,
rightside
);
itimCqoufa = (
leftside,
crossbar,
leftside,
crossbar,
crossbar,
shiftstem,
shiftdown,
crossbar,
crossbar,
shiftdown
);
j4s86nnkOj = (
crossbar,
crossbar,
shiftdown
);
jqqb8BKfoQ = (
leftside,
crossbar,
leftside,
crossbar,
crossbar,
shiftstem,
shiftdown,
crossbar,
crossbar,
shiftdown
);
nPfCo47fuL = (
crossbar,
crossbar,
rightside
);
pOaU6sS7pE = (
leftside,
crossbar,
leftside,
crossbar,
crossbar,
shiftstem,
shiftdown,
crossbar,
crossbar,
shiftdown
);
s4rDE72DYf = (
leftside,
crossbar,
leftside,
crossbar,
crossbar,
shiftstem,
shiftdown,
crossbar,
crossbar,
shiftdown
);
xAUivuY8OU = (
crossbar,
crossbar,
rightside
);
};
};
width = 184;
},
{
layerId = "9EF6E879-D021-4626-8F52-6D74284C4DC7";
paths = (
{
closed = 1;
nodes = (
"97 0 LINE",
"97 229 LINE",
"899 229 LINE",
"1152 131 LINE",
"1152 0 LINE",
"1193 0 LINE",
"1193 149 LINE",
"947 243 LINE",
"947 247 LINE",
"1175 328 LINE",
"1175 750 LINE",
"56 750 LINE",
"56 0 LINE"
);
},
{
closed = 1;
nodes = (
"97 718 LINE",
"1134 718 LINE",
"1134 341 LINE",
"893 259 LINE",
"97 259 LINE"
);
}
);
width = 1229;
},
{
layerId = "FEE31BD6-05B9-4F93-BD72-F1214701600E";
paths = (
{
closed = 1;
nodes = (
"504 0 LINE",
"504 169 LINE",
"1260 169 LINE",
"1391 169 LINE",
"1391 0 LINE",
"1830 0 LINE",
"1830 197 LINE",
"1533 248 LINE",
"1533 254 LINE",
"1805 336 LINE",
"1805 750 LINE",
"64 750 LINE",
"64 0 LINE"
);
},
{
closed = 1;
nodes = (
"504 594 LINE",
"1366 594 LINE",
"1366 362 LINE",
"1268 325 LINE",
"504 325 LINE"
);
}
);
width = 1861;
},
{
layerId = "A421AE7B-D57F-4979-B16B-A2461F92FFEC";
paths = (
{
closed = 1;
nodes = (
"380 0 LINE",
"380 328 LINE",
"496 328 LINE",
"548 304 LINE",
"548 0 LINE",
"886 0 LINE",
"885 324 LINE",
"742 371 LINE",
"742 383 LINE",
"882 404 LINE",
"882 750 LINE",
"41 750 LINE",
"41 0 LINE"
);
},
{
closed = 1;
nodes = (
"380 633 LINE",
"543 633 LINE",
"543 430 LINE",
"499 414 LINE",
"380 414 LINE"
);
}
);
width = 919;
},
{
layerId = "1DE04BF9-788D-44CB-BAD3-AEB0D6A323B9";
paths = (
{
closed = 1;
nodes = (
"380 0 LINE",
"380 328 LINE",
"496 328 LINE",
"548 304 LINE",
"548 0 LINE",
"886 0 LINE",
"885 324 LINE",
"742 371 LINE",
"742 383 LINE",
"882 404 LINE",
"882 750 LINE",
"41 750 LINE",
"41 0 LINE"
);
},
{
closed = 1;
nodes = (
"380 633 LINE",
"543 633 LINE",
"543 430 LINE",
"499 414 LINE",
"380 414 LINE"
);
}
);
width = 919;
}
);
unicode = 0052;
},
{
glyphname = S;
lastChange = "2019-09-10 12:24:40 +0000";
layers = (
{
layerId = "41E2CF60-9A62-485C-A680-66BBCCBE3685";
paths = (
{
closed = 1;
nodes = (
"1552 0 LINE",
"1552 431 LINE",
"481 431 LINE",
"481 431 LINE",
"625 592 LINE",
"1535 592 LINE",
"1535 750 LINE",
"265 750 LINE",
"41 472 LINE",
"41 285 LINE",
"1112 285 LINE",
"1112 163 LINE",
"43 163 LINE",
"43 0 LINE"
);
}
);
width = 1592;
},
{
layerId = "C9BA7AB2-4C39-4898-B0E1-23BE521DA8C1";
paths = (
{
closed = 1;
nodes = (
"1100 0 LINE",
"1100 390 LINE",
"97 390 LINE",
"97 589 LINE",
"199 717 LINE",
"1089 717 LINE",
"1089 750 LINE",
"175 750 LINE",
"56 598 LINE",
"56 358 LINE",
"1058 358 LINE",
"1058 33 LINE",
"58 33 LINE",
"58 0 LINE"
);
}
);
width = 1133;
},
{
layerId = "1577B97C-DCC5-4AA4-842F-E9BB22E99E3C";
paths = (
{
closed = 1;
nodes = (
"132 0 LINE",
"132 355 LINE",
"51 403 LINE",
"51 665 LINE",
"74 728 LINE",
"132 728 LINE",
"132 750 LINE",
"50 750 LINE",
"20 666 LINE",
"20 391 LINE",
"101 343 LINE",
"101 22 LINE",
"22 22 LINE",
"22 0 LINE"
);
}
);
width = 152;
},
{
annotations = (
{
position = "{361, 385}";
type = Arrow;
},
{
position = "{516.334, 345.411}";
type = Arrow;
},
{
position = "{603, 788}";
type = Arrow;
},
{
position = "{1044, -232}";
type = Arrow;
}
);
layerId = "628C7BDB-7DBE-4EE3-879C-693AF95326D4";
paths = (
{
closed = 1;
nodes = (
"680 0 LINE",
"680 427 LINE",
"330 427 LINE",
"330 509 LINE",
"368 604 LINE",
"669 604 LINE",
"669 750 LINE",
"96 750 LINE",
"11 545 LINE",
"11 281 LINE",
"361 281 LINE",
"361 146 LINE",
"11 146 LINE",
"11 0 LINE"
);
}
);
width = 711;
},
{
layerId = "401C54E9-F42A-49C7-842E-99B3D4FBDAC0";
paths = (
{
closed = 1;
nodes = (
"1552 0 LINE",
"1552 480 LINE",
"481 480 LINE",
"481 491 LINE",
"584 592 LINE",
"1535 592 LINE",
"1535 750 LINE",
"265 750 LINE",
"41 542 LINE",
"41 334 LINE",
"1112 334 LINE",
"1112 163 LINE",
"43 163 LINE",
"43 0 LINE"
);
}
);
width = 1592;
},
{
layerId = "7A9BD435-3083-4FB3-9FE1-50106B21C13B";
paths = (
{
closed = 1;
nodes = (
"1100 0 LINE",
"1100 488 LINE",
"97 488 LINE",
"97 589 LINE",
"199 717 LINE",
"1089 717 LINE",
"1089 750 LINE",
"175 750 LINE",
"56 598 LINE",
"56 456 LINE",
"1058 456 LINE",
"1058 33 LINE",
"58 33 LINE",
"58 0 LINE"
);
}
);
width = 1133;
},
{
layerId = "7F3C6EE5-2603-4259-9F13-C30BB9E194E1";
paths = (
{
closed = 1;
nodes = (
"132 0 LINE",
"132 459 LINE",
"51 507 LINE",
"51 665 LINE",
"72 728 LINE",
"132 728 LINE",
"132 750 LINE",
"50 750 LINE",
"20 666 LINE",
"20 498 LINE",
"101 450 LINE",
"101 22 LINE",
"22 22 LINE",
"22 0 LINE"
);
}
);
width = 164;
},
{
layerId = "FEE31BD6-05B9-4F93-BD72-F1214701600E";
paths = (
{
closed = 1;
nodes = (
"1552 0 LINE",
"1552 380 LINE",
"481 380 LINE",
"481 431 LINE",
"619 592 LINE",
"1535 592 LINE",
"1535 750 LINE",
"265 750 LINE",
"41 472 LINE",
"41 234 LINE",
"1112 234 LINE",
"1112 163 LINE",
"43 163 LINE",
"43 0 LINE"
);
}
);
width = 1592;
},
{
layerId = "9EF6E879-D021-4626-8F52-6D74284C4DC7";
paths = (
{
closed = 1;
nodes = (
"1170 0 LINE",
"1170 282 LINE",
"97 282 LINE",
"97 589 LINE",
"199 717 LINE",
"1159 717 LINE",
"1159 750 LINE",
"175 750 LINE",
"56 598 LINE",
"56 250 LINE",
"1128 250 LINE",
"1128 33 LINE",
"58 33 LINE",
"58 0 LINE"
);
}
);
width = 1223;
},
{
layerId = "6A003782-5630-46D5-9AEF-173A49B0B076";
paths = (
{
closed = 1;
nodes = (
"132 0 LINE",
"132 215 LINE",
"51 263 LINE",
"51 665 LINE",
"72 723 LINE",
"132 723 LINE",
"132 750 LINE",
"50 750 LINE",
"20 666 LINE",
"20 254 LINE",
"101 206 LINE",
"101 22 LINE",
"22 22 LINE",
"22 0 LINE"
);
}
);
width = 152;
},
{
annotations = (
{
position = "{361, 385}";
type = Arrow;
},
{
position = "{516.334, 345.411}";
type = Arrow;
},
{
position = "{603, 788}";
type = Arrow;
},
{
position = "{1044, -232}";
type = Arrow;
}
);
layerId = "A421AE7B-D57F-4979-B16B-A2461F92FFEC";
paths = (
{
closed = 1;
nodes = (
"680 0 LINE",
"680 427 LINE",
"330 427 LINE",
"330 509 LINE",
"368 604 LINE",
"669 604 LINE",
"669 750 LINE",
"96 750 LINE",
"11 545 LINE",
"11 281 LINE",
"361 281 LINE",
"361 146 LINE",
"11 146 LINE",
"11 0 LINE"
);
}
);
width = 711;
},
{
annotations = (
{
position = "{361, 385}";
type = Arrow;
},
{
position = "{516.334, 345.411}";
type = Arrow;
},
{
position = "{603, 788}";
type = Arrow;
},
{
position = "{1044, -232}";
type = Arrow;
}
);
layerId = "1DE04BF9-788D-44CB-BAD3-AEB0D6A323B9";
paths = (
{
closed = 1;
nodes = (
"680 0 LINE",
"680 427 LINE",
"330 427 LINE",
"330 509 LINE",
"368 604 LINE",
"669 604 LINE",
"669 750 LINE",
"96 750 LINE",
"11 545 LINE",
"11 281 LINE",
"361 281 LINE",
"361 146 LINE",
"11 146 LINE",
"11 0 LINE"
);
}
);
width = 711;
}
);
unicode = 0053;
},
{
glyphname = T;
lastChange = "2019-09-10 12:18:56 +0000";
layers = (
{
layerId = "41E2CF60-9A62-485C-A680-66BBCCBE3685";
paths = (
{
closed = 1;
nodes = (
"999 0 LINE",
"999 577 LINE",
"1549 577 LINE",
"1549 750 LINE",
"9 750 LINE",
"9 577 LINE",
"559 577 LINE",
"559 0 LINE"
);
}
);
width = 1558;
},
{
layerId = "C9BA7AB2-4C39-4898-B0E1-23BE521DA8C1";
paths = (
{
closed = 1;
nodes = (
"612 0 LINE",
"612 719 LINE",
"1146 719 LINE",
"1146 750 LINE",
"36 750 LINE",
"36 719 LINE",
"571 719 LINE",
"571 0 LINE"
);
}
);
width = 1182;
},
{
layerId = "1577B97C-DCC5-4AA4-842F-E9BB22E99E3C";
paths = (
{
closed = 1;
nodes = (
"114 0 LINE",
"114 728 LINE",
"183 728 LINE",
"183 750 LINE",
"13 750 LINE",
"13 728 LINE",
"83 728 LINE",
"83 0 LINE"
);
}
);
width = 196;
},
{
layerId = "628C7BDB-7DBE-4EE3-879C-693AF95326D4";
paths = (
{
closed = 1;
nodes = (
"554 0 LINE",
"554 604 LINE",
"753 604 LINE",
"753 750 LINE",
"16 750 LINE",
"16 604 LINE",
"215 604 LINE",
"215 0 LINE"
);
}
);
width = 769;
},
{
layerId = "401C54E9-F42A-49C7-842E-99B3D4FBDAC0";
paths = (
{
closed = 1;
nodes = (
"999 0 LINE",
"999 577 LINE",
"1549 577 LINE",
"1549 750 LINE",
"9 750 LINE",
"9 577 LINE",
"559 577 LINE",
"559 0 LINE"
);
}
);
width = 1558;
},
{
layerId = "7A9BD435-3083-4FB3-9FE1-50106B21C13B";
paths = (
{
closed = 1;
nodes = (
"612 0 LINE",
"612 719 LINE",
"1146 719 LINE",
"1146 750 LINE",
"36 750 LINE",
"36 719 LINE",
"571 719 LINE",
"571 0 LINE"
);
}
);
width = 1182;
},
{
layerId = "7F3C6EE5-2603-4259-9F13-C30BB9E194E1";
paths = (
{
closed = 1;
nodes = (
"114 0 LINE",
"114 728 LINE",
"183 728 LINE",
"183 750 LINE",
"13 750 LINE",
"13 728 LINE",
"83 728 LINE",
"83 0 LINE"
);
}
);
width = 196;
},
{
layerId = "FEE31BD6-05B9-4F93-BD72-F1214701600E";
paths = (
{
closed = 1;
nodes = (
"999 0 LINE",
"999 577 LINE",
"1549 577 LINE",
"1549 750 LINE",
"9 750 LINE",
"9 577 LINE",
"559 577 LINE",
"559 0 LINE"
);
}
);
width = 1558;
},
{
layerId = "9EF6E879-D021-4626-8F52-6D74284C4DC7";
paths = (
{
closed = 1;
nodes = (
"612 0 LINE",
"612 719 LINE",
"1146 719 LINE",
"1146 750 LINE",
"36 750 LINE",
"36 719 LINE",
"571 719 LINE",
"571 0 LINE"
);
}
);
width = 1182;
},
{
layerId = "6A003782-5630-46D5-9AEF-173A49B0B076";
paths = (
{
closed = 1;
nodes = (
"114 0 LINE",
"114 728 LINE",
"183 728 LINE",
"183 750 LINE",
"13 750 LINE",
"13 728 LINE",
"83 728 LINE",
"83 0 LINE"
);
}
);
width = 196;
},
{
layerId = "A421AE7B-D57F-4979-B16B-A2461F92FFEC";
paths = (
{
closed = 1;
nodes = (
"554 0 LINE",
"554 604 LINE",
"753 604 LINE",
"753 750 LINE",
"16 750 LINE",
"16 604 LINE",
"215 604 LINE",
"215 0 LINE"
);
}
);
width = 769;
},
{
layerId = "1DE04BF9-788D-44CB-BAD3-AEB0D6A323B9";
paths = (
{
closed = 1;
nodes = (
"554 0 LINE",
"554 604 LINE",
"753 604 LINE",
"753 750 LINE",
"16 750 LINE",
"16 604 LINE",
"215 604 LINE",
"215 0 LINE"
);
}
);
width = 769;
}
);
unicode = 0054;
},
{
glyphname = U;
lastChange = "2019-09-10 12:18:56 +0000";
layers = (
{
layerId = "41E2CF60-9A62-485C-A680-66BBCCBE3685";
paths = (
{
closed = 1;
nodes = (
"1726 750 LINE",
"1286 750 LINE",
"1286 159 LINE",
"702 159 LINE",
"488 311 LINE",
"488 750 LINE",
"48 750 LINE",
"48 253 LINE",
"402 0 LINE",
"1726 0 LINE"
);
}
);
width = 1790;
},
{
layerId = "C9BA7AB2-4C39-4898-B0E1-23BE521DA8C1";
paths = (
{
closed = 1;
nodes = (
"1190 750 LINE",
"1149 750 LINE",
"1149 32 LINE",
"347 32 LINE",
"93 280 LINE",
"93 750 LINE",
"52 750 LINE",
"52 271 LINE",
"329 0 LINE",
"1190 0 LINE"
);
}
);
width = 1246;
},
{
layerId = "1577B97C-DCC5-4AA4-842F-E9BB22E99E3C";
paths = (
{
closed = 1;
nodes = (
"150 750 LINE",
"119 750 LINE",
"119 22 LINE",
"105 22 LINE",
"62 140 LINE",
"62 750 LINE",
"31 750 LINE",
"31 140 LINE",
"81 0 LINE",
"150 0 LINE"
);
}
);
userData = {
com.schriftgestaltung.Glyphs.lastChange = "2019-04-28 05:35:59 +0000";
com.typemytype.robofont.Image.Brightness = 0;
com.typemytype.robofont.Image.Contrast = 1;
com.typemytype.robofont.Image.Saturation = 1;
com.typemytype.robofont.Image.Sharpness = 0.4;
com.typemytype.robofont.pointLabels = {
0AMThVeMS0 = (
shiftdown
);
3RJ5FutEdf = (
rightside,
rightside,
shiftdown,
shiftstem
);
81x99bMb8l = (
leftside
);
AHESs8qbK6 = (
rightside,
rightside,
shiftdown,
shiftstem
);
C21sU3C9xU = (
rightside,
rightside,
shiftdown,
shiftstem
);
D26bibzcxg = (
rightside,
rightside,
shiftdown,
shiftstem
);
EobYxVYK8X = (
shiftdown
);
Vioa9H5KKP = (
leftside
);
WLWbT8rdKe = (
leftside
);
};
};
width = 185;
},
{
layerId = "628C7BDB-7DBE-4EE3-879C-693AF95326D4";
paths = (
{
closed = 1;
nodes = (
"905 750 LINE",
"566 750 LINE",
"566 102 LINE",
"418 102 LINE",
"377 256 LINE",
"377 750 LINE",
"38 750 LINE",
"38 215 LINE",
"115 0 LINE",
"905 0 LINE"
);
}
);
width = 946;
},
{
layerId = "7F3C6EE5-2603-4259-9F13-C30BB9E194E1";
paths = (
{
closed = 1;
nodes = (
"150 750 LINE",
"119 750 LINE",
"119 22 LINE",
"105 22 LINE",
"62 140 LINE",
"62 750 LINE",
"31 750 LINE",
"31 140 LINE",
"81 0 LINE",
"150 0 LINE"
);
}
);
userData = {
com.schriftgestaltung.Glyphs.lastChange = "2019-04-28 05:35:59 +0000";
com.typemytype.robofont.Image.Brightness = 0;
com.typemytype.robofont.Image.Contrast = 1;
com.typemytype.robofont.Image.Saturation = 1;
com.typemytype.robofont.Image.Sharpness = 0.4;
com.typemytype.robofont.pointLabels = {
0AMThVeMS0 = (
shiftdown
);
3RJ5FutEdf = (
rightside,
rightside,
shiftdown,
shiftstem
);
81x99bMb8l = (
leftside
);
AHESs8qbK6 = (
rightside,
rightside,
shiftdown,
shiftstem
);
C21sU3C9xU = (
rightside,
rightside,
shiftdown,
shiftstem
);
D26bibzcxg = (
rightside,
rightside,
shiftdown,
shiftstem
);
EobYxVYK8X = (
shiftdown
);
Vioa9H5KKP = (
leftside
);
WLWbT8rdKe = (
leftside
);
};
};
width = 185;
},
{
layerId = "7A9BD435-3083-4FB3-9FE1-50106B21C13B";
paths = (
{
closed = 1;
nodes = (
"1190 750 LINE",
"1149 750 LINE",
"1149 32 LINE",
"347 32 LINE",
"93 280 LINE",
"93 750 LINE",
"52 750 LINE",
"52 271 LINE",
"329 0 LINE",
"1190 0 LINE"
);
}
);
width = 1246;
},
{
layerId = "401C54E9-F42A-49C7-842E-99B3D4FBDAC0";
paths = (
{
closed = 1;
nodes = (
"1726 750 LINE",
"1286 750 LINE",
"1286 159 LINE",
"702 159 LINE",
"488 311 LINE",
"488 750 LINE",
"48 750 LINE",
"48 253 LINE",
"402 0 LINE",
"1726 0 LINE"
);
}
);
width = 1790;
},
{
layerId = "6A003782-5630-46D5-9AEF-173A49B0B076";
paths = (
{
closed = 1;
nodes = (
"150 750 LINE",
"119 750 LINE",
"119 22 LINE",
"105 22 LINE",
"62 140 LINE",
"62 750 LINE",
"31 750 LINE",
"31 140 LINE",
"81 0 LINE",
"150 0 LINE"
);
}
);
userData = {
com.schriftgestaltung.Glyphs.lastChange = "2019-04-28 05:35:59 +0000";
com.typemytype.robofont.Image.Brightness = 0;
com.typemytype.robofont.Image.Contrast = 1;
com.typemytype.robofont.Image.Saturation = 1;
com.typemytype.robofont.Image.Sharpness = 0.4;
com.typemytype.robofont.pointLabels = {
0AMThVeMS0 = (
shiftdown
);
3RJ5FutEdf = (
rightside,
rightside,
shiftdown,
shiftstem
);
81x99bMb8l = (
leftside
);
AHESs8qbK6 = (
rightside,
rightside,
shiftdown,
shiftstem
);
C21sU3C9xU = (
rightside,
rightside,
shiftdown,
shiftstem
);
D26bibzcxg = (
rightside,
rightside,
shiftdown,
shiftstem
);
EobYxVYK8X = (
shiftdown
);
Vioa9H5KKP = (
leftside
);
WLWbT8rdKe = (
leftside
);
};
};
width = 185;
},
{
layerId = "9EF6E879-D021-4626-8F52-6D74284C4DC7";
paths = (
{
closed = 1;
nodes = (
"1190 750 LINE",
"1149 750 LINE",
"1149 32 LINE",
"347 32 LINE",
"93 280 LINE",
"93 750 LINE",
"52 750 LINE",
"52 271 LINE",
"329 0 LINE",
"1190 0 LINE"
);
}
);
width = 1246;
},
{
layerId = "FEE31BD6-05B9-4F93-BD72-F1214701600E";
paths = (
{
closed = 1;
nodes = (
"1726 750 LINE",
"1286 750 LINE",
"1286 159 LINE",
"702 159 LINE",
"488 311 LINE",
"488 750 LINE",
"48 750 LINE",
"48 253 LINE",
"402 0 LINE",
"1726 0 LINE"
);
}
);
width = 1790;
},
{
layerId = "A421AE7B-D57F-4979-B16B-A2461F92FFEC";
paths = (
{
closed = 1;
nodes = (
"905 750 LINE",
"566 750 LINE",
"566 102 LINE",
"418 102 LINE",
"377 256 LINE",
"377 750 LINE",
"38 750 LINE",
"38 215 LINE",
"115 0 LINE",
"905 0 LINE"
);
}
);
width = 946;
},
{
layerId = "1DE04BF9-788D-44CB-BAD3-AEB0D6A323B9";
paths = (
{
closed = 1;
nodes = (
"905 750 LINE",
"566 750 LINE",
"566 102 LINE",
"418 102 LINE",
"377 256 LINE",
"377 750 LINE",
"38 750 LINE",
"38 215 LINE",
"115 0 LINE",
"905 0 LINE"
);
}
);
width = 946;
}
);
unicode = 0055;
},
{
glyphname = V;
lastChange = "2019-09-10 12:18:56 +0000";
layers = (
{
layerId = "41E2CF60-9A62-485C-A680-66BBCCBE3685";
paths = (
{
closed = 1;
nodes = (
"1397 0 LINE",
"1741 226 LINE",
"1741 750 LINE",
"1302 750 LINE",
"1302 293 LINE",
"1072 159 LINE",
"504 159 LINE",
"504 750 LINE",
"64 750 LINE",
"64 0 LINE"
);
}
);
width = 1789;
},
{
layerId = "C9BA7AB2-4C39-4898-B0E1-23BE521DA8C1";
paths = (
{
closed = 1;
nodes = (
"919 0 LINE",
"1196 270 LINE",
"1196 750 LINE",
"1154 750 LINE",
"1154 279 LINE",
"901 32 LINE",
"99 32 LINE",
"99 750 LINE",
"57 750 LINE",
"57 0 LINE"
);
}
);
width = 1249;
},
{
layerId = "1577B97C-DCC5-4AA4-842F-E9BB22E99E3C";
paths = (
{
closed = 1;
nodes = (
"104 0 LINE",
"154 140 LINE",
"154 750 LINE",
"123 750 LINE",
"123 140 LINE",
"80 22 LINE",
"66 22 LINE",
"66 750 LINE",
"35 750 LINE",
"35 0 LINE"
);
}
);
userData = {
com.schriftgestaltung.Glyphs.lastChange = "2019-04-28 05:35:59 +0000";
com.typemytype.robofont.pointLabels = {
8JVlgiKN0E = (
rightside,
rightside,
rightside,
shiftstem
);
8xHrkJVycg = (
rightside,
rightside,
shiftdown,
rightside,
shiftstem,
rightside,
rightside,
rightside,
shiftstem
);
AEzhRP9eLc = (
rightside,
rightside,
shiftdown,
rightside,
shiftstem,
rightside,
rightside,
rightside,
shiftstem
);
DS3ZS4pH1O = (
leftside
);
KWypNhzDNy = (
rightside,
rightside,
rightside,
shiftstem
);
QlTGYhLSOg = (
rightside,
rightside,
rightside,
shiftstem
);
d1tzrvftiK = (
rightside,
rightside,
rightside,
shiftstem
);
gP37W9ybnh = (
leftside
);
zRVv4zqHV4 = (
rightside,
rightside,
shiftdown,
rightside,
shiftstem,
rightside,
rightside,
rightside,
shiftstem
);
};
};
width = 185;
},
{
layerId = "628C7BDB-7DBE-4EE3-879C-693AF95326D4";
paths = (
{
closed = 1;
nodes = (
"850 0 LINE",
"908 143 LINE",
"908 750 LINE",
"569 750 LINE",
"569 202 LINE",
"529 102 LINE",
"380 102 LINE",
"380 750 LINE",
"41 750 LINE",
"41 0 LINE"
);
}
);
width = 946;
},
{
layerId = "7F3C6EE5-2603-4259-9F13-C30BB9E194E1";
paths = (
{
closed = 1;
nodes = (
"104 0 LINE",
"154 140 LINE",
"154 750 LINE",
"123 750 LINE",
"123 140 LINE",
"80 22 LINE",
"66 22 LINE",
"66 750 LINE",
"35 750 LINE",
"35 0 LINE"
);
}
);
userData = {
com.schriftgestaltung.Glyphs.lastChange = "2019-04-28 05:35:59 +0000";
com.typemytype.robofont.pointLabels = {
8JVlgiKN0E = (
rightside,
rightside,
rightside,
shiftstem
);
8xHrkJVycg = (
rightside,
rightside,
shiftdown,
rightside,
shiftstem,
rightside,
rightside,
rightside,
shiftstem
);
AEzhRP9eLc = (
rightside,
rightside,
shiftdown,
rightside,
shiftstem,
rightside,
rightside,
rightside,
shiftstem
);
DS3ZS4pH1O = (
leftside
);
KWypNhzDNy = (
rightside,
rightside,
rightside,
shiftstem
);
QlTGYhLSOg = (
rightside,
rightside,
rightside,
shiftstem
);
d1tzrvftiK = (
rightside,
rightside,
rightside,
shiftstem
);
gP37W9ybnh = (
leftside
);
zRVv4zqHV4 = (
rightside,
rightside,
shiftdown,
rightside,
shiftstem,
rightside,
rightside,
rightside,
shiftstem
);
};
};
width = 185;
},
{
layerId = "7A9BD435-3083-4FB3-9FE1-50106B21C13B";
paths = (
{
closed = 1;
nodes = (
"919 0 LINE",
"1196 270 LINE",
"1196 750 LINE",
"1154 750 LINE",
"1154 279 LINE",
"901 32 LINE",
"99 32 LINE",
"99 750 LINE",
"57 750 LINE",
"57 0 LINE"
);
}
);
width = 1249;
},
{
layerId = "401C54E9-F42A-49C7-842E-99B3D4FBDAC0";
paths = (
{
closed = 1;
nodes = (
"1397 0 LINE",
"1741 226 LINE",
"1741 750 LINE",
"1302 750 LINE",
"1302 293 LINE",
"1072 159 LINE",
"504 159 LINE",
"504 750 LINE",
"64 750 LINE",
"64 0 LINE"
);
}
);
width = 1789;
},
{
layerId = "6A003782-5630-46D5-9AEF-173A49B0B076";
paths = (
{
closed = 1;
nodes = (
"104 0 LINE",
"154 140 LINE",
"154 750 LINE",
"123 750 LINE",
"123 140 LINE",
"80 22 LINE",
"66 22 LINE",
"66 750 LINE",
"35 750 LINE",
"35 0 LINE"
);
}
);
userData = {
com.schriftgestaltung.Glyphs.lastChange = "2019-04-28 05:35:59 +0000";
com.typemytype.robofont.pointLabels = {
8JVlgiKN0E = (
rightside,
rightside,
rightside,
shiftstem
);
8xHrkJVycg = (
rightside,
rightside,
shiftdown,
rightside,
shiftstem,
rightside,
rightside,
rightside,
shiftstem
);
AEzhRP9eLc = (
rightside,
rightside,
shiftdown,
rightside,
shiftstem,
rightside,
rightside,
rightside,
shiftstem
);
DS3ZS4pH1O = (
leftside
);
KWypNhzDNy = (
rightside,
rightside,
rightside,
shiftstem
);
QlTGYhLSOg = (
rightside,
rightside,
rightside,
shiftstem
);
d1tzrvftiK = (
rightside,
rightside,
rightside,
shiftstem
);
gP37W9ybnh = (
leftside
);
zRVv4zqHV4 = (
rightside,
rightside,
shiftdown,
rightside,
shiftstem,
rightside,
rightside,
rightside,
shiftstem
);
};
};
width = 185;
},
{
layerId = "9EF6E879-D021-4626-8F52-6D74284C4DC7";
paths = (
{
closed = 1;
nodes = (
"919 0 LINE",
"1196 270 LINE",
"1196 750 LINE",
"1154 750 LINE",
"1154 279 LINE",
"901 32 LINE",
"99 32 LINE",
"99 750 LINE",
"57 750 LINE",
"57 0 LINE"
);
}
);
width = 1249;
},
{
layerId = "FEE31BD6-05B9-4F93-BD72-F1214701600E";
paths = (
{
closed = 1;
nodes = (
"1397 0 LINE",
"1741 226 LINE",
"1741 750 LINE",
"1302 750 LINE",
"1302 293 LINE",
"1072 159 LINE",
"504 159 LINE",
"504 750 LINE",
"64 750 LINE",
"64 0 LINE"
);
}
);
width = 1789;
},
{
layerId = "A421AE7B-D57F-4979-B16B-A2461F92FFEC";
paths = (
{
closed = 1;
nodes = (
"850 0 LINE",
"908 143 LINE",
"908 750 LINE",
"569 750 LINE",
"569 202 LINE",
"529 102 LINE",
"380 102 LINE",
"380 750 LINE",
"41 750 LINE",
"41 0 LINE"
);
}
);
width = 946;
},
{
layerId = "1DE04BF9-788D-44CB-BAD3-AEB0D6A323B9";
paths = (
{
closed = 1;
nodes = (
"850 0 LINE",
"908 143 LINE",
"908 750 LINE",
"569 750 LINE",
"569 202 LINE",
"529 102 LINE",
"380 102 LINE",
"380 750 LINE",
"41 750 LINE",
"41 0 LINE"
);
}
);
width = 946;
}
);
unicode = 0056;
},
{
glyphname = W;
lastChange = "2019-09-10 12:18:56 +0000";
layers = (
{
layerId = "41E2CF60-9A62-485C-A680-66BBCCBE3685";
paths = (
{
closed = 1;
nodes = (
"1239 0 LINE",
"1424 211 LINE",
"1430 211 LINE",
"1620 0 LINE",
"2579 0 LINE",
"2803 217 LINE",
"2803 750 LINE",
"2363 750 LINE",
"2363 276 LINE",
"2231 169 LINE",
"1776 169 LINE",
"1645 322 LINE",
"1645 750 LINE",
"1208 750 LINE",
"1208 322 LINE",
"1083 169 LINE",
"627 169 LINE",
"492 276 LINE",
"492 750 LINE",
"52 750 LINE",
"52 217 LINE",
"279 0 LINE"
);
}
);
width = 2855;
},
{
layerId = "C9BA7AB2-4C39-4898-B0E1-23BE521DA8C1";
paths = (
{
closed = 1;
nodes = (
"778 0 LINE",
"886 123 LINE",
"881 123 LINE",
"994 0 LINE",
"1596 0 LINE",
"1712 167 LINE",
"1712 750 LINE",
"1671 750 LINE",
"1671 175 LINE",
"1569 32 LINE",
"1014 32 LINE",
"903 153 LINE",
"903 750 LINE",
"862 750 LINE",
"862 153 LINE",
"757 32 LINE",
"202 32 LINE",
"97 175 LINE",
"97 750 LINE",
"56 750 LINE",
"56 167 LINE",
"176 0 LINE"
);
}
);
width = 1768;
},
{
layerId = "1577B97C-DCC5-4AA4-842F-E9BB22E99E3C";
paths = (
{
closed = 1;
nodes = (
"117 0 LINE",
"138 84 LINE",
"132 84 LINE",
"158 0 LINE",
"214 0 LINE",
"238 91 LINE",
"238 750 LINE",
"207 750 LINE",
"207 85 LINE",
"191 22 LINE",
"176 22 LINE",
"150 106 LINE",
"150 750 LINE",
"119 750 LINE",
"119 106 LINE",
"99 22 LINE",
"83 22 LINE",
"64 85 LINE",
"64 750 LINE",
"33 750 LINE",
"33 91 LINE",
"61 0 LINE"
);
}
);
userData = {
com.schriftgestaltung.Glyphs.lastChange = "2019-04-28 11:47:40 +0000";
com.typemytype.robofont.Image.Brightness = 0;
com.typemytype.robofont.Image.Contrast = 1;
com.typemytype.robofont.Image.Saturation = 1;
com.typemytype.robofont.Image.Sharpness = 0.4;
com.typemytype.robofont.pointLabels = {
2hHIzNbbGO = (
shiftdown
);
CodClRNdlc = (
shiftdown
);
FZ3OmcGf1a = (
shiftdown
);
JvYTBAOPZP = (
rightside,
rightside,
rightside,
shiftstem,
shiftdown,
shiftdown,
shiftdown,
shiftdown,
leftside,
leftside,
leftside
);
K0jsUof4uz = (
shiftdown
);
UtnYmVSa9e = (
rightside,
rightside,
rightside,
shiftstem,
shiftdown,
shiftdown,
shiftdown,
shiftdown,
leftside,
leftside,
leftside
);
btNB0eFOdk = (
rightside,
rightside,
rightside,
shiftstem,
shiftdown,
shiftdown,
shiftdown,
shiftdown,
leftside,
leftside,
leftside
);
dVsTZYNxAD = (
rightside,
rightside,
rightside,
shiftstem,
shiftdown,
shiftdown,
shiftdown,
shiftdown,
leftside,
leftside,
leftside
);
il0UzAz6xX = (
rightside,
rightside,
rightside,
shiftstem,
shiftdown,
shiftdown,
shiftdown,
shiftdown,
leftside,
leftside,
leftside
);
l7kU354nQi = (
rightside,
rightside,
rightside,
shiftstem,
shiftdown,
shiftdown,
shiftdown,
shiftdown,
leftside,
leftside,
leftside
);
lwgAcRFjz3 = (
rightside,
rightside,
rightside,
shiftstem,
shiftdown,
shiftdown,
shiftdown,
shiftdown,
leftside,
leftside,
leftside
);
qTN6MaeebC = (
rightside,
rightside,
rightside,
shiftstem,
shiftdown,
shiftdown,
shiftdown,
shiftdown,
leftside,
leftside,
leftside
);
tG1gTEtDdI = (
rightside,
rightside,
rightside,
shiftstem,
shiftdown,
shiftdown,
shiftdown,
shiftdown,
leftside,
leftside,
leftside
);
vmHDiIUK3k = (
rightside,
rightside,
rightside,
shiftstem,
shiftdown,
shiftdown,
shiftdown,
shiftdown,
leftside,
leftside,
leftside
);
vyhN9GCvPW = (
rightside,
rightside,
rightside,
shiftstem,
shiftdown,
shiftdown,
shiftdown,
shiftdown,
leftside,
leftside,
leftside
);
xihhpvcZ90 = (
rightside,
rightside,
rightside,
shiftstem,
shiftdown,
shiftdown,
shiftdown,
shiftdown,
leftside,
leftside,
leftside
);
};
};
width = 271;
},
{
layerId = "628C7BDB-7DBE-4EE3-879C-693AF95326D4";
paths = (
{
closed = 1;
nodes = (
"560 0 LINE",
"667 134 LINE",
"673 134 LINE",
"787 0 LINE",
"1236 0 LINE",
"1306 143 LINE",
"1306 750 LINE",
"967 750 LINE",
"967 149 LINE",
"952 102 LINE",
"834 102 LINE",
"810 148 LINE",
"810 750 LINE",
"530 750 LINE",
"530 147 LINE",
"512 102 LINE",
"393 102 LINE",
"376 149 LINE",
"376 750 LINE",
"37 750 LINE",
"37 143 LINE",
"108 0 LINE"
);
}
);
width = 1343;
},
{
layerId = "7F3C6EE5-2603-4259-9F13-C30BB9E194E1";
paths = (
{
closed = 1;
nodes = (
"117 0 LINE",
"138 84 LINE",
"132 84 LINE",
"158 0 LINE",
"214 0 LINE",
"238 91 LINE",
"238 750 LINE",
"207 750 LINE",
"207 85 LINE",
"191 22 LINE",
"176 22 LINE",
"150 106 LINE",
"150 750 LINE",
"119 750 LINE",
"119 106 LINE",
"99 22 LINE",
"83 22 LINE",
"64 85 LINE",
"64 750 LINE",
"33 750 LINE",
"33 91 LINE",
"61 0 LINE"
);
}
);
userData = {
com.schriftgestaltung.Glyphs.lastChange = "2019-04-28 11:47:40 +0000";
com.typemytype.robofont.Image.Brightness = 0;
com.typemytype.robofont.Image.Contrast = 1;
com.typemytype.robofont.Image.Saturation = 1;
com.typemytype.robofont.Image.Sharpness = 0.4;
com.typemytype.robofont.pointLabels = {
2hHIzNbbGO = (
shiftdown
);
CodClRNdlc = (
shiftdown
);
FZ3OmcGf1a = (
shiftdown
);
JvYTBAOPZP = (
rightside,
rightside,
rightside,
shiftstem,
shiftdown,
shiftdown,
shiftdown,
shiftdown,
leftside,
leftside,
leftside
);
K0jsUof4uz = (
shiftdown
);
UtnYmVSa9e = (
rightside,
rightside,
rightside,
shiftstem,
shiftdown,
shiftdown,
shiftdown,
shiftdown,
leftside,
leftside,
leftside
);
btNB0eFOdk = (
rightside,
rightside,
rightside,
shiftstem,
shiftdown,
shiftdown,
shiftdown,
shiftdown,
leftside,
leftside,
leftside
);
dVsTZYNxAD = (
rightside,
rightside,
rightside,
shiftstem,
shiftdown,
shiftdown,
shiftdown,
shiftdown,
leftside,
leftside,
leftside
);
il0UzAz6xX = (
rightside,
rightside,
rightside,
shiftstem,
shiftdown,
shiftdown,
shiftdown,
shiftdown,
leftside,
leftside,
leftside
);
l7kU354nQi = (
rightside,
rightside,
rightside,
shiftstem,
shiftdown,
shiftdown,
shiftdown,
shiftdown,
leftside,
leftside,
leftside
);
lwgAcRFjz3 = (
rightside,
rightside,
rightside,
shiftstem,
shiftdown,
shiftdown,
shiftdown,
shiftdown,
leftside,
leftside,
leftside
);
qTN6MaeebC = (
rightside,
rightside,
rightside,
shiftstem,
shiftdown,
shiftdown,
shiftdown,
shiftdown,
leftside,
leftside,
leftside
);
tG1gTEtDdI = (
rightside,
rightside,
rightside,
shiftstem,
shiftdown,
shiftdown,
shiftdown,
shiftdown,
leftside,
leftside,
leftside
);
vmHDiIUK3k = (
rightside,
rightside,
rightside,
shiftstem,
shiftdown,
shiftdown,
shiftdown,
shiftdown,
leftside,
leftside,
leftside
);
vyhN9GCvPW = (
rightside,
rightside,
rightside,
shiftstem,
shiftdown,
shiftdown,
shiftdown,
shiftdown,
leftside,
leftside,
leftside
);
xihhpvcZ90 = (
rightside,
rightside,
rightside,
shiftstem,
shiftdown,
shiftdown,
shiftdown,
shiftdown,
leftside,
leftside,
leftside
);
};
};
width = 271;
},
{
layerId = "7A9BD435-3083-4FB3-9FE1-50106B21C13B";
paths = (
{
closed = 1;
nodes = (
"778 0 LINE",
"886 123 LINE",
"881 123 LINE",
"994 0 LINE",
"1596 0 LINE",
"1712 167 LINE",
"1712 750 LINE",
"1671 750 LINE",
"1671 175 LINE",
"1569 32 LINE",
"1014 32 LINE",
"903 153 LINE",
"903 750 LINE",
"862 750 LINE",
"862 153 LINE",
"757 32 LINE",
"202 32 LINE",
"97 175 LINE",
"97 750 LINE",
"56 750 LINE",
"56 167 LINE",
"176 0 LINE"
);
}
);
width = 1768;
},
{
layerId = "401C54E9-F42A-49C7-842E-99B3D4FBDAC0";
paths = (
{
closed = 1;
nodes = (
"1239 0 LINE",
"1424 211 LINE",
"1430 211 LINE",
"1620 0 LINE",
"2579 0 LINE",
"2803 217 LINE",
"2803 750 LINE",
"2363 750 LINE",
"2363 276 LINE",
"2231 169 LINE",
"1776 169 LINE",
"1645 322 LINE",
"1645 750 LINE",
"1208 750 LINE",
"1208 322 LINE",
"1083 169 LINE",
"627 169 LINE",
"492 276 LINE",
"492 750 LINE",
"52 750 LINE",
"52 217 LINE",
"279 0 LINE"
);
}
);
width = 2855;
},
{
layerId = "6A003782-5630-46D5-9AEF-173A49B0B076";
paths = (
{
closed = 1;
nodes = (
"117 0 LINE",
"138 84 LINE",
"132 84 LINE",
"158 0 LINE",
"214 0 LINE",
"238 91 LINE",
"238 750 LINE",
"207 750 LINE",
"207 85 LINE",
"191 22 LINE",
"176 22 LINE",
"150 106 LINE",
"150 750 LINE",
"119 750 LINE",
"119 106 LINE",
"99 22 LINE",
"83 22 LINE",
"64 85 LINE",
"64 750 LINE",
"33 750 LINE",
"33 91 LINE",
"61 0 LINE"
);
}
);
userData = {
com.schriftgestaltung.Glyphs.lastChange = "2019-04-28 11:47:40 +0000";
com.typemytype.robofont.Image.Brightness = 0;
com.typemytype.robofont.Image.Contrast = 1;
com.typemytype.robofont.Image.Saturation = 1;
com.typemytype.robofont.Image.Sharpness = 0.4;
com.typemytype.robofont.pointLabels = {
2hHIzNbbGO = (
shiftdown
);
CodClRNdlc = (
shiftdown
);
FZ3OmcGf1a = (
shiftdown
);
JvYTBAOPZP = (
rightside,
rightside,
rightside,
shiftstem,
shiftdown,
shiftdown,
shiftdown,
shiftdown,
leftside,
leftside,
leftside
);
K0jsUof4uz = (
shiftdown
);
UtnYmVSa9e = (
rightside,
rightside,
rightside,
shiftstem,
shiftdown,
shiftdown,
shiftdown,
shiftdown,
leftside,
leftside,
leftside
);
btNB0eFOdk = (
rightside,
rightside,
rightside,
shiftstem,
shiftdown,
shiftdown,
shiftdown,
shiftdown,
leftside,
leftside,
leftside
);
dVsTZYNxAD = (
rightside,
rightside,
rightside,
shiftstem,
shiftdown,
shiftdown,
shiftdown,
shiftdown,
leftside,
leftside,
leftside
);
il0UzAz6xX = (
rightside,
rightside,
rightside,
shiftstem,
shiftdown,
shiftdown,
shiftdown,
shiftdown,
leftside,
leftside,
leftside
);
l7kU354nQi = (
rightside,
rightside,
rightside,
shiftstem,
shiftdown,
shiftdown,
shiftdown,
shiftdown,
leftside,
leftside,
leftside
);
lwgAcRFjz3 = (
rightside,
rightside,
rightside,
shiftstem,
shiftdown,
shiftdown,
shiftdown,
shiftdown,
leftside,
leftside,
leftside
);
qTN6MaeebC = (
rightside,
rightside,
rightside,
shiftstem,
shiftdown,
shiftdown,
shiftdown,
shiftdown,
leftside,
leftside,
leftside
);
tG1gTEtDdI = (
rightside,
rightside,
rightside,
shiftstem,
shiftdown,
shiftdown,
shiftdown,
shiftdown,
leftside,
leftside,
leftside
);
vmHDiIUK3k = (
rightside,
rightside,
rightside,
shiftstem,
shiftdown,
shiftdown,
shiftdown,
shiftdown,
leftside,
leftside,
leftside
);
vyhN9GCvPW = (
rightside,
rightside,
rightside,
shiftstem,
shiftdown,
shiftdown,
shiftdown,
shiftdown,
leftside,
leftside,
leftside
);
xihhpvcZ90 = (
rightside,
rightside,
rightside,
shiftstem,
shiftdown,
shiftdown,
shiftdown,
shiftdown,
leftside,
leftside,
leftside
);
};
};
width = 271;
},
{
layerId = "9EF6E879-D021-4626-8F52-6D74284C4DC7";
paths = (
{
closed = 1;
nodes = (
"778 0 LINE",
"886 123 LINE",
"881 123 LINE",
"994 0 LINE",
"1596 0 LINE",
"1712 167 LINE",
"1712 750 LINE",
"1671 750 LINE",
"1671 175 LINE",
"1569 32 LINE",
"1014 32 LINE",
"903 153 LINE",
"903 750 LINE",
"862 750 LINE",
"862 153 LINE",
"757 32 LINE",
"202 32 LINE",
"97 175 LINE",
"97 750 LINE",
"56 750 LINE",
"56 167 LINE",
"176 0 LINE"
);
}
);
width = 1768;
},
{
layerId = "FEE31BD6-05B9-4F93-BD72-F1214701600E";
paths = (
{
closed = 1;
nodes = (
"1239 0 LINE",
"1424 211 LINE",
"1430 211 LINE",
"1620 0 LINE",
"2579 0 LINE",
"2803 217 LINE",
"2803 750 LINE",
"2363 750 LINE",
"2363 276 LINE",
"2231 169 LINE",
"1776 169 LINE",
"1645 322 LINE",
"1645 750 LINE",
"1208 750 LINE",
"1208 322 LINE",
"1083 169 LINE",
"627 169 LINE",
"492 276 LINE",
"492 750 LINE",
"52 750 LINE",
"52 217 LINE",
"279 0 LINE"
);
}
);
width = 2855;
},
{
layerId = "A421AE7B-D57F-4979-B16B-A2461F92FFEC";
paths = (
{
closed = 1;
nodes = (
"560 0 LINE",
"667 134 LINE",
"673 134 LINE",
"787 0 LINE",
"1236 0 LINE",
"1306 143 LINE",
"1306 750 LINE",
"967 750 LINE",
"967 149 LINE",
"952 102 LINE",
"834 102 LINE",
"810 148 LINE",
"810 750 LINE",
"530 750 LINE",
"530 147 LINE",
"512 102 LINE",
"393 102 LINE",
"376 149 LINE",
"376 750 LINE",
"37 750 LINE",
"37 143 LINE",
"108 0 LINE"
);
}
);
width = 1343;
},
{
layerId = "1DE04BF9-788D-44CB-BAD3-AEB0D6A323B9";
paths = (
{
closed = 1;
nodes = (
"560 0 LINE",
"667 134 LINE",
"673 134 LINE",
"787 0 LINE",
"1236 0 LINE",
"1306 143 LINE",
"1306 750 LINE",
"967 750 LINE",
"967 149 LINE",
"952 102 LINE",
"834 102 LINE",
"810 148 LINE",
"810 750 LINE",
"530 750 LINE",
"530 147 LINE",
"512 102 LINE",
"393 102 LINE",
"376 149 LINE",
"376 750 LINE",
"37 750 LINE",
"37 143 LINE",
"108 0 LINE"
);
}
);
width = 1343;
}
);
unicode = 0057;
},
